<?xml version="1.0" encoding="utf-8"?>
<!-- Generator: Adobe Illustrator 16.0.0, SVG Export Plug-In . SVG Version: 6.00 Build 0)  -->
<!DOCTYPE svg PUBLIC "-//W3C//DTD SVG 1.1//EN" "http://www.w3.org/Graphics/SVG/1.1/DTD/svg11.dtd">
<svg version="1.1" xmlns="http://www.w3.org/2000/svg" xmlns:xlink="http://www.w3.org/1999/xlink" x="0px" y="0px"
	 width="511.026px" height="373.525px" viewBox="0 0 511.026 373.525" enable-background="new 0 0 511.026 373.525"
	 xml:space="preserve">
<g id="Layer_1">
</g>
<g id="Layer_2">
	<g>
		<g>
			
				<ellipse transform="matrix(-0.926 -0.3776 0.3776 -0.926 332.5906 542.2804)" fill="#CFD7D9" cx="219.455" cy="238.537" rx="18.314" ry="18.57"/>
			<path d="M230.439,256.905c-5.769,3.532-12.92,4.13-19.129,1.599c-5.279-2.152-9.392-6.259-11.578-11.559
				c-2.181-5.284-2.187-11.131-0.015-16.458c1.767-4.328,4.792-7.898,8.753-10.323c5.768-3.533,12.92-4.131,19.129-1.598
				c5.279,2.152,9.389,6.258,11.578,11.559c2.18,5.287,2.184,11.132,0.012,16.46C237.425,250.912,234.398,254.48,230.439,256.905z
				 M211.602,225.277c-2.861,1.753-5.051,4.338-6.33,7.476c-1.574,3.858-1.572,8.087,0.004,11.908
				c1.571,3.806,4.518,6.749,8.301,8.292c4.515,1.841,9.521,1.416,13.731-1.162c2.861-1.754,5.051-4.337,6.33-7.471
				c1.573-3.858,1.572-8.088-0.004-11.908c-1.571-3.807-4.517-6.752-8.297-8.292C220.818,222.276,215.813,222.699,211.602,225.277z"
				/>
		</g>
		<g>
			<path fill="#CFD7D9" d="M208.691,238.518c-3.426,15.561-23.129,14.677-41.897,6.511c-19.462-8.467-31.894-18.599-30.669-22.482
				c1.275-4.052,20.487-9.973,40.187-9.76C196.771,213.007,212.596,220.771,208.691,238.518z"/>
			<path d="M203.754,250.586c-8.367,5.125-22.273,4.102-38.155-2.807c-12.341-5.369-34.979-17.74-32.333-26.135
				c0.462-1.466,1.679-2.787,3.721-4.037c6.501-3.982,23-7.995,39.357-7.82c14.853,0.161,26.133,4.152,31.767,11.239
				c3.897,4.902,5.078,11.004,3.509,18.135C210.503,244.229,207.857,248.073,203.754,250.586z M139.157,223.401
				c1.175,2.61,10.118,10.736,28.833,18.878c13.65,5.938,26.154,7.163,32.633,3.194c2.696-1.652,4.377-4.138,5.141-7.602
				c1.162-5.281,0.373-9.694-2.347-13.115c-4.489-5.646-14.126-8.832-27.138-8.973c-15.076-0.163-30.51,3.474-36.161,6.937
				C139.646,223.008,139.344,223.239,139.157,223.401z"/>
		</g>
	</g>
	<ellipse fill="#EAEEED" cx="292.861" cy="339.093" rx="68.209" ry="4.5"/>
	<ellipse fill="#EAEEED" cx="100.861" cy="362.093" rx="68.209" ry="4.5"/>
	<g>
		<g>
			<path fill="#E60029" d="M297.524,190.929c0,0,103.807-30.088,176.769-14.293c-1.502,31.595-8.275,177.522-8.275,177.522
				s-139.907,1.504-157.209-10.529C301.084,323.623,297.524,190.929,297.524,190.929z"/>
			<path d="M451.332,354.719c-38.321,0-128.95-1.041-142.809-10.68l-0.126-0.087l-0.056-0.144
				c-7.667-19.857-11.172-147.445-11.317-152.866l-0.01-0.387l0.37-0.107c0.652-0.188,65.926-18.896,128.61-18.896
				c18.031,0,34.316,1.546,48.403,4.596l0.414,0.089l-0.021,0.423c-1.484,31.233-8.207,176.063-8.275,177.522l-0.021,0.472
				l-0.472,0.005C465.967,354.659,460.319,354.719,451.332,354.719z M309.22,343.305c14.051,9.396,104.002,10.414,142.112,10.414
				c7.503,0,12.675-0.042,14.208-0.056c0.425-9.145,6.753-145.453,8.233-176.628c-13.923-2.976-29.994-4.483-47.778-4.483
				c-60.086,0-122.564,17.229-127.96,18.752C298.258,199.251,301.857,323.659,309.22,343.305z"/>
		</g>
		<g>
			<polygon fill="#D71921" points="503.629,196.193 474.293,176.636 466.018,354.158 496.859,340.617 			"/>
			<path d="M465.48,354.94l0.038-0.806l8.316-178.405l30.307,20.205l-0.014,0.282l-6.783,144.733L465.48,354.94z M474.751,177.542
				l-8.196,175.834l29.819-13.092l6.742-143.832L474.751,177.542z"/>
		</g>
		<g>
			<path fill="#AAA9A9" d="M335.164,181.713c0,0-16.828-105.687,60.904-111.309c49.648-3.59,71.467,31.764,71.467,51.696
				c0,18.104,0,52.969,0,52.969l-30.09-3.697c0,0,12.779-68.077-32.725-69.956c-54.623-2.257-38.93,77.104-38.93,77.104
				L335.164,181.713z"/>
			<path d="M334.744,182.26l-0.074-0.47c-0.089-0.569-8.644-57.375,17.053-89.709c10.604-13.343,25.596-20.804,44.56-22.176
				c2.341-0.169,4.68-0.255,6.95-0.255c46.147,0,65.303,34.161,65.303,52.45v53.533l-31.429-3.83l0.098-0.523
				c0.071-0.383,6.94-38.56-8.58-58.031c-5.66-7.103-13.667-10.915-23.799-11.333c-0.757-0.031-1.506-0.047-2.235-0.047
				c-11.616,0-20.748,3.943-27.144,11.722c-17.446,21.221-9.188,64.399-9.103,64.833l0.106,0.537L334.744,182.26z M403.232,70.65
				c-2.247,0-4.561,0.085-6.878,0.253c-18.674,1.351-33.427,8.685-43.849,21.8c-24.19,30.438-17.683,82.939-16.916,88.463
				l29.675-3.087c-0.901-5.094-7.262-44.847,9.409-65.123c6.595-8.021,15.986-12.087,27.916-12.087c0.743,0,1.506,0.016,2.276,0.047
				c10.436,0.432,18.692,4.371,24.542,11.711c14.798,18.568,9.644,53.608,8.868,58.313l29.259,3.565v-52.404
				C467.535,104.16,448.673,70.65,403.232,70.65z"/>
		</g>
		<g>
			<path fill="#AAA9A9" d="M395.999,243.781c0-9.55-7.235-17.294-16.792-17.294c-9.553,0-16.511,7.744-16.511,17.294
				c0,6.568,2.839,12.279,9.839,15.207v26.5h13v-26.294C391.535,256.334,395.999,250.508,395.999,243.781z"/>
			<path d="M386.535,285.488h-14v-26.17c-6.47-2.828-10.026-8.333-10.026-15.537c0-10.145,7.232-17.794,16.823-17.794
				c9.767,0,17.417,7.816,17.417,17.794c0,6.6-3.905,12.598-10.214,15.726V285.488z M373.535,284.488h12v-25.609l0.285-0.136
				c6.124-2.92,9.929-8.653,9.929-14.962c0-9.417-7.211-16.794-16.417-16.794c-9.021,0-15.823,7.22-15.823,16.794
				c0,4.872,1.687,11.386,9.72,14.746l0.307,0.128V284.488z"/>
		</g>
	</g>
	<g>
		<g>
			<ellipse fill="#CFD7D9" cx="100.928" cy="284.636" rx="45.453" ry="33.041"/>
			<path d="M100.929,320.676c-26.716,0-48.452-16.168-48.452-36.04c0-19.874,21.736-36.042,48.452-36.042
				s48.451,16.168,48.451,36.042C149.38,304.508,127.645,320.676,100.929,320.676z M100.929,254.591
				c-23.409,0-42.455,13.479-42.455,30.045c0,16.565,19.046,30.043,42.455,30.043c23.41,0,42.454-13.478,42.454-30.043
				C143.383,268.069,124.339,254.591,100.929,254.591z"/>
		</g>
		<g>
			<path fill="#FFFFFF" d="M148.766,179.861c-5.247-14.992-20.047-17.373-29.98-17.373H106.3H94.307H82.314
				c-9.934,0-24.734,2.381-29.98,17.373c0,0-21.362,60.525-18.738,93.163c1.499,12.143,11.803,17.464,21.736,17.464h38.975H106.3
				h39.468c9.935,0,20.237-5.321,21.736-17.464C170.127,240.387,148.766,179.861,148.766,179.861z"/>
			<path fill="#EAEEED" d="M147.267,179.861c-5.247-14.992-20.047-17.373-29.981-17.373h-12.484h-5.266v128h5.266h39.468
				c9.935,0,20.237-5.321,21.736-17.464C168.629,240.387,147.267,179.861,147.267,179.861z"/>
			<path d="M145.768,294.488H55.332c-11.045,0-22.969-6.601-24.712-20.715c-2.651-32.953,18.087-92.632,18.843-95.139
				c4.469-12.777,16.123-20.146,32.852-20.146h36.471c16.729,0,28.382,7.229,32.811,19.879c0.797,2.633,21.535,62.324,18.896,95.15
				C168.736,287.758,156.813,294.488,145.768,294.488z M82.314,165.488c-9.895,0-22.637,2.466-27.15,15.364
				c-0.142,0.479-21.128,60.737-18.58,92.433c1.281,10.352,10.342,15.203,18.748,15.203h90.436c8.406,0,17.467-4.972,18.761-15.452
				c2.536-31.58-18.45-91.563-18.633-92.169c-4.475-12.771-17.217-15.379-27.11-15.379H82.314z"/>
		</g>
		<g>
			<path fill="#FFFFFF" d="M95.361,322.898c2.061,8.908,3.283,29.935-2.479,32.18c-9.71,3.787-25.871,9.342-41.391,5.12
				c-8.398-2.282-12.693-8.747-8.136-23.406c3.101-9.975,14.368-19.756,26.159-21.52C79.775,313.734,93.789,316.103,95.361,322.898z
				"/>
			<path d="M63.324,364.709c-4.424,0-8.67-0.543-12.619-1.617c-4.813-1.309-8.258-3.803-10.241-7.416
				c-2.629-4.789-2.618-11.257,0.03-19.774c3.532-11.361,16.085-21.726,28.577-23.596c2.14-0.318,4.403-0.482,6.731-0.482
				c9.26,0,20.705,2.725,22.48,10.399c1.119,4.843,5.084,31.988-4.313,35.65C85.807,361.056,74.945,364.709,63.324,364.709z
				 M75.803,317.82c-2.031,0-3.997,0.139-5.843,0.418c-10.233,1.529-20.882,10.253-23.741,19.443
				c-2.109,6.785-2.277,11.869-0.498,15.109c1.186,2.161,3.331,3.638,6.558,4.514c3.437,0.936,7.153,1.408,11.046,1.408
				c10.621,0,20.794-3.435,28.469-6.428c2.509-1.293,3.311-17.2,0.647-28.709C91.694,320.349,84.386,317.82,75.803,317.82z"/>
		</g>
		<g>
			<path fill="#EAEEED" d="M110.18,322.898c-2.061,8.908-3.283,29.935,2.479,32.18c9.71,3.787,25.87,9.342,41.391,5.12
				c8.398-2.282,12.693-8.747,8.136-23.406c-3.102-9.975-14.368-19.756-26.159-21.52
				C125.766,313.734,111.752,316.103,110.18,322.898z"/>
			<path d="M142.219,364.488c-0.001,0-0.002,0-0.002,0c-11.621,0-22.482-3.545-30.646-6.727c-9.396-3.66-5.432-30.75-4.312-35.593
				c1.776-7.677,13.22-10.373,22.479-10.373c2.328,0,4.593,0.178,6.732,0.498c12.492,1.868,25.045,12.24,28.577,23.601
				c2.648,8.518,2.659,14.989,0.03,19.778c-1.983,3.612-5.43,5.999-10.242,7.307C150.887,364.054,146.643,364.488,142.219,364.488z
				 M129.738,317.82c-8.582,0-15.891,2.528-16.637,5.756c-2.663,11.509-1.861,27.303,0.653,28.601
				c7.668,2.99,17.841,6.312,28.462,6.312c0,0,0.001,0,0.002,0c3.892,0,7.607-0.36,11.044-1.295
				c3.228-0.877,5.373-2.298,6.559-4.459c1.778-3.24,1.61-8.297-0.499-15.08c-2.857-9.191-13.508-17.899-23.739-19.43
				C133.736,317.946,131.77,317.82,129.738,317.82z"/>
		</g>
		<g>
			<rect x="94.418" y="35.491" transform="matrix(0.9992 -0.0394 0.0394 0.9992 -1.795 3.8741)" width="6" height="24"/>
			<circle cx="96.685" cy="27.608" r="12.665"/>
		</g>
		<path fill="#00B2ED" d="M136.281,247.486c0,5.804-4.703,11.002-10.506,11.002H73.332c-5.801,0-10.505-5.198-10.505-11.002
			l2.369-28.027c0-5.803,4.704-10.971,10.505-10.971h47.705c5.803,0,10.506,5.168,10.506,10.971L136.281,247.486z"/>
		<g>
			<text transform="matrix(1 0 0 1 71.5664 241.4619)" fill="#FFFFFF" font-family="'VWHead-Bold'" font-size="22.1054">#</text>
			<g>
				<path id="XMLID_14_" fill="#FFFFFF" d="M92.17,222.997c-0.555,0.524-1.421,0.494-1.941-0.056
					c-0.519-0.55-0.495-1.421,0.054-1.939c0.557-0.525,1.423-0.495,1.941,0.055C92.744,221.606,92.725,222.475,92.17,222.997z"/>
				<path fill="#FFFFFF" d="M103.434,240.526h-3.941c-0.653,0-1.762-0.013-2.35-0.013c-0.015-0.67-0.015-1.705-0.015-2.352v-7.025
					c0-0.623-0.008-1.466-0.008-2.362c0.36,0.009,1.688,0,2.372,0h3.941c0.037,0,0.074,0,0.11-0.009v-2.23
					c-0.036,0-0.073-0.007-0.11-0.007h-3.941c-1.322,0-3.774,0.007-4.596,0.016c0,2.003-0.008,3.367-0.008,4.587v7.024
					c0,1.314,0,3.252,0.023,4.597c1.027,0.006,3.355,0.014,4.58,0.014h3.941c0.037,0,0.074,0,0.11-0.008v-2.231
					C103.508,240.526,103.471,240.526,103.434,240.526z"/>
				<g>
					<polygon fill="#FFFFFF" points="92.416,226.535 90.17,226.535 90.236,242.752 92.482,242.752 					"/>
				</g>
				<path fill="#FFFFFF" d="M125.932,240.564h-3.94c-0.653,0-1.763-0.016-2.349-0.016c-0.015-0.668-0.015-1.703-0.015-2.348v-7.025
					c0-0.624-0.009-1.468-0.009-2.364c0.359,0.007,1.688,0,2.372,0h3.94c0.037,0,0.073,0,0.111-0.009v-2.231
					c-0.038,0-0.074-0.007-0.111-0.007h-3.94c-1.322,0-3.774,0.007-4.597,0.016c0,2.003-0.008,3.369-0.008,4.588v7.023
					c0,1.315,0,3.253,0.022,4.595c1.028,0.009,3.354,0.018,4.582,0.018h3.94c0.037,0,0.073,0,0.111-0.009v-2.23
					C125.998,240.57,125.969,240.564,125.932,240.564z"/>
				<path fill="#FFFFFF" d="M106.752,228.818h4.058c0.661,0,1.94-0.016,2.351-0.023l0.051,7.835v1.532
					c0,0.646-0.021,1.712-0.03,2.38c-0.587-0.009-1.71,0.036-2.371,0.036h-4.058v2.159h4.058c1.226,0,3.532,0.015,4.559,0.006
					c0.024-1.342,0-3.26,0-4.571v-0.222c0-0.036,0.008-0.073,0.008-0.116l-0.008-2.049v-4.648c0-1.216,0.015-2.582,0.015-4.586
					c-0.007,0,0,0-0.007,0l-0.008-5.901c0-0.008,0-0.015,0-0.023l-2.259-0.006c0,0.006,0,0.021,0,0.029l0.021,5.901
					c-0.83,0-1.703,0.006-2.321,0.006h-4.058V228.818L106.752,228.818z"/>
			</g>
		</g>
		<path fill="#FFFFFF" d="M186.366,145.949c0.786,19.93-14.732,36.723-34.66,37.508l-101.697,4.011
			c-19.929,0.785-36.721-14.732-37.507-34.662l-2.001-50.735C9.715,82.142,25.233,65.349,45.162,64.563l101.697-4.01
			c19.928-0.786,36.721,14.732,37.507,34.661L186.366,145.949z"/>
		<path fill="#EAEEED" d="M145.175,56.615l-47.323,1.866l5.083,128.9l46.385-3.329c9.447-0.373,33.21-9.936,37.888-28.498
			l-1.759-68.419C181.916,73.666,165.99,55.795,145.175,56.615z"/>
		<path d="M152.25,185.438l-101.589,4.006c-21.548,0.85-39.347-16.006-40.196-37.555l-1.999-50.66
			c-0.851-21.55,15.563-39.835,37.112-40.685l101.589-4.007c21.548-0.85,40.311,16.049,41.159,37.599l1.998,50.66
			C191.174,166.346,173.798,184.588,152.25,185.438z M182.328,94.296c-0.721-18.274-16.12-32.505-34.394-31.784l-101.692,4.01
			c-18.274,0.721-32.504,16.12-31.784,34.395l2.001,50.73c0.721,18.275,16.119,32.506,34.393,31.784l101.693-4.01
			c18.274-0.721,32.504-16.12,31.783-34.395L182.328,94.296z"/>
		<g>
			<path d="M94.86,138.876c0.52,13.154-9.724,24.238-22.877,24.758c-13.154,0.519-24.237-9.725-24.757-22.88
				c-0.519-13.151,9.726-24.237,22.878-24.756C83.258,115.479,94.342,125.725,94.86,138.876z"/>
			<circle fill="#FFFFFF" cx="72.458" cy="139.154" r="16.662"/>
		</g>
		<g>
			<circle cx="146.875" cy="136.305" r="23.835"/>
			<path fill="#FFFFFF" d="M166.382,135.465c0.371,9.405-6.956,17.332-16.36,17.702c-9.406,0.372-17.332-6.952-17.704-16.358
				c-0.37-9.409,6.954-17.332,16.359-17.702C158.084,118.736,166.011,126.057,166.382,135.465z"/>
		</g>
	</g>
	<g>
		<path fill-rule="evenodd" clip-rule="evenodd" fill="#FFD000" d="M126.511,250.445c-9.201,24.116-4.907,46.114,12.399,64.638
			c19.691,21.079,48.236,16.42,59.398-8.321c3.598-7.971,4.873-16.993,7.297-25.844c32.845-7.41,66.812-15.076,101.559-22.916
			c1.97,9.276,4.018,18.932,6.091,28.705c2.84-0.54,5.178-0.985,9.042-1.72c-1.619-3.723-3.029-6.966-4.422-10.169
			c3.016-0.998,4.748-1.572,8.275-2.738c0.195,4.552,0.348,8.063,0.479,11.15c3.951-0.716,6.937-1.255,11.199-2.022
			c-1.637-5.342-3.214-10.49-4.93-16.093c2.663-0.553,4.338-0.904,7.121-1.482c0.919,5.659,1.787,10.985,2.818,17.331
			c2.645-0.935,4.441-1.773,6.306-2.16c5.74-1.192,11.104-2.466,17.313-3.268c0.17-0.272,0.343-0.544,0.516-0.816
			c-1.854-9.716-4.023-19.634-6.03-29.484c0.478-0.127,1.083-0.306,1.704-0.46c8.756-2.179,10.773-5.823,8.533-15.354
			c-1.802-7.663-5.842-10.135-13.861-8.326c-6.104,1.376-12.167,2.951-18.269,4.335c-45.25,10.255-90.504,20.474-135.743,30.759
			c-1.547,0.352-2.959,1.298-4.435,1.968c0.172-0.646,0.342-1.298,0.512-1.947c-4.94-6.211-9.351-12.956-14.929-18.529
			c-13.841-13.821-34.473-14.213-48.174-1.568c-1.275,1.178-2.917,2.122-3.81,3.538c-1.889,2.991-3.774,5.982-5.663,8.975
			C126.507,249.102,126.728,249.881,126.511,250.445z M174.808,246.383c14.59,12.862,19.884,34.461,12.934,52.78
			c-6.195,16.334-23.297,20.745-36.688,9.463c-15.997-13.479-20.835-40.61-10.246-57.47
			C148.64,238.679,163.676,236.57,174.808,246.383z"/>
		<path d="M167.125,328.947c-0.001,0-0.001,0-0.002,0c-10.283,0-20.433-4.803-28.578-13.522
			c-17.603-18.841-21.809-40.763-12.501-65.158c0.068-0.178,0.074-0.427,0.082-0.69c0.01-0.395,0.022-0.843,0.26-1.22l5.663-8.974
			c0.645-1.022,1.63-1.799,2.582-2.551c0.445-0.351,0.905-0.713,1.312-1.088c6.489-5.989,14.806-9.287,23.418-9.287
			c9.392,0,18.43,3.86,25.448,10.869c3.859,3.856,7.208,8.328,10.445,12.653c1.466,1.958,2.981,3.982,4.521,5.918l0.155,0.196
			l-0.297,1.133c0.134-0.068,0.267-0.139,0.4-0.208c1.005-0.522,2.043-1.063,3.162-1.317c29.545-6.718,59.096-13.406,88.647-20.095
			c15.699-3.554,31.397-7.106,47.096-10.664c2.983-0.677,6.01-1.412,8.937-2.123c3.055-0.742,6.213-1.509,9.332-2.212
			c1.723-0.389,3.224-0.577,4.589-0.577c5.317,0,8.361,2.86,9.869,9.276c2.31,9.826,0.147,13.703-8.898,15.954
			c-0.393,0.098-0.779,0.205-1.13,0.303l-0.112,0.03c0.678,3.315,1.372,6.638,2.065,9.957c1.313,6.281,2.671,12.775,3.873,19.075
			l0.037,0.194l-0.745,1.182l-0.234,0.03c-4.957,0.64-9.296,1.565-13.89,2.545c-1.12,0.239-2.245,0.479-3.386,0.716
			c-1.224,0.254-2.407,0.705-3.905,1.276c-0.71,0.271-1.479,0.563-2.335,0.866l-0.564,0.199l-2.83-17.406l-6.073,1.265l4.935,16.107
			l-0.555,0.1c-4.263,0.768-7.248,1.307-11.199,2.022l-0.564,0.102l-0.475-11.062l-7.128,2.358l4.453,10.24l-10.138,1.929
			l-6.087-28.688L206.009,281.34c-0.731,2.699-1.367,5.447-1.982,8.108c-1.432,6.185-2.783,12.026-5.262,17.52
			C192.556,320.73,180.727,328.947,167.125,328.947z M159.36,227.457c-8.36,0-16.437,3.204-22.74,9.021
			c-0.435,0.401-0.91,0.776-1.37,1.139c-0.927,0.731-1.803,1.422-2.355,2.299l-5.663,8.975c-0.091,0.145-0.099,0.434-0.106,0.713
			c-0.009,0.32-0.018,0.684-0.147,1.021c-9.159,24.007-5.022,45.579,12.298,64.116c7.955,8.516,17.845,13.206,27.848,13.206
			c0.001,0,0.002,0,0.002,0c13.198,0,24.685-7.996,30.728-21.392c2.438-5.402,3.779-11.197,5.199-17.333
			c0.64-2.766,1.302-5.626,2.071-8.437l0.079-0.29l0.293-0.065l102.053-23.028l6.095,28.722l7.946-1.511l-4.391-10.098l9.423-3.118
			l0.483,11.239c3.508-0.636,6.31-1.142,10.081-1.821l-4.925-16.078l8.17-1.7l2.806,17.253c0.626-0.228,1.204-0.448,1.749-0.655
			c1.479-0.563,2.755-1.051,4.058-1.32c1.139-0.236,2.262-0.477,3.381-0.715c4.542-0.969,8.837-1.885,13.735-2.529l0.285-0.451
			c-1.19-6.229-2.533-12.651-3.832-18.863c-0.727-3.475-1.453-6.952-2.16-10.421l-0.094-0.462l1.012-0.273
			c0.358-0.1,0.754-0.21,1.156-0.31c8.526-2.121,10.358-5.431,8.167-14.755c-1.402-5.962-4.063-8.505-8.896-8.505
			c-1.291,0-2.72,0.181-4.368,0.552c-3.112,0.702-6.267,1.468-9.317,2.209c-2.93,0.712-5.96,1.448-8.951,2.126
			c-15.698,3.558-31.396,7.111-47.095,10.664c-29.553,6.689-59.104,13.378-88.648,20.095c-0.992,0.226-1.929,0.714-2.921,1.229
			c-0.471,0.245-0.94,0.49-1.417,0.706l-0.962,0.437l0.72-2.724c-1.495-1.888-2.963-3.848-4.383-5.745
			c-3.217-4.297-6.544-8.74-10.353-12.546C177.271,231.213,168.485,227.457,159.36,227.457z M166.976,315.396
			c-5.667,0-11.284-2.209-16.245-6.388c-16.32-13.752-21.155-40.909-10.348-58.118c4.46-7.104,11.397-11.179,19.035-11.179
			c5.612,0,11.048,2.178,15.721,6.296c14.694,12.954,20.068,34.886,13.07,53.333C184.452,309.244,176.316,315.396,166.976,315.396z
			 M159.418,240.712c-7.286,0-13.915,3.904-18.188,10.71c-10.377,16.522-5.542,43.605,10.145,56.821
			c4.778,4.025,10.173,6.153,15.601,6.153c9.05,0,16.638-5.761,20.298-15.411c6.854-18.065,1.592-39.543-12.797-52.228
			C169.99,242.803,164.783,240.712,159.418,240.712z"/>
	</g>
	<g>
		<g>
			
				<ellipse transform="matrix(-0.8237 -0.567 0.567 -0.8237 71.6336 541.0172)" fill="#FFFFFF" cx="119.926" cy="259.372" rx="18.316" ry="18.567"/>
			<path d="M140.164,252.168c2.204,6.438,1.201,13.648-2.683,19.29c-6.742,9.792-20.103,12.34-29.783,5.679
				c-3.761-2.59-6.529-6.242-8.009-10.564c-2.205-6.437-1.201-13.646,2.683-19.286c6.743-9.794,20.107-12.342,29.787-5.677
				C135.915,244.195,138.684,247.847,140.164,252.168z M105.361,264.63c1.061,3.097,3.044,5.714,5.736,7.566
				c6.956,4.787,16.577,2.932,21.445-4.14c2.812-4.083,3.539-9.297,1.947-13.945c-1.061-3.096-3.041-5.712-5.733-7.563
				c-6.955-4.791-16.577-2.935-21.448,4.139C104.497,254.77,103.77,259.981,105.361,264.63z"/>
		</g>
		<g>
			<path fill="#FFFFFF" d="M111.267,253.233c-6.677,14.47-25.733,9.388-42.32-2.606c-17.197-12.435-27.173-24.993-25.146-28.526
				c2.114-3.686,22.146-5.356,41.346-0.931C105.084,225.765,118.878,236.736,111.267,253.233z"/>
			<path d="M115.378,238.271c1.724,5.032,1.256,10.488-1.388,16.218c-2.365,5.122-6.338,8.541-11.493,9.894
				c-9.164,2.4-22.032-1.728-35.306-11.326c-13.397-9.686-23.905-20.6-26.152-27.159c-0.712-2.081-0.658-3.86,0.16-5.288
				c3.55-6.188,27.313-6.352,44.621-2.362C101.713,221.911,112.21,229.021,115.378,238.271z M46.712,223.955
				c1.56,4.555,10.303,14.344,23.993,24.242c11.643,8.419,22.958,12.3,30.271,10.385c3.461-0.907,5.937-3.066,7.57-6.604
				c1.976-4.282,2.365-8.241,1.159-11.764c-2.437-7.112-11.633-12.989-25.233-16.123c-18.114-4.177-34.642-2.475-37.88-0.543
				C46.619,223.654,46.655,223.79,46.712,223.955z"/>
		</g>
	</g>
</g>
</svg>
