<?xml version="1.0" encoding="utf-8"?>
<!-- Generator: Adobe Illustrator 16.0.0, SVG Export Plug-In . SVG Version: 6.00 Build 0)  -->
<!DOCTYPE svg PUBLIC "-//W3C//DTD SVG 1.1//EN" "http://www.w3.org/Graphics/SVG/1.1/DTD/svg11.dtd">
<svg version="1.1" xmlns="http://www.w3.org/2000/svg" xmlns:xlink="http://www.w3.org/1999/xlink" x="0px" y="0px" width="264px"
	 height="351px" viewBox="0 0 264 351" enable-background="new 0 0 264 351" xml:space="preserve">
<g id="Layer_1">
</g>
<g id="Layer_2">
	<ellipse fill="#EAEEED" cx="142.463" cy="336.601" rx="42.747" ry="4.423"/>
	<g>
		<ellipse fill="#CFD7D9" cx="140.874" cy="267.355" rx="39.513" ry="28.724"/>
		<path d="M140.874,298.686c-23.224,0-42.119-14.055-42.119-31.33s18.895-31.329,42.119-31.329
			c23.225,0,42.119,14.054,42.119,31.329S164.099,298.686,140.874,298.686z M140.874,241.238c-20.35,0-36.906,11.716-36.906,26.117
			s16.556,26.118,36.906,26.118c20.351,0,36.906-11.717,36.906-26.118S161.225,241.238,140.874,241.238z"/>
	</g>
	<g>
		<path fill="#FFFFFF" d="M60.678,235.941c5.308,7.162,3.887,17.213-3.18,22.45c-7.062,5.236-17.091,3.675-22.401-3.486
			c-5.308-7.159-3.885-17.211,3.177-22.448C45.34,227.22,55.369,228.779,60.678,235.941z"/>
		<path d="M48.111,264.096c-5.915,0-11.563-2.855-15.107-7.639c-6.156-8.303-4.487-20.008,3.718-26.094
			c3.187-2.363,6.971-3.611,10.943-3.611c5.914,0,11.561,2.855,15.105,7.638c6.156,8.307,4.487,20.013-3.721,26.096
			C55.865,262.847,52.083,264.096,48.111,264.096z M47.666,231.965c-2.846,0-5.557,0.895-7.839,2.586
			c-5.896,4.373-7.08,12.808-2.635,18.803c2.566,3.462,6.649,5.529,10.92,5.529c2.845,0,5.554-0.895,7.834-2.585
			c5.9-4.371,7.083-12.808,2.638-18.805C56.018,234.031,51.936,231.965,47.666,231.965z"/>
	</g>
	<g>
		<path fill="#FFFFFF" d="M55.374,240.03c-10.019-9.566-0.472-23.807,14.063-34.069c15.071-10.642,28.208-15.309,30.544-12.646
			c2.436,2.776-1.833,19.722-10.879,34.265C79.707,242.682,66.798,250.938,55.374,240.03z"/>
		<path d="M66.521,247.625c-4.624,0-8.979-1.922-12.947-5.71c-3.546-3.386-5.24-7.617-4.899-12.237
			c0.607-8.213,7.626-17.633,19.257-25.846c11.739-8.288,23.675-13.857,29.703-13.857c1.912,0,3.36,0.545,4.304,1.622
			c4.088,4.661-2.47,24.25-10.626,37.36C83.825,240.994,75.021,247.625,66.521,247.625z M97.636,195.188
			c-4.186,0-14.699,4.432-26.695,12.903c-10.203,7.203-16.582,15.417-17.066,21.971c-0.229,3.101,0.85,5.745,3.299,8.084
			c2.965,2.831,6.111,4.267,9.348,4.267c6.535,0,13.959-5.908,20.367-16.209c8.537-13.723,11.792-27.793,11.116-31
			C97.908,195.194,97.786,195.188,97.636,195.188z"/>
	</g>
	<g>
		<path fill="#FFFFFF" d="M182.459,176.188C177.898,163.156,165.032,161,156.396,161h-10.853h-10.425h-10.425
			c-8.635,0-21.501,2.156-26.063,15.188c0,0-18.57,52.438-16.29,80.812C83.645,267.554,92.601,272,101.236,272h33.882h10.425h34.31
			c8.636,0,17.592-4.446,18.896-15.001C201.028,228.626,182.459,176.188,182.459,176.188z"/>
		<path fill="#EAEEED" d="M181.156,176.188C176.595,163.156,163.729,161,155.093,161H144.24H139v111h5.24h34.31
			c8.636,0,17.592-4.446,18.895-15.001C199.725,228.626,181.156,176.188,181.156,176.188z"/>
		<path d="M179.853,276h-78.616c-9.601,0-19.967-5.777-21.481-18.047c-2.305-28.646,15.723-80.392,16.38-82.572
			C100.02,164.274,110.15,158,124.693,158h31.703c14.543,0,24.673,6.131,28.523,17.13c0.693,2.288,18.72,54.14,16.427,82.675
			C199.82,270.186,189.454,276,179.853,276z M124.693,163c-8.601,0-19.678,2.534-23.603,13.747
			c-0.123,0.415-18.366,52.642-16.151,80.195c1.114,8.999,8.99,13.058,16.297,13.058h78.616c7.308,0,15.184-3.97,16.309-13.079
			c2.205-27.453-16.039-79.812-16.197-80.337C176.074,165.479,164.998,163,156.396,163H124.693z"/>
	</g>
	<g>
		<path fill="#FFFFFF" d="M135.166,300.618c1.791,7.743,2.854,26.022-2.155,27.976c-8.44,3.291-22.489,8.118-35.981,4.449
			c-7.301-1.983-11.034-7.604-7.073-20.347c2.696-8.671,12.49-17.174,22.741-18.707C121.617,292.652,133.798,294.71,135.166,300.618
			z"/>
		<path d="M107.316,336.965c-3.847,0-7.538-0.473-10.971-1.406c-4.184-1.137-7.178-3.306-8.902-6.446
			c-2.286-4.163-2.276-9.786,0.026-17.189c3.07-9.877,13.982-18.888,24.842-20.512c1.86-0.278,3.828-0.42,5.852-0.42
			c8.05,0,17.998,2.367,19.542,9.04c0.973,4.209,4.419,27.807-3.749,30.99C126.859,333.787,117.417,336.965,107.316,336.965z
			 M118.163,296.203c-1.766,0-3.475,0.122-5.08,0.364c-8.896,1.329-18.153,8.913-20.638,16.902
			c-1.833,5.898-1.979,10.317-0.433,13.134c1.031,1.879,2.896,3.163,5.701,3.924c2.987,0.813,6.219,1.225,9.603,1.225
			c9.232,0,18.075-2.985,24.748-5.587c2.181-1.125,2.877-14.953,0.563-24.958C131.978,298.402,125.624,296.203,118.163,296.203z"/>
	</g>
	<g>
		<path fill="#EAEEED" d="M144.57,300.618c-1.792,7.743-2.854,26.022,2.155,27.976c8.441,3.291,22.489,8.118,35.98,4.449
			c7.301-1.983,11.035-7.604,7.073-20.347c-2.696-8.671-12.49-17.174-22.74-18.707C158.119,292.652,145.937,294.71,144.57,300.618z"
			/>
		<path d="M172.421,337c0,0-0.001,0-0.002,0c-10.102,0-19.544-3.194-26.641-5.961c-8.168-3.183-4.722-26.789-3.748-30.998
			c1.544-6.673,11.492-9.046,19.542-9.046c2.023,0,3.992,0.14,5.852,0.418c10.859,1.625,21.771,10.634,24.842,20.511
			c2.302,7.404,2.312,13.026,0.025,17.188c-1.724,3.141-4.719,5.328-8.903,6.465C179.957,336.51,176.266,337,172.421,337z
			 M161.573,296.203c-7.462,0-13.815,2.199-14.463,5.004c-2.315,10.005-1.618,23.956,0.568,25.085
			c6.666,2.598,15.508,5.708,24.741,5.708c0.001,0,0.002,0,0.002,0c3.383,0,6.614-0.536,9.601-1.347
			c2.805-0.765,4.67-2.11,5.701-3.987c1.546-2.818,1.401-7.269-0.433-13.165c-2.484-7.99-11.742-15.59-20.637-16.919
			C165.047,296.34,163.338,296.203,161.573,296.203z"/>
	</g>
	<g>
		<rect x="137" y="52" width="5" height="21"/>
		<circle cx="139.707" cy="43.908" r="11.01"/>
	</g>
	<path fill="#00B2ED" d="M172.606,234.749c0,5.045-4.088,9.251-9.132,9.251h-45.589c-5.044,0-9.132-4.206-9.132-9.251l2.06-23.788
		c0-5.044,4.088-8.961,9.132-8.961h41.47c5.044,0,9.133,3.917,9.133,8.961L172.606,234.749z"/>
	<g>
		<text transform="matrix(1 0 0 1 115.3481 229.8232)" fill="#FFFFFF" font-family="'VWHead-Bold'" font-size="19.2163">#</text>
		<g>
			<path id="XMLID_6_" fill="#FFFFFF" d="M133.26,213.774c-0.482,0.455-1.235,0.429-1.688-0.048
				c-0.451-0.479-0.43-1.236,0.047-1.686c0.483-0.457,1.237-0.432,1.688,0.046C133.76,212.565,133.742,213.32,133.26,213.774z"/>
			<path fill="#FFFFFF" d="M143.052,229.012h-3.427c-0.568,0-1.531-0.011-2.042-0.011c-0.013-0.582-0.013-1.481-0.013-2.043v-6.107
				c0-0.542-0.006-1.275-0.006-2.054c0.313,0.008,1.467,0,2.062,0h3.427c0.032,0,0.064,0,0.095-0.008v-1.938
				c-0.031,0-0.063-0.006-0.095-0.006h-3.427c-1.149,0-3.281,0.006-3.995,0.013c0,1.742-0.006,2.928-0.006,3.988v6.105
				c0,1.143,0,2.827,0.021,3.997c0.892,0.005,2.917,0.012,3.981,0.012h3.427c0.032,0,0.064,0,0.095-0.007v-1.94
				C143.116,229.012,143.084,229.012,143.052,229.012z"/>
			<g>
				<polygon fill="#FFFFFF" points="133.474,216.85 131.521,216.85 131.579,230.947 133.532,230.947 				"/>
			</g>
			<path fill="#FFFFFF" d="M162.609,229.046h-3.426c-0.567,0-1.532-0.015-2.041-0.015c-0.013-0.58-0.013-1.481-0.013-2.041v-6.107
				c0-0.542-0.008-1.275-0.008-2.056c0.312,0.006,1.466,0,2.062,0h3.426c0.032,0,0.064,0,0.097-0.006v-1.941
				c-0.033,0-0.065-0.005-0.097-0.005h-3.426c-1.149,0-3.281,0.005-3.996,0.013c0,1.742-0.006,2.93-0.006,3.988v6.106
				c0,1.143,0,2.827,0.019,3.994c0.895,0.008,2.917,0.015,3.983,0.015h3.426c0.032,0,0.064,0,0.097-0.007v-1.938
				C162.667,229.051,162.641,229.046,162.609,229.046z"/>
			<path fill="#FFFFFF" d="M145.936,218.834h3.527c0.576,0,1.687-0.013,2.044-0.021l0.043,6.811v1.333
				c0,0.562-0.018,1.487-0.025,2.068c-0.511-0.007-1.486,0.032-2.062,0.032h-3.527v1.876h3.527c1.065,0,3.071,0.013,3.963,0.005
				c0.021-1.167,0-2.833,0-3.974v-0.192c0-0.031,0.006-0.064,0.006-0.102l-0.006-1.781v-4.04c0-1.058,0.013-2.245,0.013-3.987
				c-0.006,0,0,0-0.006,0l-0.006-5.13c0-0.008,0-0.013,0-0.021l-1.963-0.005c0,0.005,0,0.018,0,0.025l0.019,5.13
				c-0.721,0-1.481,0.005-2.019,0.005h-3.527V218.834L145.936,218.834z"/>
		</g>
	</g>
	<path fill="#FFFFFF" d="M213,149.608C213,166.945,198.945,181,181.607,181H93.393C76.055,181,62,166.945,62,149.608v-44.216
		C62,88.055,76.055,74,93.393,74h88.215C198.945,74,213,88.055,213,105.392V149.608z"/>
	<path fill="#EAEEED" d="M180.833,70H139v112.906l40.737-1.303c8.219,0,29.353-7.493,34.051-23.457l0.899-59.874
		C212.081,86.452,198.942,70,180.833,70z"/>
	<path d="M216,148.002C216,166.778,200.778,182,182.001,182H93.999C75.222,182,60,166.778,60,148.002v-44.004
		C60,85.222,75.222,70,93.999,70h88.002C200.778,70,216,85.222,216,103.998V148.002z M211,104.786C211,88.888,198.112,76,182.214,76
		H93.786C77.888,76,65,88.888,65,104.786v44.429C65,165.112,77.888,178,93.786,178h88.428C198.112,178,211,165.112,211,149.214
		V104.786z"/>
	<g>
		<circle cx="106.97" cy="139.56" r="20.72"/>
		<circle fill="#FFFFFF" cx="108.217" cy="141.767" r="15.681"/>
	</g>
	<g>
		<circle cx="170.218" cy="137.257" r="20.72"/>
		<circle fill="#FFFFFF" cx="170.161" cy="139.463" r="15.681"/>
	</g>
	<g>
		<path fill-rule="evenodd" clip-rule="evenodd" fill="#CE953F" d="M167.254,175.811c1.48-1.176,4.667,1.411,6.005,1.965
			c0.99,0.413,1.618,1.087,2.246,1.99c0.604,0.913,2.118,1.09,3.066,0.617c1.548-0.773,2.955,0.9,5.251,1.298
			c0.274,0.048,3.432,2.24,3.708,2.321c2.495,0.09,1.26-0.64,3.604,0.869c0.654,0.42,1.425-0.418,1.961,0.326
			c-7.677,7.588-15.525,14.996-23.486,22.286c-0.843,0.167-1.317,0.783-1.806,1.418c-1.086,1.42-2.66,1.164-4.134,1.057
			c-0.607-0.045-0.753-0.582-0.471-1.148c1.532-0.572,2.988-1.256,3.944-2.741c-1.529-0.428-3.371,0.64-4.666-0.921
			c-0.077-0.32-0.003-0.607,0.183-0.873c0.703-0.656,1.606-0.449,2.498-0.59c-1.583-0.908-2.735-2.158-3.472-3.775
			c-0.229-0.401-0.785-0.313-1.041-0.676c-0.262-1.077-0.251-2.162-0.099-3.25c-0.009-0.397,0.235-0.539,0.581-0.576
			c1.567,0.861,3.321,0.664,4.925,0.813c-2.259-1.271-3.546-3.605-5.235-5.557c-0.328-0.239-0.306-0.707-0.628-0.95
			c0.012-0.302,0.023-0.602,0.033-0.903c0.014-0.556,0.079-1.089,0.677-1.355c1.688,0.323,3.315,1.301,5.215,0.497
			c-1.598-1.702-3.298-3.239-4.458-5.224c-0.319-0.547-0.653-0.407-1.029-0.094c-0.272,0.15-0.539,0.234-0.772-0.061
			c-0.198-2.383-0.41-4.766-0.262-7.162c-0.095-0.509,0.092-0.804,0.625-0.84c0.871,0.616-0.264-3.203,0.254-2.366
			C161.918,174.557,164.62,177.235,167.254,175.811z"/>
		<path fill-rule="evenodd" clip-rule="evenodd" fill="#C39758" d="M160.645,199.234c0.472,0.169,1.033-1.062,1.444,0.089
			c-0.231,1.75,0.104,3.409,0.805,5.01c-0.11,0.259-0.221,0.517-0.328,0.775c-0.481,1.399,0.41,2.466,0.878,3.634
			c0.641,1.207,3.375,1.16,4.22-0.166c0.498-0.779,0.84-1.531,1.947-1.092c-1.55,2.055-3.527,3.889-6.15,2.963
			c-2.448-0.861-2.722-3.456-2.727-5.853C160.729,202.807,160.678,201.019,160.645,199.234z"/>
		<path fill-rule="evenodd" clip-rule="evenodd" fill="#C79D59" d="M159.853,182.575c0.254-0.104,0.506-0.207,0.758-0.311
			c1.38,1.68,0.824,3.574,0.606,5.432c-0.635,0.103-0.729,0.684-0.992,1.115C159.798,186.751,159.845,184.662,159.853,182.575z"/>
		<path fill-rule="evenodd" clip-rule="evenodd" fill="#C69F5F" d="M161.227,195.651c-0.227,0.111-0.455,0.223-0.682,0.333
			c-0.344-2.076-0.453-4.167-0.357-6.27c0.282,0.25,0.563,0.499,0.845,0.75C161.767,192.167,162.402,193.875,161.227,195.651z"/>
		<path fill-rule="evenodd" clip-rule="evenodd" fill="#CB9C64" d="M160.317,174.746c-0.242,0.221-0.484,0.443-0.726,0.667
			c-0.084-1.305-0.165-2.607-0.25-3.913c1.39,0.041,0.663,1.279,1.063,1.881C160.875,173.868,160.988,174.333,160.317,174.746z"/>
		<path fill-rule="evenodd" clip-rule="evenodd" fill="#F7C384" d="M183.696,184.198c-1.464,0.647-2.936,2.222-4.51,1.322
			c-2.182-1.249-4.614-2.416-5.722-4.981c2.134,0.698,4.059,1.932,6.562,1.488C181.481,181.768,182.861,182.801,183.696,184.198z"/>
		<path fill-rule="evenodd" clip-rule="evenodd" fill="#F6C380" d="M160.317,174.746c0.031-0.454,0.06-0.912,0.087-1.365
			c0.148-0.219,0.469-0.613,0.583-0.335c0.988,2.425,2.947,3.694,5.236,4.635c0.24,0.096,0.401,0.392,0.6,0.597
			c0.259,0.205,0.778,0.454,0.408,0.786c-1.284,1.139-4.457,0.613-5.396-0.883C161.168,177.116,160.324,176.109,160.317,174.746z"/>
		<path fill-rule="evenodd" clip-rule="evenodd" fill="#F5C583" d="M163.483,190.368c4.565-0.085,8.806,0.339,12.703,2.47
			c0.41,0.224,1.135,0.221,1.026,0.869c-0.053,0.294-0.607,0.534-0.969,0.731c-1.858,1.013-3.902,1.381-5.964,1.661
			c-0.404,0.054-0.935,0.061-1.241-0.151C166.871,194.455,165.021,192.643,163.483,190.368z"/>
		<path fill-rule="evenodd" clip-rule="evenodd" fill="#F6C584" d="M177.827,186.683c-6.793,2.036-9.658,0.939-13.037-4.771
			c3.134-0.764,6.013-0.68,8.552,1.793C174.539,184.872,176.165,185.604,177.827,186.683z"/>
		<path fill-rule="evenodd" clip-rule="evenodd" fill="#F6C582" d="M167.396,203.275c-1.923-1.283-3.606-2.801-4.753-4.848
			c-0.277-0.495-0.117-1.039,0.372-0.883c2.834,0.896,5.838,0.009,8.667,0.93c1.724,0.56,1.72,1.352,0.679,2.619
			C170.843,202.944,168.814,203.892,167.396,203.275z"/>
		<path fill-rule="evenodd" clip-rule="evenodd" fill="#BC802F" d="M179.855,196.525c-0.011-1.759,1.293-2.33,2.016-3.254
			c2.075-2.642,4.299-5.165,6.437-7.758c0.849-1.032,1.879-0.916,2.62-0.155c0.811,0.831-0.377,1.175-0.805,1.582
			C186.807,190.081,183.449,193.18,179.855,196.525z"/>
		<path fill-rule="evenodd" clip-rule="evenodd" fill="#F7C47E" d="M161.217,187.696c-0.705-1.755,0.015-3.667-0.606-5.432
			c0.005-0.34-0.253-0.784,0.13-0.992c0.455-0.245,0.859,0.049,1.046,0.462c1.218,2.66,3.345,4.571,5.897,6.781
			C165.12,188.643,163.037,189.437,161.217,187.696z"/>
		<path fill-rule="evenodd" clip-rule="evenodd" fill="#F7C37E" d="M161.227,195.651c0.285-1.743-0.133-3.459-0.194-5.187
			c2.07,1.759,3.209,4.437,5.729,5.896C164.86,196.351,162.877,197.525,161.227,195.651z"/>
		<path fill-rule="evenodd" clip-rule="evenodd" fill="#F6C37D" d="M163.444,208.742c-1.03-1.033-2.757-1.896-0.878-3.634
			c1.865,0.717,3.755,0.412,5.712-0.03C167.167,207.621,165.349,208.957,163.444,208.742z"/>
		<path fill-rule="evenodd" clip-rule="evenodd" fill="#F7C37D" d="M174.465,190.548c2.429-0.843,4.479-1.556,6.719-2.334
			C178.978,192.996,178.978,192.996,174.465,190.548z"/>
		<path fill-rule="evenodd" clip-rule="evenodd" fill="#F7C577" d="M162.894,204.333c-0.287-0.026-0.821-0.036-0.824-0.08
			c-0.099-1.644-1.161-3.3,0.019-4.93c0.6,1.687,0.6,1.687,3.537,4.391C164.898,204.749,163.78,204.057,162.894,204.333z"/>
		<path fill-rule="evenodd" clip-rule="evenodd" fill="#F1B968" d="M175.247,196.826c-0.441,0.81-0.441,2.039-1.845,1.818
			c-0.337-0.054-0.892-0.257-0.721-0.617C173.172,196.998,174.292,197.079,175.247,196.826z"/>
	</g>
	<g>
		<path fill-rule="evenodd" clip-rule="evenodd" fill="#B82E32" d="M254.275,307.383c-0.158,0.146-0.318,0.291-0.478,0.438
			c-0.14-0.015-0.258-0.07-0.36-0.166c-0.167-0.233-0.194-0.492-0.133-0.766c0.44-0.798-0.321-0.718-0.685-0.929
			c-0.374-0.615-0.501-1.192,0.25-1.639c0.067-0.047,0.135-0.092,0.208-0.13C254.783,304.958,255.168,305.983,254.275,307.383z"/>
		<path fill-rule="evenodd" clip-rule="evenodd" fill="#AD1A29" d="M253.577,307.598c0.074,0.074,0.147,0.148,0.221,0.223
			c0.09,0.195,0.18,0.393,0.271,0.59c-1.747,1.713-2.722,1.737-4.344,0.105l0.1-0.057c0.058-0.079,0.157-0.164,0.215-0.129
			C251.449,309.179,252.583,308.735,253.577,307.598z"/>
		<path fill-rule="evenodd" clip-rule="evenodd" fill="#93CE65" d="M260.74,310.752c-0.437-0.478-1.06-0.142-1.569-0.331
			c-1.774-0.784-3.451-1.724-4.895-3.038c-0.24-0.016-0.403,0.102-0.518,0.3c-0.087,0.324,0.05,0.553,0.312,0.726
			c1.467,0.993,2.796,2.226,4.616,2.583c0.629,0.325,1.269,0.565,1.937,0.113C260.708,311.047,260.783,310.799,260.74,310.752z"/>
		<path fill-rule="evenodd" clip-rule="evenodd" fill="#DC2F3D" d="M249.372,305.626c0.042-0.117,0.083-0.229,0.125-0.345
			c0.709-0.764,1.619-1.128,2.61-1.339c0.365-0.094,0.51,0.252,0.762,0.379c-0.254,0.561-0.374,1.123-0.015,1.687
			c0.454,0.169,0.537,0.548,0.544,0.965c0.06,0.209,0.119,0.417,0.179,0.625c-0.733,1.779-1.599,2.158-3.751,0.863
			c-0.28-0.193-0.509-0.417-0.485-0.794c0.237-0.092,0.48-0.158,0.736-0.171c0.225,0.018,0.443,0.088,0.691,0.058
			c-0.271-0.091-0.535-0.028-0.792-0.058c-0.513,0.096-0.639-0.181-0.656-0.63C249.302,306.448,249.513,306.044,249.372,305.626z"/>
		<path fill-rule="evenodd" clip-rule="evenodd" fill="#BC1F2D" d="M250.028,307.487c-0.2,0.172-0.414,0.288-0.688,0.18
			c-0.091-0.273-0.187-0.546-0.28-0.819c0.104-0.408,0.208-0.814,0.312-1.222c0.715,0.452-0.449,1.565,0.658,1.882L250.028,307.487z
			"/>
		<path fill-rule="evenodd" clip-rule="evenodd" fill="#BE1726" d="M252.107,303.942c0.097,0.146,0.212,0.465,0.059,0.433
			c-1.087-0.224-1.788,0.592-2.668,0.906c0.514-0.956,1.323-1.439,2.401-1.487C251.96,303.853,252.03,303.903,252.107,303.942z"/>
		<path fill-rule="evenodd" clip-rule="evenodd" fill="#FEE0E1" d="M253.398,306.973c-0.366-0.217-0.5-0.564-0.544-0.965
			c0.308-0.416,0.706-0.544,1.028-0.099C254.281,306.456,253.818,306.731,253.398,306.973z"/>
	</g>
	<path fill-rule="evenodd" clip-rule="evenodd" fill="#E60029" d="M232.057,316.604c0.638-1.283,1.431-1.741,2.789-1.689
		c1.477,0.057,2.738-0.5,3.207-2.013c0.299-0.964,0.837-1.245,1.77-1.437c1.594-0.326,2.771-1.335,3.073-3.002
		c0.321-1.758,1.029-3.288,2.177-4.634c-0.042-0.058-0.084-0.116-0.127-0.174c-0.316-0.192-1.635-5.076-1.354-5.346
		c0.087-0.141,0.067-0.271-0.042-0.389c-0.992-0.106-0.742-1.041-0.973-1.588c-0.653-1.539-1.367-3.148-3.035-3.601
		c-1.613-0.439-3.094-0.688-3.96-2.39c-0.337-0.662-1.358-0.724-2.165-0.692c-0.892,0.033-1.805,0.042-2.629,0.425
		c-0.65,0.3-0.852,0.027-1.15-0.529c-1.347-2.521-3.108-3.547-5.943-1.547h-0.001c-1.404,0-1.268,1.321-1.706,2.103
		c-0.071,0.642-0.948,0.687-1.036,1.307c-0.867,1.911-1.512,3.863-0.958,5.996c1.151,1.564,0.841,3.291,0.539,5.016
		c-0.023,1.255-0.154,2.589,0.521,3.675c0.785,1.26,0.908,2.521,0.646,3.899c0.025,0.651,0.372,1.195,0.604,1.775
		c0.341,0.862,1.189,1.489,1.159,2.527c-0.025,0.885,0.353,1.61,0.919,2.258c0.543,0.401,1.1,0.781,1.625,1.204
		C228.201,319.53,230.808,319.117,232.057,316.604z M224.602,288.564c0.001,0.01,0.004,0.015,0.006,0.023
		c-0.015,0.009-0.028,0.017-0.042,0.025C224.579,288.596,224.59,288.58,224.602,288.564z"/>
	<g>
		<g>
			<path fill="#EAEEED" d="M149.813,215.226c-1.882-6.604,1.863-13.467,8.376-15.325c6.513-1.859,13.321,1.982,15.207,8.586
				c1.886,6.599-1.866,13.463-8.375,15.321C158.509,225.67,151.702,221.825,149.813,215.226z"/>
			<path d="M161.688,226.277c-6.354,0-12.027-4.318-13.797-10.501c-2.183-7.659,2.191-15.642,9.75-17.798
				c1.267-0.362,2.573-0.545,3.881-0.545c6.357,0,12.031,4.32,13.798,10.505c1.057,3.7,0.628,7.588-1.208,10.947
				c-1.841,3.369-4.875,5.8-8.542,6.847C164.303,226.094,162.997,226.277,161.688,226.277z M161.522,201.433
				c-0.937,0-1.873,0.131-2.784,0.392c-5.439,1.551-8.58,7.317-7.002,12.853c1.28,4.474,5.373,7.6,9.951,7.6
				c0.937,0,1.874-0.132,2.784-0.392c2.63-0.751,4.808-2.498,6.131-4.919c1.329-2.431,1.638-5.247,0.871-7.929
				C170.195,204.56,166.103,201.433,161.522,201.433z"/>
		</g>
	</g>
	<g>
		<path fill="#EAEEED" d="M170.278,215.443c4.945-9.454,15.201-7.241,22.825,0.333c2.185,2.171,5.861,4.185,4.481,12.064
			c-0.475,2.719-5.913,9.488-15.973,7.265C171.161,232.797,164.637,226.221,170.278,215.443z"/>
		<path d="M185.491,237.546c-1.396,0-2.847-0.164-4.312-0.487c-7.011-1.549-11.812-4.721-13.884-9.172
			c-1.808-3.884-1.4-8.382,1.211-13.371c2.472-4.725,6.475-7.327,11.271-7.327c4.779,0,10.15,2.613,14.735,7.169
			c0.255,0.253,0.532,0.504,0.819,0.764c2.237,2.028,5.618,5.093,4.222,13.064C199.002,231.347,194.167,237.546,185.491,237.546z
			 M179.777,211.188c-3.329,0-5.928,1.743-7.727,5.182c-2.003,3.827-2.383,7.133-1.128,9.828c1.504,3.233,5.454,5.702,11.121,6.954
			c1.182,0.262,2.343,0.394,3.449,0.394c6.7,0,9.908-4.818,10.123-6.049c1.016-5.8-0.919-7.554-2.968-9.412
			c-0.334-0.302-0.656-0.595-0.952-0.89C187.852,213.378,183.508,211.188,179.777,211.188z"/>
	</g>
	<ellipse fill="#EAEEED" cx="232.578" cy="333.972" rx="13.843" ry="1.939"/>
	
		<rect x="211.925" y="244.179" transform="matrix(0.3705 0.9288 -0.9288 0.3705 365.5728 -50.5421)" fill="#CFD7D9" width="16.297" height="0.501"/>
	
		<rect x="210.964" y="253.508" transform="matrix(0.3704 0.9289 -0.9289 0.3704 373.6562 -43.7656)" fill="#CFD7D9" width="16.298" height="0.501"/>
</g>
</svg>
