<?xml version="1.0" encoding="utf-8"?>
<!-- Generator: Adobe Illustrator 16.0.0, SVG Export Plug-In . SVG Version: 6.00 Build 0)  -->
<!DOCTYPE svg PUBLIC "-//W3C//DTD SVG 1.1//EN" "http://www.w3.org/Graphics/SVG/1.1/DTD/svg11.dtd">
<svg version="1.1" xmlns="http://www.w3.org/2000/svg" xmlns:xlink="http://www.w3.org/1999/xlink" x="0px" y="0px"
	 width="527.564px" height="402.69px" viewBox="0 0 527.564 402.69" enable-background="new 0 0 527.564 402.69"
	 xml:space="preserve">
<g id="Layer_1">
</g>
<g id="Layer_2">
	<g>
		<path fill-rule="evenodd" clip-rule="evenodd" fill="#AC623B" d="M421.655,38.131c-0.33,0.086-0.658,0.166-0.989,0.248
			c-2.701,0.009-4.967-1.278-7.355-2.309c-5.332-2.296-11.028-2.849-16.759-3.121c-2.468-0.234-4.911-0.239-7.387,0.115
			c-4.113,0.596-8.225-0.173-12.336-0.337c-0.608-0.022-1.189-0.145-1.72,0.255c-1.227,0.104-2.452,0.165-3.627-0.324
			c-0.447-0.702-1.129-0.262-1.662-0.265c-7.172-0.044-14.342-0.107-21.509,0.003c-3.432,0.053-6.649-0.565-9.725-2.024
			c-0.366-0.808,0.007-1.07,0.773-1.136c4.71-0.388,9.301,0.182,13.794,1.582c-4.605-1.516-9.332-1.983-14.16-1.598
			c-0.494,0.038-0.799,0.365-1.103,0.701c-0.467,0.341-1.065,0.051-1.551,0.318c-3.888-0.229-7.596,0.63-11.244,1.848
			c-0.163-0.167-0.232-0.365-0.201-0.603c1.681-2.581,4.522-3.077,7.138-4.028c-5.437,1.325-9.991,5.742-16.122,4.591
			c0.876,0.233,1.784-0.038,2.649,0.217c1.892,1.293-0.244,1.242-0.598,1.788c-1.682,0.385-3.364,0.772-5.046,1.163
			c-2.309-0.368-4.594-0.132-6.863,0.303c-1.27,0.017-2.54-0.028-3.813,0.027c-0.05,0-0.128,0.053-0.135,0.091
			c-0.01,0.069,0.027,0.146,0.046,0.22c-1.124,0.813-2.54-0.788-3.613,0.435c-1.947-0.212-3.901,0.006-5.847-0.137
			c-0.915-0.367-2.131,0.043-2.953-1.312c6.637-1.539,13.434,0.317,19.861-1.61c-2.224,0.768-4.552,0.861-6.881,0.938
			c-3.211,0.095-6.422-0.117-9.641,0.151c-3.112,0.259-6.028,0.961-8.606,2.79c-0.25,0.182-0.553,0.226-0.854,0.236
			c-0.704-1.131-0.7-1.142,0.912-2.71c0.889-1.218,2.904-0.5,3.587-2.088c1.514-0.953,3.105,0.004,4.539-0.163
			c-3.95-0.766-7.72,0.698-11.581,1.504c-2.292-0.047-2.429-0.201-1.689-1.895c0.991-0.457,1.97-0.377,2.876,0.034
			c-1.489-1.078-3.573,0.642-5.042-0.904c-0.437-0.288,0.855-0.481,0.049-0.814c-0.662-0.276-1.24-0.721-0.991-1.506
			c0.254-0.804,1.052-0.799,1.7-0.649c1.711,0.391,3.403,0.09,5.105-0.011c0.224,0.035,0.436,0.103,0.642,0.196
			c1.265,0.758,2.729,0.716,4.112,1.004c0.353,0.04,0.699,0.116,1.04,0.219c1.604,0.731,3.376,0.865,5.049,0.938
			c6.327,0.271,12.651,0.891,18.997,0.524c2.51-0.146,4.851-1.028,7.143-1.879c4.706-1.748,9.404-3.253,14.473-3.684
			c2.652-0.229,5.202,0.62,7.808,0.186c4.969,0.273,9.867,1.193,14.82,1.604c0.237,0.111,0.4,0.295,0.492,0.54
			c5.051,2.299,10.315,3.338,15.161,2.748c-1.525,0.079-3.758,0.002-5.99,0.008c-0.502,0-0.878-0.171-0.897-0.757
			c2.884-2.428,6.29-2.648,9.786-2.171c1.874,0.254,3.703,0.406,5.55-0.031c2.977-0.7,5.73,0.731,8.622,0.912
			c1.845,0.112,3.65,0.753,5.534,0.819c0.595,0.018,1.199,0.17,1.432,0.858c-1.506,1.143-3.336,0.764-4.951,0.726
			c-2.241-0.049-4.49-0.011-6.358-0.114c3.773-0.151,7.907,0.269,12.077-0.259c3.758-0.473,7.345,1.163,10.881,2.209
			c4.661,1.377,9.366,2.325,12.984,2.702c-5.57-0.272-11.92-2.53-18.4-4.213c-0.449-0.115-0.874-0.212-1.029-0.724
			c0.568-1.419,1.737-1.183,2.842-0.989c1.762,0.316,3.422,1.066,5.215,1.268c0.724,0.187,1.456,0.336,2.177,0.537
			c3.208,1.228,6.616,1.188,9.955,1.501c7.717,0.721,15.171-0.757,22.615-2.639c3.471-0.874,7.06-0.698,10.585,0.575
			c-0.55,1.183-1.459,0.949-2.222,1.106c-0.646,0.135-1.579-0.438-1.845,0.684c2.136,1.211,4.586,0.879,6.846,1.454
			c1.358,0.246,2.721,0.45,4.063,0.745c0.568,0.129,1.394,0.129,1.138,1.136c-4.175,0.352-8.218-0.56-12.284-1.266
			c-3.271-0.071-6.539,0.068-9.802,0.148c-0.426-0.283-0.75-0.776-0.066-0.908c0.886-0.165,1.842-0.518,2.551-0.252
			c-1.129-0.177-2.412,0.28-3.728,0.426c-4.563,0.481-8.962,1.749-13.406,2.756c-1.495,0.336-2.96,0.336-4.425,0.41
			C421.285,37.248,421.826,37.817,421.655,38.131z"/>
		<path fill-rule="evenodd" clip-rule="evenodd" fill="#6E3017" d="M357.524,27.647c-5.157,0.159-10.183-1.112-15.299-1.396
			c-2.476-0.495-4.942-0.875-7.502-0.77c-4.791,0.193-9.256,1.661-13.67,3.29c-6.47,2.381-13.163,2.906-19.902,2.153
			c-3.203-0.357-6.377-0.259-9.56-0.43c-1.051-0.05-2.042-0.363-3.055-0.588c-0.289-0.014-0.578-0.028-0.867-0.045
			c-1.194-0.951-2.854-0.462-4.078-1.32l0,0c-1.561-0.953-3.371-1.08-5.08-1.531c-0.725-0.193-1.301,0.102-1.762,0.677
			c-0.429,0.538-0.84,0.575-1.173-0.111c-0.207-0.591-0.173-1.177,0.036-1.762c0.981-1.771,2.396-0.303,3.592-0.477
			c2.572-0.194,4.751,1.108,6.999,1.988c2.673,1.041,5.366,1.624,8.224,1.679c6.004,0.107,11.996-0.262,17.992-0.463
			c2.942-0.104,5.828-0.541,8.559-1.65c8.094-3.285,16.34-3.888,24.852-1.853c2.821,0.671,5.771,0.8,8.66,1.18
			c2.999,0.494,5.984,0.618,8.931-0.316c2.884-0.011,5.773-0.156,8.641,0.319c3.583,0.656,7.198,0.156,10.798,0.264
			c0.976,0.03,2.041,0.383,2.973-0.284c2.813-0.995,5.482-0.073,8.078,0.795c3.114,1.043,6.17,1.527,9.436,0.735
			c2.124-0.51,4.181,0.154,6.023,1.257c2.271,1.355,4.725,1.911,7.313,1.74c6.281-0.411,12.56-0.85,18.829-1.395
			c3.439-0.294,6.476-2.312,9.956-2.524c4.774,0.162,9.547,0.454,14.313-0.138c3.767-0.704,7.601-0.566,11.402-0.778
			c7.627-0.429,15.242-1.254,22.899-0.998c0.667,0.025,1.36,0.03,1.951-0.394c0.336-0.344,0.665-0.389,0.986,0.021
			c4.021,0.075,7.757-1.176,11.485-2.467c0.764-0.267,1.552-0.458,2.329-0.684c0.605,0.161,1.214,0.448,1.362,1.053
			c0.955,3.864,3.646,6.593,6.106,9.478c0.373,0.438,0.35,0.787-0.208,1.042c-3.217,0.165-3.644-0.123-4.703-3.212
			c-1.081-3.148-3.72-4.478-6.879-3.432c-2.225,0.738-4.479,1.229-6.842,1.08c-6.983-0.436-13.85,0.558-20.725,1.611
			c-7.884,1.208-15.803,1.406-23.741,0.342c-3.821-0.51-7.608-0.482-11.287,1.025c-3.262,1.338-6.809,0.928-10.217,1.375
			c-6.17,0.803-12.368,1.157-18.593,0.654c-1.059-0.087-2.008-0.528-3.037-0.657c-0.615-0.101-1.314,0.132-1.798-0.465
			c-3.208-0.971-6.362-2.112-9.839-1.24c-1.87,0.468-3.779-0.209-5.476-0.857c-3.921-1.487-7.952-1.334-11.986-1.298
			c-2.695,0.024-5.377-0.103-8.066-0.205c-4.042-0.147-8.081,0.113-12.113,0.504C361.024,28.345,359.197,28.639,357.524,27.647z"/>
		<path fill-rule="evenodd" clip-rule="evenodd" fill="#3C7A0A" d="M497.02,24.524c-0.33-0.007-0.659-0.016-0.986-0.021
			c0.141-0.324,0.282-0.651,0.426-0.976c-3.062-2.595-5.062-5.782-5.501-9.841c0.974-0.347,2.082-0.005,3.163,1.03
			c1.522,1.461,2.592,3.208,3.194,5.234c0.572,0.286,0.68,0.75,0.424,1.507c0.92-2.181,6.458-6.324,10.357-7.874
			c0.52-0.065,1.47-0.88,1.196,0.564c-0.905,4.771-6.364,9.711-10.526,9.397C497.897,23.48,497.315,23.684,497.02,24.524z"/>
		<path fill-rule="evenodd" clip-rule="evenodd" fill="#3D7B09" d="M281.761,53.768c0.208,0.938-0.286,0.733-0.869,0.583
			c-2.879-0.718-5.018-2.354-6.358-5.015c-1.227-1.202-1.719,0.042-2.203,0.759c-1.958,2.894-4.316,5.369-7.212,7.33
			c-0.677,0.443-1.368,1.011-1.354-0.504c0.048-4.889,4.406-10.765,8.501-11.128c0.769-0.067,1.485-1.361,2.333-0.172
			C278.125,47.334,280.382,50.166,281.761,53.768z"/>
		<path fill-rule="evenodd" clip-rule="evenodd" fill="#3B7B08" d="M433.732,40.682c0.009,0.313,0.021,0.627,0.029,0.937
			c0.514,3.934-0.76,7.316-3.179,10.345c-0.474,0.692-0.736,0.869-1.046-0.174c-0.697-2.329-0.349-4.582,0.379-7.09
			c-2.627,1.389-5.133,1.145-7.678,0.527c-0.605-0.147-0.699-0.398-0.559-0.901c3.346-2.865,7.1-4.382,11.577-3.554
			c0.171-0.014,0.346-0.033,0.519-0.052L433.732,40.682z"/>
		<path fill-rule="evenodd" clip-rule="evenodd" fill="#552816" d="M518.489,32.595c-0.381-0.521-0.942-0.718-1.529-0.866
			c-0.285-0.076-0.815-0.226-0.813-0.241c0.673-2.826-3.261-3.194-3.076-5.796c0.086-1.196-1.21-1.04-2.111-1.544
			c2.272-1.157,0.246-1.863-0.127-2.773c0.918-0.646,1.84-0.57,2.695,0.076c3.142,2.382,5.786,5.206,7.272,8.915
			c1.095,2.738,0.615,3.3-2.298,3.063c-0.154-0.097-0.204-0.229-0.165-0.402C518.445,32.904,518.498,32.757,518.489,32.595z"/>
		<path fill-rule="evenodd" clip-rule="evenodd" fill="#3B7A08" d="M345.952,20.846c0.658-1.992,2.551-1.706,4.03-2.113
			c0.667-0.182,1.423-0.033,2.303-0.033c-1.192-2.76-2.936-5.187-1.486-8.141c3.488,2.498,5.57,5.845,6.047,10.135
			c0.039,0.36,0.09,0.746-0.218,1.043l-0.051,0.017C352.911,22.936,349.35,22.834,345.952,20.846z"/>
		<path fill-rule="evenodd" clip-rule="evenodd" fill="#8B4423" d="M275.892,27.6c0.858-1.424,2.054-1.627,3.492-0.969
			c1.399,0.64,3.406-0.049,4.208,1.912c-1.953,0.321-3.896,0.816-5.876,0.096c-0.382-0.139-0.938-0.225-1.111,0.351
			c-0.125,0.412,0.24,0.646,0.562,0.839c0.378,0.217,0.766,0.421,1.45,0.797c-0.664,0.095-1.003,0.142-1.338,0.193
			c0.366,0.294-1.277,0.571-0.012,0.858c0.746,0.17,1.622-0.261,2.239,0.497c-0.653,2.252,1.186,0.943,1.855,1.301
			c1.315-0.602,2.645-0.613,3.985-0.096c-0.108,1.537-1.256,1.158-2.086,1.003c-0.958-0.179-1.876-0.324-2.825-0.057
			c-2.091-0.011-4.181-0.015-6.271-0.024c-0.073-0.58,0.372-0.714,0.806-0.926c-1.056,0.139-2.155,0.564-2.854-0.656
			C272.905,30.667,274.242,29.019,275.892,27.6z"/>
		<path fill-rule="evenodd" clip-rule="evenodd" fill="#7F462B" d="M284.919,34.822c-0.591,0.764-1.186,1.524-1.776,2.285
			c-0.075,1.49-0.932,2.572-1.904,3.585c-0.323,0.34-0.9,0.223-1.2,0.627c0.496-0.234,1.009-0.51,1.031,0.423
			c-0.875,0.795-2.027,0.974-3.094,1.161c-2.487,0.439-4.823,1.556-7.414,1.56c-0.616,0.002-1.336,0.693-1.56-0.368
			c-0.208-0.99,0.372-1.584,1.369-1.615c1.357-0.04,2.66-0.316,3.98-0.598c4.183-0.906,6.013-4.366,8.225-7.423
			C283.377,34.457,284.293,33.705,284.919,34.822z"/>
		<path fill-rule="evenodd" clip-rule="evenodd" fill="#BD7750" d="M281.069,41.742c-0.875-0.869-1.583,0.633-2.852-0.099
			c2.698-0.605,3.72-2.657,4.925-4.536c4.596-3.659,10.053-3.226,15.394-3.135c4.115,0.071,8.158-0.386,12.199-1.009
			c-6.562,2.836-13.68,0.326-20.307,2.147c0.553,0.553,1.605-0.199,2.161,0.602c-0.292,0.422-0.74,0.498-1.191,0.469
			c-2.526-0.154-4.647,0.806-6.56,2.352C283.583,39.602,282.327,40.673,281.069,41.742z"/>
		<path fill-rule="evenodd" clip-rule="evenodd" fill="#69442D" d="M396.729,32.569c6.678,0.372,13.223,1.268,19.287,4.411
			c1.413,0.732,3.094,0.943,4.651,1.398c-1.932,0.424-3.689-0.091-5.402-0.952c-7.609-3.825-15.68-4.582-24.016-3.601
			c-3.272,0.381-6.552,0.671-9.834,0.059c0.061-0.708,0.609-0.826,1.126-0.798c4.397,0.245,8.73-0.655,13.109-0.709
			C396.021,32.374,396.395,32.364,396.729,32.569z"/>
		<path fill-rule="evenodd" clip-rule="evenodd" fill="#78A922" d="M508.096,13.584c-2.741,2.097-5.689,3.903-8.458,5.977
			c-1.083,0.812-0.896,2.256-2.169,2.739c-0.053-0.789-0.104-1.57-0.154-2.349c1.408-1.645,2.196-3.693,4.287-4.917
			C503.717,13.796,505.758,13.301,508.096,13.584z"/>
		<path fill-rule="evenodd" clip-rule="evenodd" fill="#78A923" d="M265.119,57.425c2.22-2.729,5.118-4.846,6.979-7.924
			c0.346-0.578,0.449-1.377,1.109-1.848c0.629,0.438,1.064,0.99,1.326,1.683c-0.589-0.027-0.675,0.386-0.817,0.839
			C272.39,54.406,269.709,57.048,265.119,57.425z"/>
		<path fill-rule="evenodd" clip-rule="evenodd" fill="#BE7F58" d="M421.655,38.131c-0.22-0.78-1.271-0.27-1.605-1.07
			c0.285-0.134,0.55-0.373,0.798-0.352c5.897,0.413,11.236-2.351,16.942-2.953c2.375-0.256,4.776-0.793,7.635-0.145
			c-1.759,0.699-3.25-0.123-4.5,0.711c-0.424,0.602-1.041,0.641-1.69,0.583c-2.56-0.018-4.996,0.689-7.434,1.337
			c-1.288,0.338-2.568,0.665-3.895,0.785C425.935,38.021,423.708,37.587,421.655,38.131z"/>
		<path fill-rule="evenodd" clip-rule="evenodd" fill="#B2734C" d="M275.892,27.6c-0.847,1.904-2.189,3.443-3.605,4.932
			c-0.125,0.262-0.197,0.566-0.439,0.754c-0.509,0.398-1.064,1.04-1.722,0.605c-0.668-0.443,0.087-1.037,0.146-1.573
			c0.023-0.226-0.021-0.435-0.136-0.631c0.764-3.046,2.972-4.926,5.373-6.649c0.362,0.128,0.627,0.319,0.522,0.764
			C275.984,26.4,275.938,26.998,275.892,27.6z"/>
		<path fill-rule="evenodd" clip-rule="evenodd" fill="#BB7D58" d="M485.614,34.895c-1.731-0.127-3.345,0.497-5.012,0.778
			c-0.799-0.419-1.817,0.212-2.549-0.533c-0.371-1.368,0.755-1.266,1.458-1.35c6.177-0.731,12.341-1.693,18.597-1.391
			c1.099,0.085,2.225-0.115,3.293,0.292c0.558,0.338,0.802,0.762,0.378,1.371c-3.61,0.339-7.242-0.158-10.845,0.263
			C489.228,35.119,487.325,34.109,485.614,34.895z"/>
		<path fill-rule="evenodd" clip-rule="evenodd" fill="#BB7A54" d="M396.729,32.569c-4.861,0.141-9.658,1.332-14.558,0.919
			c-0.239-0.017-0.503,0.262-0.756,0.396c-2.103-0.298-4.203-0.602-6.306-0.902c0.899-1.613,2.482-0.908,3.603-0.756
			c5.244,0.709,10.453,0.082,15.675-0.065C395.171,32.139,396.056,31.844,396.729,32.569z"/>
		<path fill-rule="evenodd" clip-rule="evenodd" fill="#7BA828" d="M433.255,40.771c-2.484,0.454-5.097,0.24-7.42,1.567
			c-1.332,0.757-2.768,1.329-4.156,1.986C424.943,39.305,428.32,38.27,433.255,40.771z"/>
		<path fill-rule="evenodd" clip-rule="evenodd" fill="#593621" d="M336.339,30.24c0.359-0.459,0.895-0.344,1.368-0.412
			c0.341-0.199,0.641-0.22,0.855,0.181c3.132,1.555,6.435,2.188,9.941,2.154c8.083-0.075,16.168-0.024,24.323-0.024
			c-0.334,0.689-0.975,0.223-1.345,0.52c-7.045,0.033-14.093-0.085-21.127,0.154C345.442,32.982,340.887,31.762,336.339,30.24z"/>
		<path fill-rule="evenodd" clip-rule="evenodd" fill="#7AA92B" d="M356.628,21.736c-0.221-3.826-2.24-6.81-4.53-9.665
			c-0.416-0.518-0.865-1.009-1.299-1.513c4.79,1.461,7.04,4.615,6.346,9.656c-0.111,0.805,0.465,1.001,0.824,1.423
			c0.064,0.382-0.2,0.42-0.473,0.45C357.208,21.97,356.917,21.854,356.628,21.736z"/>
		<path fill-rule="evenodd" clip-rule="evenodd" fill="#457F12" d="M443.653,40.697c0.919,0.797,0.098,0.883-0.44,1.075
			c-2.441,0.87-5.353-0.129-7.242-2.48c-0.495-0.886,0.121-1.177,0.777-1.439C439.108,38.656,441.843,38.555,443.653,40.697z"/>
		<path fill-rule="evenodd" clip-rule="evenodd" fill="#7AA928" d="M490.958,13.687c1.094,3.696,3.285,6.775,5.501,9.841
			C491.758,21.85,490.092,18.864,490.958,13.687z"/>
		<path fill-rule="evenodd" clip-rule="evenodd" fill="#7AA928" d="M281.761,53.768c-2.038-3.021-4.251-5.889-7.163-8.146
			C278.946,45.697,281.646,48.767,281.761,53.768z"/>
		<path fill-rule="evenodd" clip-rule="evenodd" fill="#79A62D" d="M345.952,20.846c3.485,0.981,7.04,1.119,10.625,0.907
			C353.207,24.679,349.107,24.328,345.952,20.846z"/>
		<path fill-rule="evenodd" clip-rule="evenodd" fill="#7BA828" d="M430.583,51.963c1.417-3.337,2.895-6.654,3.179-10.345
			C435.84,45.359,434.446,49.892,430.583,51.963z"/>
		<path fill-rule="evenodd" clip-rule="evenodd" fill="#AC613A" d="M501.808,33.898c-0.008-0.363-0.104-0.677-0.453-0.858
			c0.161-1.19,1.154-1.037,1.89-1.026c2.246,0.039,4.423-0.327,6.605-0.798c1.167-0.255,2.368-0.222,3.464,0.408
			c0.571,0.332,0.985,0.709,0.436,1.388c-2.734,0.27-5.453,0.785-8.222,0.696c-0.299-0.01,0.093-0.121-0.181-0.029
			c-0.121,0.042-0.037,0.274,0.135,0.356c-0.741,0.372-1.522,0.347-2.313,0.252C502.756,34.015,502.157,34.396,501.808,33.898z"/>
		<path fill-rule="evenodd" clip-rule="evenodd" fill="#5D3723" d="M451.3,34.473c4.031,0.451,8.012,1.393,12.105,1.22
			c1.81-1.153,3.808-0.395,5.715-0.573c1.344,0.101,2.722-0.205,4.031,0.33c0.276,0.152,0.36,0.375,0.249,0.674
			c-7.404,0.36-14.805,0.614-22.083-1.256c-0.142-0.08-0.191-0.168-0.147-0.256C451.21,34.52,451.253,34.473,451.3,34.473z"/>
		<path fill-rule="evenodd" clip-rule="evenodd" fill="#77503A" d="M284.839,38.533c1.955-2.668,4.855-2.74,7.75-2.82
			c1.968,0.344,4.055-0.547,5.946,0.578c-1.796,0.705-3.687,0.446-5.495,0.292C290.04,36.324,287.403,37.172,284.839,38.533z"/>
		<path fill-rule="evenodd" clip-rule="evenodd" fill="#32602D" d="M436.958,38.058c-0.669,0.141-0.928,0.604-0.986,1.234
			c-0.818,0.346-1.297,1.242-2.239,1.39l0.041,0.038c0.851-2.652,3.147-3.791,5.301-5.078c0.321-0.547,0.727-0.968,1.412-1.006
			c1.199,0.132,2.439-0.297,3.607,0.27c-1.837,0.638-3.706,1.196-5.363,2.267C438.334,37.859,437.917,38.5,436.958,38.058z"/>
		<path fill-rule="evenodd" clip-rule="evenodd" fill="#6D3B24" d="M270.135,31.687c0.752,0.557,0.147,1.187-0.047,2.058
			c0.871-0.483,1.535-0.844,2.2-1.213c0.885,1.029,2.108,0.179,3.177,0.677c-0.106,0.665-1,0.577-1.303,1.093
			c-0.434,0.09-0.863,0.189-1.299,0.269c-1.071,0.187-2.376,0.853-3.158,0.025C268.959,33.811,269.946,32.672,270.135,31.687z"/>
		<path fill-rule="evenodd" clip-rule="evenodd" fill="#7DAB32" d="M436.958,38.058c0.769,0.058,1.1-0.757,1.773-0.886
			c1.842,0.896,4.201,1.066,4.922,3.525C441.614,39.33,439.008,39.398,436.958,38.058z"/>
		<path fill-rule="evenodd" clip-rule="evenodd" fill="#735139" d="M440.043,34.841c-0.2,0.417-0.454,0.771-0.969,0.801
			c-1.858-0.827-3.565,0.218-5.336,0.451c-1.952,0.254-3.763,1.378-5.831,0.935c3.707-1.107,7.407-2.238,11.293-2.56
			C439.426,34.713,439.842,34.537,440.043,34.841z"/>
		<path fill-rule="evenodd" clip-rule="evenodd" fill="#633D28" d="M505.482,34.035c-0.426-0.071-0.854-0.145-1.28-0.217
			c-0.004-0.082-0.011-0.167-0.018-0.25c3.114-0.187,6.228-0.372,9.342-0.557c1.664-0.884,3.321-0.049,4.979,0.028
			c-0.003,0.132-0.004,0.262-0.004,0.389C514.161,33.629,509.823,33.835,505.482,34.035z"/>
		<path fill-rule="evenodd" clip-rule="evenodd" fill="#47210F" d="M459.781,26.673c0.165,0.136,0.631,0.44,0.389,0.435
			c-4.9-0.109-9.818,0.536-14.702-0.297C450.239,26.765,455.009,26.72,459.781,26.673z"/>
		<path fill-rule="evenodd" clip-rule="evenodd" fill="#432011" d="M385.832,26.202c0.236,0.377,0.059,0.522-0.31,0.522
			c-4.538,0.004-9.076,0.004-13.613-0.002c-0.108-0.003-0.217-0.099-0.324-0.154c0.159-0.114,0.317-0.23,0.476-0.346
			C376.649,26.216,381.241,26.211,385.832,26.202z"/>
		<path fill-rule="evenodd" clip-rule="evenodd" fill="#356339" d="M357.496,22.088c0.158-0.151,0.315-0.3,0.473-0.45
			c2.006,0.997,3.786,2.277,5.1,4.134c-0.428,0.48-0.894,0.811-1.55,0.396C360.785,24.208,358.746,23.537,357.496,22.088z"/>
		<path fill-rule="evenodd" clip-rule="evenodd" fill="#633D28" d="M501.808,33.898c0.452,0.132,0.907,0.259,1.361,0.389
			c-3.273,0.045-6.547,0.09-9.82,0.128c-0.948,0.014-1.917-0.161-2.809,0.319c-0.153-0.072-0.204-0.144-0.153-0.215
			c0.049-0.071,0.103-0.112,0.153-0.112c2.129-0.938,4.378-0.345,6.569-0.49C498.667,33.816,500.241,33.898,501.808,33.898z"/>
		<path fill-rule="evenodd" clip-rule="evenodd" fill="#8C583B" d="M317.961,34.053c-0.532-0.633,0.096-0.546,0.383-0.56
			c0.717-0.033,0.626-0.415,0.438-0.874c2.019-0.855,4.048-1.647,6.304-0.989c0.002,0.152,0.006,0.304,0.01,0.458
			C322.75,32.866,320.441,33.768,317.961,34.053z"/>
		<path fill-rule="evenodd" clip-rule="evenodd" fill="#642D11" d="M284.919,34.822c-0.718-0.524-1.582-0.11-2.344-0.363
			c-0.714-0.044-1.429-0.09-2.143-0.134c1.546-1.03,3.449,0.264,4.993-0.768c0.761-0.825,1.612-1.218,2.682-0.562
			c0.972,0.299,0.667,0.742-0.019,0.825C286.951,33.957,285.928,34.339,284.919,34.822z"/>
		<path fill-rule="evenodd" clip-rule="evenodd" fill="#512D14" d="M440.043,34.841c-0.281-0.123-0.564-0.25-0.844-0.373
			c0.576-0.047,1.151-0.094,1.727-0.146c3.458,0.052,6.916,0.102,10.374,0.15c0.005,0.133,0.01,0.262,0.017,0.395
			c-2.408,0.014-4.816,0.021-7.224,0.038C442.744,34.883,441.394,34.863,440.043,34.841z"/>
		<path fill-rule="evenodd" clip-rule="evenodd" fill="#452410" d="M361.519,26.167c0.517-0.132,1.032-0.264,1.55-0.396
			c0.14-0.015,0.257,0.027,0.35,0.132c-0.146,0.761-0.706,0.83-1.336,0.827c-2.842-0.006-5.685-0.002-8.602-0.002
			c0.255-0.575,0.715-0.339,1.008-0.509C356.833,26.202,359.175,26.184,361.519,26.167z"/>
		<path fill-rule="evenodd" clip-rule="evenodd" fill="#754D36" d="M305.682,35.301c2.406-0.368,4.812-0.904,7.233-0.085
			c-2.412,0.156-4.825,0.312-7.237,0.471c-0.142-0.088-0.187-0.174-0.139-0.257C305.587,35.345,305.633,35.301,305.682,35.301z"/>
		<path fill-rule="evenodd" clip-rule="evenodd" fill="#704B35" d="M473.399,36.123c-0.004-0.118-0.008-0.236-0.008-0.354
			c1.479-1.827,3.247-1.127,4.997-0.569c0.73,0.188,1.582-0.174,2.214,0.474C478.201,35.823,475.8,35.972,473.399,36.123z"/>
		<path fill-rule="evenodd" clip-rule="evenodd" fill="#623A21" d="M490.54,34.407c-0.003,0.112-0.003,0.22,0,0.327
			c-1.642,0.055-3.284,0.11-4.926,0.16c-0.065-0.031-0.146-0.052-0.194-0.105c-0.073-0.082-0.12-0.184-0.179-0.274
			C487.009,34.479,488.775,34.445,490.54,34.407z"/>
		<path fill-rule="evenodd" clip-rule="evenodd" fill="#6B341C" d="M276.031,25.801c-0.176-0.252-0.348-0.509-0.522-0.764
			c1.316-0.93,2.495-0.182,3.696,0.302C278.182,25.734,276.944,24.663,276.031,25.801z"/>
		<path fill-rule="evenodd" clip-rule="evenodd" fill="#5B321C" d="M305.682,35.301c0.002,0.132,0.001,0.256-0.004,0.386
			c-1.174,0.055-2.353,0.113-3.528,0.17c-0.042-0.187-0.989-0.335-0.157-0.489C303.187,35.15,304.448,35.305,305.682,35.301z"/>
		<path fill-rule="evenodd" clip-rule="evenodd" fill="#8D4424" d="M518.507,33.04c-1.66-0.009-3.318-0.02-4.979-0.028
			c0.269-1.533-1.218-1.256-1.692-1.215c-3.503,0.303-6.989,0.804-10.479,1.243c-1.042-0.006-2.082-0.011-3.124-0.02
			c-0.318-1.773,1.133-1.441,1.967-1.455c3.069-0.055,6.086-0.528,9.123-0.935c-1.473-0.112-2.95-0.061-4.424-0.116
			c-0.803-0.033-1.67,0.056-2.241-0.726c0.734-1.855,2.627-0.825,3.655-1.516c-2.716,0.462-5.571,1.123-8.501,1.345
			c-5.568,0.79-11.174,0.24-16.751,0.56c-2.453,0.141-4.901,0.547-7.338,0.918c-2.54,0.38-5.052,0.461-7.589,0.033
			c-1.258-0.212-2.532,0-3.8,0.033c-1.078,0.029-0.492,0.761-0.717,1.138c-2.051,0.937-4.229,0.295-6.338,0.513
			c-1.611,0.17-3.249-0.183-4.852,0.226c-0.603-1.29,0.089-1.729,1.229-1.78c1.073-0.049,2.15-0.011,3.649-0.011
			c-5.759-1.799-10.766,0.044-15.938,0.925c-6.55,1.118-13.153,2.49-19.928,0.991c-2.427-0.54-5.054-0.176-7.366-1.43
			c5.806,1.064,11.656,0.303,17.399-0.199c5.728-0.502,11.649-0.325,17.157-2.657c2.772-1.173,5.771-0.532,8.606-0.216
			c6.855,0.76,13.654,1.108,20.515-0.003c2.856-0.464,5.85-0.285,8.64-1.063c5.062-1.414,10.189-0.752,15.286-0.804
			c2.914-0.03,5.627-0.568,8.248-1.765c0.754-0.344,4.532,0.868,4.475,1.54c-0.111,1.345,1.108,1.661,1.536,2.543
			c0.192,0.395,0.722,0.691,0.768,1.07c0.222,1.846,0.698,2.33,2.664,2.417c0.375,0.02,0.75-0.002,1.125-0.002
			C518.779,32.732,518.827,32.878,518.507,33.04z"/>
		<path fill-rule="evenodd" clip-rule="evenodd" fill="#8D4525" d="M357.524,27.647c6.344-0.188,12.681-0.68,19.035-0.466
			c3.854,0.132,7.685,0.823,11.576,0.059c2.071-0.408,4.123,0.231,6.075,1.11c2.884,1.308,5.979,1.096,9.042,1.089
			c2.496-0.011,4.841,0.596,7.019,1.829c-1.899,0.188-3.562-0.767-5.337-1.157c-0.991-0.215-1.872-0.27-2.759,0.225
			c-1.799,0.793-3.594,0.607-5.389-0.024c-2.544-0.439-5.088-1.218-7.631-1.216c-2.141,0.004-3.934-1.395-6.066-1.004
			c-3.032,0.56-6.065,0.611-9.108,0.005c-2.878-0.571-5.347,0.782-7.881,1.789c-0.785,0.68-1.647,0.435-2.511,0.206
			c-2.059-0.545-4.034-1.319-6.022-2.064C357.557,27.897,357.541,27.773,357.524,27.647z"/>
		<path fill-rule="evenodd" clip-rule="evenodd" fill="#8B4423" d="M288.537,29.908c4.819,0.225,9.63,0.247,14.458,0.632
			c4.922,0.394,10.031,0.02,15.031-1.491c6.004-1.817,11.875-4.604,18.416-4.109c1.708,0.133,3.415,0.323,5.118,0.511
			c0.433,0.048,0.576,0.425,0.665,0.802c-4.978-0.311-9.971-0.418-14.809,0.966c-3.861,1.104-7.642,2.497-11.412,3.881
			c-1.376,0.505-2.757,0.541-4.151,0.58c-6.964,0.195-13.906-0.215-20.836-0.892C290.127,30.697,289.252,30.519,288.537,29.908z"/>
		<path fill-rule="evenodd" clip-rule="evenodd" fill="#C37C51" d="M396.786,30.312c1.796,0.007,3.592,0.017,5.389,0.024
			c7.186,2.415,14.432,4.58,22.059,5.152c-3.684,0.677-7.305-0.097-10.757-0.982c-3.378-0.863-6.775-1.76-10.142-2.722
			c-2.491-0.71-5.091-0.745-7.717-0.642c-4.317,0.171-8.645,0.046-12.975-0.272C387.328,29.91,392.091,30.865,396.786,30.312z"/>
		<path fill-rule="evenodd" clip-rule="evenodd" fill="#8A4121" d="M469.405,35.706c-2-0.001-3.999-0.007-5.999-0.014
			c-1.687-0.831-3.673-0.399-5.349-1.273c-0.165-0.698-1.515-0.377-1.251-1.254c0.232-0.771,1.122-0.532,1.764-0.558
			c0.813-0.029,1.63-0.013,2.445,0c0.622,0.016,1.558,0.272,1.421,0.741c-0.346,1.183,0.266,0.646,0.718,0.563
			c0.802-0.146,1.626-0.063,2.513-0.245c-0.151-0.589-1.086-1.136-0.196-1.798c2.372-0.297,4.752-0.441,7.129-0.165
			c0.72,0.082,1.69,0.31,1.689,1.18c-0.002,0.908-0.969,0.888-1.694,1.108c-1.332,0.404-2.719,0.354-4.155,0.674
			c2.178,0.102,4.253-1.4,6.608-0.138C473.146,35.92,471.165,35.231,469.405,35.706z"/>
		<path fill-rule="evenodd" clip-rule="evenodd" fill="#772F13" d="M465.27,32.19c0.114,1.331,1.579,0.454,2.131,1.372
			c-1.934,1.356-4.078,0.669-6.134,0.828c0.049-0.719,0.99-0.233,0.938-0.768c-0.053-0.529-0.609-0.563-1.05-0.564
			c-1.311-0.014-2.619-0.002-3.876-0.002c-0.307,0.888,2.066-0.094,0.779,1.362c-2.585-0.243-5.214-0.239-7.636-1.379
			c0.473-1.07,1.436-0.894,2.317-0.896c2.987-0.014,5.974-0.016,8.962-0.02C462.905,31.271,464.096,31.253,465.27,32.19z"/>
		<path fill-rule="evenodd" clip-rule="evenodd" fill="#C58056" d="M325.085,31.63c-2.104,0.311-4.155,0.968-6.304,0.989
			c-1.195,0-2.389,0-3.582,0c-0.058-0.258-0.116-0.517-0.174-0.772c6.525,0.63,11.611-3.696,17.722-4.556
			C329.951,28.349,327.28,29.561,325.085,31.63z"/>
		<path fill-rule="evenodd" clip-rule="evenodd" fill="#C47C53" d="M338.562,30.009c-0.285-0.061-0.569-0.123-0.855-0.181
			c-0.112-0.272-0.264-0.729,0.058-0.766c5.883-0.667,11.703-0.761,17.123,2.197c0.04,0.022,0.03,0.134,0.087,0.441
			c-3.369-0.867-6.685-1.573-10.043-2.021C342.793,29.401,340.666,29.528,338.562,30.009z"/>
		<path fill-rule="evenodd" clip-rule="evenodd" fill="#BC764F" d="M288.107,32.996c-0.895,0.182-1.79,0.374-2.682,0.562
			c-1.355-0.028-2.711-0.058-4.067-0.083c0.13-0.182,0.255-0.517,0.391-0.52c3.237-0.086,6.312-2.003,9.621-0.954
			c1.093,0.344,3.32-0.192,3.103,0.651c-0.472,1.832-1.766-0.55-2.91-0.116C290.502,32.94,289.19,32.204,288.107,32.996z"/>
		<path fill-rule="evenodd" clip-rule="evenodd" fill="#C77D54" d="M357.567,28.027c1.882,0.043,3.541,0.91,5.277,1.473
			c1.086,0.353,2.157,0.377,3.256,0.386c1.756,0.951,3.647,0.253,5.466,0.442c0.868,0.086,1.753,0.011,2.621,0.174
			c-5.723,0.572-11.395,0.629-16.708-2.091c-0.038-0.02-0.052-0.138-0.038-0.203C357.46,28.142,357.523,28.087,357.567,28.027z"/>
		<path fill-rule="evenodd" clip-rule="evenodd" fill="#BC764F" d="M279.503,32.174c-0.957,0.036-1.917,0.053-2.874,0.115
			c-0.469,0.033-1.088,0.58-1.335-0.117c-0.225-0.64,0.465-0.782,0.953-0.947c0.347-0.118,0.686-0.27,1.03-0.406
			c1.641,1.059,3.751-0.25,5.68,1.355C281.595,32.174,280.548,32.174,279.503,32.174z"/>
		<path fill-rule="evenodd" clip-rule="evenodd" fill="#C47C53" d="M352.053,28.901c-3.739-0.254-7.375-1.037-11.096-0.883
			C343.644,27.27,348.424,27.63,352.053,28.901z"/>
		<path fill-rule="evenodd" clip-rule="evenodd" fill="#8B4423" d="M283.592,28.543c1.45,0.16,3.027-0.074,4.078,1.32
			C286.35,29.302,284.572,30.151,283.592,28.543z"/>
		<path fill-rule="evenodd" clip-rule="evenodd" fill="#AC613A" d="M465.27,32.19c-1.19-0.022-2.379-0.044-3.569-0.066
			c-1.236-1.116-0.231-1.569,0.648-1.702c1.176-0.182,2.46-0.306,3.586-0.021c4.376,1.107,8.616-0.278,12.903-0.57
			c3.626-0.252,7.245-0.453,10.876-0.388c2.847,0.047,5.679-0.05,8.501-0.432c-1.734,1.662-4.002,1.673-6.135,1.736
			c-4.755,0.134-9.537-0.245-14.174,1.251c-0.297,0.005,0.149,0.398-0.023,0.151c-0.031-0.047,0.012-0.094,0.136-0.118
			c2.695-0.546,5.34-1.405,8.149-1.24c4.744,0.279,9.405-0.25,14.005-1.441c0.829-0.221,1.74-0.645,2.56,0.112
			c1.762,0.901,3.646,0.239,5.467,0.413c1.07,0.102,2.158,0.02,3.776,0.02c-1.499,1.758-3.143,1.593-4.446,1.713
			c-2.51,0.224-5.006,0.783-7.557,0.564c-0.676-0.056-1.585-0.287-1.742,0.853c-6.494-0.27-12.883,0.948-19.328,1.372
			c-0.621,0.041-0.814,0.23-0.515,0.803c-1.655,0.286-3.408-0.298-4.997,0.569c-1.329-0.02-2.658-0.039-3.989-0.063
			c1.525-0.848,3.417-0.042,5.075-1.23c-2.287-0.226-4.37,0.878-6.822,0.11c2.279-0.5,4.266-0.935,6.251-1.369
			C471.152,31.434,468.105,32.801,465.27,32.19z"/>
		<path fill-rule="evenodd" clip-rule="evenodd" fill="#C57E54" d="M502.732,29.462c-6.31,1.285-12.642,2.178-19.124,1.848
			c-2.036-0.104-4.003,1.263-6.685,0.584c3.253-0.82,6.012-1.564,8.933-1.573c4.162-0.009,8.371,0.377,12.357-1.31
			c3.336-0.539,6.738-0.648,10.038-1.601C506.707,28.959,504.628,28.959,502.732,29.462z"/>
	</g>
	<path d="M371.73,32.679l-0.498-0.041c0.272-3.322-0.363-5.554-1.887-6.633c-2.364-1.676-6.138-0.022-6.175-0.005l-0.204-0.457
		c0.165-0.073,4.072-1.786,6.668,0.054C371.313,26.785,372.018,29.168,371.73,32.679z"/>
	<path d="M365.668,32.546c-0.846-0.599-1.203-1.239-1.061-1.904c0.569-2.663,9.443-4.485,10.454-4.685l0.097,0.49
		c-2.655,0.523-9.638,2.315-10.062,4.299c-0.096,0.451,0.193,0.92,0.861,1.392L365.668,32.546z"/>
	<path d="M374.873,33.063c-0.078-0.226-1.886-5.554,0.053-7.089c1.037-0.819,2.807-0.419,5.411,1.225l-0.267,0.422
		c-2.336-1.474-4.007-1.907-4.833-1.255c-1.381,1.094-0.389,5.088,0.109,6.535L374.873,33.063z"/>
	<path d="M370.004,33.669l-0.321-0.383c0.396-0.331,9.724-8.131,12.99-7.719l-0.061,0.496
		C379.57,25.71,370.099,33.589,370.004,33.669z"/>
	<path d="M382.42,33.511l-0.498-0.045c0.004-0.043,0.362-4.351-1.622-6.307c-0.758-0.747-1.776-1.063-3.033-0.93l-0.052-0.498
		c1.411-0.145,2.567,0.215,3.437,1.072C382.804,28.927,382.437,33.324,382.42,33.511z"/>
	<path d="M378.961,32.251l-0.498-0.049c0.024-0.244,0.617-5.992,3.452-7.215c1.176-0.506,2.543-0.165,4.069,1.018l-0.306,0.395
		c-1.372-1.061-2.571-1.383-3.565-0.953C379.545,26.554,378.966,32.194,378.961,32.251z"/>
	<path d="M383.65,64.874c-2.65-18.139,2.808-30.643,2.863-30.767l0.457,0.203c-0.055,0.123-5.454,12.505-2.825,30.491L383.65,64.874
		z"/>
	<g>
		<path fill-rule="evenodd" clip-rule="evenodd" fill="#E60029" d="M389.25,56.127c5.117,7.276,10.235,14.547,15.35,21.828
			c6.425,9.138,12.836,18.286,19.277,27.416c10.075,14.277,20.163,28.541,30.281,42.783c0.594,0.839,0.53,1.334-0.093,2.062
			c-12.837,14.957-25.659,29.923-38.47,44.903c-7.58,8.866-15.144,17.753-22.686,26.651c-0.709,0.839-1.055,1.078-1.984,0.102
			c-12.48-13.052-25.019-26.044-37.545-39.055c-9.048-9.399-18.095-18.808-27.179-28.172c-0.69-0.707-0.512-1.162-0.088-1.828
			c7.983-12.605,15.961-25.22,23.923-37.843c11.589-18.369,23.164-36.756,34.759-55.128c0.785-1.245,1.433-2.582,2.473-3.651
			C387.941,56.613,388.589,56.14,389.25,56.127z"/>
		
			<rect x="308.085" y="138.922" transform="matrix(0.0296 0.9996 -0.9996 0.0296 518.2712 -255.0038)" fill="#FFFFFF" width="164.769" height="1"/>
		
			<rect x="389.68" y="87.339" transform="matrix(0.0508 0.9987 -0.9987 0.0508 521.5566 -245.9686)" fill="#FFFFFF" width="0.999" height="128.123"/>
	</g>
	<path d="M481.47,236.009c-0.708-40.215-10.224-70.98-26.795-86.628c-8.804-8.314-19.46-12.279-31.647-11.797
		c-6.887,0.27-12.95-2.126-18.021-7.134c-19.917-19.67-18.667-74.21-18.652-74.759l1,0.027c-0.015,0.544-1.255,54.655,18.355,74.021
		c4.866,4.805,10.673,7.109,17.277,6.845c12.487-0.483,23.368,3.566,32.374,12.069c16.769,15.834,26.396,46.852,27.109,87.338
		L481.47,236.009z"/>
	<g>
		<g>
			<ellipse fill="#CFD7D9" cx="135.719" cy="306.147" rx="45.453" ry="33.041"/>
			<path d="M135.72,342.188c-26.716,0-48.452-16.168-48.452-36.04c0-19.874,21.736-36.042,48.452-36.042
				s48.451,16.168,48.451,36.042C184.171,326.02,162.436,342.188,135.72,342.188z M135.72,276.103
				c-23.41,0-42.455,13.479-42.455,30.045c0,16.565,19.045,30.043,42.455,30.043c23.41,0,42.455-13.478,42.455-30.043
				C178.174,289.581,159.13,276.103,135.72,276.103z"/>
		</g>
		<g>
			<path fill="#FFFFFF" d="M43.466,270.01c6.106,8.239,4.472,19.8-3.657,25.824c-8.124,6.024-19.662,4.229-25.769-4.01
				c-6.105-8.236-4.469-19.799,3.655-25.824C25.822,259.977,37.358,261.771,43.466,270.01z"/>
			<path d="M29.011,302.396c-6.804,0-13.301-3.285-17.379-8.787c-7.081-9.551-5.162-23.017,4.277-30.017
				c3.667-2.719,8.02-4.154,12.588-4.154c6.803,0,13.299,3.285,17.377,8.787c7.082,9.553,5.161,23.021-4.281,30.02
				C37.93,300.96,33.579,302.396,29.011,302.396z M28.497,265.435c-3.273,0-6.391,1.028-9.017,2.975
				c-6.783,5.03-8.144,14.733-3.032,21.63c2.953,3.983,7.649,6.36,12.563,6.36c3.272,0,6.389-1.026,9.012-2.974
				c6.787-5.027,8.147-14.732,3.034-21.632C38.105,267.812,33.41,265.435,28.497,265.435z"/>
		</g>
		<g>
			<path fill="#FFFFFF" d="M37.365,274.713c-11.524-11.004-0.542-27.387,16.178-39.192c17.337-12.241,32.449-17.609,35.135-14.547
				c2.802,3.194-2.108,22.688-12.515,39.417C65.356,277.764,50.507,287.259,37.365,274.713z"/>
			<path d="M50.188,283.45c-5.319,0-10.329-2.21-14.894-6.567c-4.079-3.896-6.028-8.763-5.636-14.078
				c0.698-9.447,8.773-20.284,22.153-29.732c13.503-9.536,27.234-15.941,34.168-15.941c2.2,0,3.865,0.628,4.951,1.865
				c4.704,5.362-2.841,27.896-12.223,42.979C70.094,275.823,59.966,283.45,50.188,283.45z M85.98,223.127
				c-4.815,0-16.909,5.1-30.708,14.845c-11.737,8.286-19.075,17.734-19.632,25.272c-0.263,3.568,0.978,6.61,3.796,9.302
				c3.411,3.257,7.029,4.908,10.753,4.908c7.518,0,16.058-6.797,23.429-18.648c9.82-15.784,13.565-31.971,12.788-35.66
				C86.294,223.137,86.154,223.127,85.98,223.127z"/>
		</g>
		<g>
			<g>
				
					<ellipse transform="matrix(-0.926 -0.3776 0.3776 -0.926 402.5018 561.0094)" fill="#CFD7D9" cx="256.245" cy="241.048" rx="18.315" ry="18.569"/>
				<path d="M267.23,259.417c-5.769,3.532-12.919,4.13-19.128,1.599c-5.279-2.152-9.392-6.259-11.579-11.559
					c-2.18-5.284-2.186-11.131-0.014-16.458c1.767-4.328,4.792-7.898,8.752-10.323c5.769-3.533,12.92-4.131,19.129-1.598
					c5.279,2.152,9.389,6.258,11.578,11.559c2.18,5.287,2.185,11.132,0.013,16.46C274.216,253.424,271.19,256.992,267.23,259.417z
					 M248.393,227.789c-2.862,1.753-5.051,4.338-6.331,7.476c-1.574,3.858-1.572,8.087,0.004,11.908
					c1.571,3.806,4.518,6.749,8.301,8.292c4.515,1.841,9.521,1.416,13.731-1.162c2.861-1.754,5.051-4.337,6.33-7.471
					c1.574-3.858,1.572-8.088-0.004-11.908c-1.571-3.807-4.517-6.752-8.297-8.292C257.609,224.788,252.604,225.211,248.393,227.789z
					"/>
			</g>
			<g>
				<path fill="#CFD7D9" d="M245.482,241.029c-3.425,15.561-23.129,14.677-41.897,6.511c-19.461-8.467-31.893-18.599-30.669-22.482
					c1.276-4.052,20.487-9.973,40.187-9.76C233.562,215.519,249.386,223.283,245.482,241.029z"/>
				<path d="M240.545,253.098c-8.367,5.125-22.273,4.102-38.155-2.807c-12.34-5.369-34.979-17.74-32.333-26.135
					c0.462-1.466,1.679-2.787,3.721-4.037c6.501-3.982,23-7.995,39.357-7.82c14.853,0.161,26.133,4.152,31.767,11.239
					c3.898,4.902,5.078,11.004,3.508,18.135C247.294,246.74,244.648,250.585,240.545,253.098z M175.948,225.913
					c1.174,2.61,10.118,10.736,28.833,18.878c13.65,5.938,26.154,7.163,32.632,3.194c2.697-1.652,4.378-4.138,5.141-7.602
					c1.163-5.281,0.373-9.694-2.346-13.115c-4.489-5.646-14.126-8.832-27.138-8.973c-15.076-0.163-30.509,3.474-36.161,6.937
					C176.437,225.52,176.135,225.751,175.948,225.913z"/>
			</g>
		</g>
		<g>
			<path fill="#FFFFFF" d="M183.557,201.373C178.31,186.381,163.509,184,153.576,184h-12.485h-11.993h-11.993
				c-9.934,0-24.734,2.381-29.98,17.373c0,0-21.362,60.525-18.739,93.163C69.886,306.679,80.189,312,90.123,312h38.976h11.993
				h39.468c9.935,0,20.237-5.321,21.736-17.464C204.918,261.898,183.557,201.373,183.557,201.373z"/>
			<path fill="#EAEEED" d="M182.058,201.373C176.811,186.381,162.011,184,152.076,184h-12.484h-5.266v128h5.266h39.467
				c9.934,0,20.237-5.321,21.736-17.464C203.419,261.898,182.058,201.373,182.058,201.373z"/>
			<path d="M180.559,316H90.123c-11.044,0-22.969-6.601-24.711-20.715c-2.651-32.953,18.086-92.632,18.843-95.139
				C88.723,187.369,100.376,180,117.105,180h36.47c16.73,0,28.382,7.229,32.811,19.879c0.797,2.633,21.535,62.324,18.896,95.15
				C203.527,309.27,191.603,316,180.559,316z M117.105,187c-9.894,0-22.636,2.466-27.151,15.364
				c-0.141,0.479-21.127,60.737-18.58,92.433C72.656,305.148,81.717,310,90.123,310h90.436c8.406,0,17.467-4.972,18.761-15.452
				c2.536-31.58-18.451-91.563-18.633-92.169C176.212,189.607,163.47,187,153.576,187H117.105z"/>
		</g>
		<g>
			<path fill="#FFFFFF" d="M129.152,344.41c2.061,8.908,3.283,29.935-2.479,32.18c-9.709,3.787-25.87,9.342-41.39,5.12
				c-8.398-2.282-12.694-8.747-8.136-23.406c3.101-9.975,14.368-19.756,26.159-21.52C113.567,335.246,127.58,337.614,129.152,344.41
				z"/>
			<path d="M97.116,386.221c-4.424,0-8.67-0.543-12.619-1.617c-4.813-1.309-8.258-3.803-10.242-7.416
				c-2.629-4.789-2.619-11.257,0.03-19.774c3.533-11.361,16.085-21.726,28.578-23.596c2.139-0.318,4.404-0.482,6.731-0.482
				c9.26,0,20.705,2.725,22.48,10.399c1.12,4.843,5.084,31.988-4.313,35.65C119.598,382.567,108.736,386.221,97.116,386.221z
				 M109.594,339.332c-2.031,0-3.997,0.139-5.843,0.418c-10.233,1.529-20.882,10.253-23.741,19.443
				c-2.109,6.785-2.277,11.869-0.499,15.109c1.186,2.161,3.332,3.638,6.558,4.514c3.437,0.936,7.153,1.408,11.046,1.408
				c10.621,0,20.793-3.435,28.469-6.428c2.508-1.293,3.31-17.2,0.647-28.709C125.485,341.86,118.177,339.332,109.594,339.332z"/>
		</g>
		<g>
			<path fill="#EAEEED" d="M139.971,344.41c-2.061,8.908-3.283,29.935,2.479,32.18c9.709,3.787,25.87,9.342,41.391,5.12
				c8.398-2.282,12.693-8.747,8.135-23.406c-3.101-9.975-14.368-19.756-26.159-21.52
				C155.557,335.246,141.543,337.614,139.971,344.41z"/>
			<path d="M172.01,386c-0.001,0-0.002,0-0.002,0c-11.622,0-22.482-3.545-30.647-6.727c-9.396-3.66-5.431-30.75-4.311-35.593
				c1.776-7.677,13.22-10.373,22.48-10.373c2.328,0,4.592,0.178,6.732,0.498c12.492,1.868,25.045,12.24,28.577,23.601
				c2.648,8.518,2.659,14.989,0.03,19.778c-1.983,3.612-5.429,5.999-10.242,7.307C180.678,385.565,176.434,386,172.01,386z
				 M159.53,339.332c-8.583,0-15.892,2.528-16.638,5.756c-2.663,11.509-1.861,27.303,0.654,28.601
				c7.668,2.99,17.84,6.312,28.462,6.312c0,0,0.001,0,0.002,0c3.891,0,7.607-0.36,11.043-1.295c3.228-0.877,5.373-2.298,6.559-4.459
				c1.778-3.24,1.611-8.297-0.499-15.08c-2.858-9.191-13.508-17.899-23.74-19.43C163.527,339.458,161.561,339.332,159.53,339.332z"
				/>
		</g>
		<g>
			<rect x="127.134" y="57.086" transform="matrix(0.997 -0.078 0.078 0.997 -4.9899 10.3554)" width="6" height="24"/>
			<circle cx="128.634" cy="49.247" r="12.665"/>
		</g>
		<path fill="#00B2ED" d="M171.072,268.998c0,5.804-4.704,11.002-10.505,11.002h-52.444c-5.801,0-10.505-5.198-10.505-11.002
			l2.369-28.027c0-5.803,4.704-10.971,10.505-10.971h47.705c5.802,0,10.505,5.168,10.505,10.971L171.072,268.998z"/>
		<g>
			<text transform="matrix(1 0 0 1 106.3574 262.9736)" fill="#FFFFFF" font-family="'VWHead-Bold'" font-size="22.1054">#</text>
			<g>
				<path id="XMLID_13_" fill="#FFFFFF" d="M126.96,244.509c-0.555,0.524-1.42,0.494-1.941-0.056
					c-0.518-0.55-0.495-1.421,0.054-1.939c0.557-0.525,1.423-0.495,1.941,0.055C127.536,243.118,127.515,243.986,126.96,244.509z"/>
				<path fill="#FFFFFF" d="M138.225,262.038h-3.942c-0.653,0-1.761-0.013-2.35-0.013c-0.014-0.67-0.014-1.705-0.014-2.352v-7.025
					c0-0.623-0.008-1.466-0.008-2.362c0.36,0.009,1.688,0,2.372,0h3.942c0.037,0,0.073,0,0.11-0.009v-2.23
					c-0.037,0-0.073-0.007-0.11-0.007h-3.942c-1.321,0-3.774,0.007-4.595,0.016c0,2.003-0.008,3.367-0.008,4.587v7.024
					c0,1.314,0,3.252,0.023,4.597c1.026,0.006,3.355,0.014,4.579,0.014h3.942c0.037,0,0.073,0,0.11-0.008v-2.231
					C138.298,262.038,138.262,262.038,138.225,262.038z"/>
				<g>
					<polygon fill="#FFFFFF" points="127.207,248.047 124.96,248.047 125.027,264.264 127.274,264.264 					"/>
				</g>
				<path fill="#FFFFFF" d="M160.723,262.076h-3.94c-0.653,0-1.763-0.016-2.348-0.016c-0.015-0.668-0.015-1.703-0.015-2.348v-7.025
					c0-0.624-0.009-1.468-0.009-2.364c0.359,0.007,1.687,0,2.372,0h3.94c0.037,0,0.073,0,0.112-0.009v-2.231
					c-0.039,0-0.075-0.007-0.112-0.007h-3.94c-1.322,0-3.774,0.007-4.597,0.016c0,2.003-0.008,3.369-0.008,4.588v7.023
					c0,1.315,0,3.253,0.022,4.595c1.029,0.009,3.355,0.018,4.582,0.018h3.94c0.037,0,0.073,0,0.112-0.009v-2.23
					C160.789,262.082,160.759,262.076,160.723,262.076z"/>
				<path fill="#FFFFFF" d="M141.543,250.33h4.058c0.662,0,1.94-0.016,2.351-0.023l0.05,7.835v1.532c0,0.646-0.021,1.712-0.03,2.38
					c-0.586-0.009-1.709,0.036-2.371,0.036h-4.058v2.159h4.058c1.226,0,3.532,0.015,4.559,0.006c0.024-1.342,0-3.26,0-4.571v-0.222
					c0-0.036,0.008-0.073,0.008-0.116l-0.008-2.049v-4.648c0-1.216,0.015-2.582,0.015-4.586c-0.007,0,0,0-0.007,0l-0.008-5.901
					c0-0.008,0-0.015,0-0.023l-2.259-0.006c0,0.006,0,0.021,0,0.029l0.022,5.901c-0.83,0-1.704,0.006-2.322,0.006h-4.058V250.33
					L141.543,250.33z"/>
			</g>
		</g>
		<path fill="#FFFFFF" d="M222.82,164.034c1.556,19.884-13.302,37.264-33.186,38.818L88.169,210.79
			c-19.884,1.555-37.263-13.303-38.818-33.187l-3.96-50.621C43.835,107.1,58.693,89.72,78.577,88.164l101.465-7.937
			c19.883-1.556,37.263,13.303,38.818,33.187L222.82,164.034z"/>
		<path fill="#EAEEED" d="M178.208,76.358l-47.216,3.693l10.06,128.607l46.222-5.119c9.426-0.737,32.801-11.211,36.758-29.94
			l-4.401-68.3C215.581,91.977,198.976,74.734,178.208,76.358z"/>
		<path d="M190.255,204.811l-101.357,7.929c-21.5,1.682-39.937-14.474-41.619-35.974l-3.954-50.545
			c-1.682-21.501,14.013-40.407,35.512-42.089l101.357-7.929c21.5-1.682,40.9,14.479,42.582,35.98l3.954,50.545
			C228.413,184.229,211.754,203.129,190.255,204.811z M216.789,112.575c-1.426-18.233-17.363-31.857-35.596-30.432L79.732,90.08
			c-18.233,1.426-31.857,17.363-30.431,35.597l3.959,50.615c1.426,18.233,17.363,31.858,35.596,30.432l101.461-7.937
			c18.233-1.426,31.857-17.363,30.431-35.597L216.789,112.575z"/>
		<g>
			<path d="M133.109,155.502c1.027,13.124-8.78,24.596-21.903,25.623c-13.124,1.026-24.595-8.781-25.622-21.906
				c-1.026-13.122,8.781-24.595,21.904-25.621S132.083,142.38,133.109,155.502z"/>
			<circle fill="#FFFFFF" cx="110.735" cy="156.645" r="16.662"/>
		</g>
		<g>
			<circle cx="184.985" cy="143.923" r="23.835"/>
			<path fill="#FFFFFF" d="M204.445,142.329c0.734,9.385-6.28,17.588-15.665,18.321c-9.384,0.735-17.587-6.277-18.321-15.662
				c-0.734-9.388,6.279-17.588,15.663-18.321C195.507,125.934,203.711,132.942,204.445,142.329z"/>
		</g>
	</g>
	<path d="M256.567,234.567l-0.719-0.695c0.734-0.759,73.759-77.356,103.947-201.162l0.972,0.236
		c-15.81,64.837-43.294,116.197-63.566,147.866C275.231,215.133,256.751,234.377,256.567,234.567z"/>
</g>
</svg>
