<?xml version="1.0" encoding="utf-8"?>
<!-- Generator: Adobe Illustrator 16.0.0, SVG Export Plug-In . SVG Version: 6.00 Build 0)  -->
<!DOCTYPE svg PUBLIC "-//W3C//DTD SVG 1.1//EN" "http://www.w3.org/Graphics/SVG/1.1/DTD/svg11.dtd">
<svg version="1.1" xmlns="http://www.w3.org/2000/svg" xmlns:xlink="http://www.w3.org/1999/xlink" x="0px" y="0px"
	 width="542.878px" height="716.085px" viewBox="0 0 542.878 716.085" enable-background="new 0 0 542.878 716.085"
	 xml:space="preserve">
<g id="Layer_1">
</g>
<g id="Layer_2">
	<g>
		<g>
			<path fill="#CFD7D9" d="M350.765,531.699c0,35.236-39.29,63.799-87.759,63.799c-48.468,0-87.761-28.563-87.761-63.799
				c0-35.231,39.293-63.797,87.761-63.797C311.475,467.902,350.765,496.468,350.765,531.699z"/>
			<path d="M263.005,601.286c-51.583,0-93.55-31.215-93.55-69.587c0-38.37,41.967-69.585,93.55-69.585
				c51.583,0,93.548,31.215,93.548,69.585C356.553,570.071,314.588,601.286,263.005,601.286z M263.005,473.691
				c-45.199,0-81.973,26.023-81.973,58.008c0,31.985,36.774,58.01,81.973,58.01c45.199,0,81.971-26.024,81.971-58.01
				C344.976,499.715,308.205,473.691,263.005,473.691z"/>
		</g>
		<g>
			<path fill="#FFFFFF" d="M84.883,461.927c11.789,15.907,8.633,38.229-7.063,49.863c-15.684,11.631-37.961,8.162-49.754-7.744
				c-11.788-15.903-8.628-38.228,7.058-49.86C50.816,442.557,73.091,446.02,84.883,461.927z"/>
			<path d="M56.973,524.459c-13.137,0-25.681-6.343-33.555-16.966c-13.672-18.439-9.967-44.438,8.259-57.955
				c7.079-5.249,15.483-8.021,24.305-8.021c13.134,0,25.678,6.343,33.551,16.965c13.673,18.445,9.965,44.45-8.265,57.961
				C74.194,521.686,65.794,524.459,56.973,524.459z M55.982,453.095c-6.32,0-12.341,1.984-17.41,5.743
				c-13.097,9.712-15.725,28.445-5.854,41.762c5.701,7.691,14.769,12.282,24.255,12.282c6.318,0,12.336-1.984,17.4-5.742
				c13.104-9.709,15.731-28.446,5.859-41.767C74.532,457.685,65.466,453.095,55.982,453.095z"/>
		</g>
		<g>
			<path fill="#FFFFFF" d="M73.104,471.009c-22.252-21.247-1.047-52.879,31.235-75.672c33.474-23.635,62.653-34,67.839-28.087
				c5.411,6.167-4.071,43.805-24.164,76.104C127.148,476.898,98.478,495.232,73.104,471.009z"/>
			<path d="M97.862,487.878c-10.269,0-19.942-4.269-28.756-12.68c-7.876-7.524-11.638-16.92-10.88-27.184
				c1.348-18.238,16.938-39.164,42.772-57.403c26.072-18.413,52.583-30.78,65.971-30.78c4.247,0,7.463,1.212,9.56,3.601
				c9.082,10.353-5.485,53.861-23.6,82.98C136.296,473.151,116.741,487.878,97.862,487.878z M166.97,371.407
				c-9.296,0-32.648,9.845-59.292,28.662c-22.661,15.998-36.83,34.24-37.905,48.797c-0.509,6.888,1.888,12.762,7.329,17.956
				c6.586,6.29,13.571,9.478,20.761,9.478c14.516,0,31.005-13.123,45.236-36.004c18.96-30.477,26.192-61.729,24.689-68.852
				C167.575,371.425,167.305,371.407,166.97,371.407z"/>
		</g>
		<g>
			<g>
				<path fill="#CFD7D9" d="M458.574,448.967c15.953-11.729,38.263-8.484,49.836,7.254c11.572,15.729,8.016,37.994-7.935,49.725
					c-15.948,11.724-38.26,8.479-49.832-7.251C439.071,482.959,442.622,460.697,458.574,448.967z"/>
				<path d="M479.089,518.776c-13.06,0-25.438-6.223-33.108-16.652c-6.522-8.868-9.154-19.775-7.41-30.709
					c1.738-10.901,7.625-20.531,16.574-27.111c7.272-5.348,15.854-8.175,24.819-8.175c13.061,0,25.439,6.229,33.11,16.659
					c6.521,8.868,9.151,19.773,7.405,30.709c-1.74,10.901-7.627,20.531-16.575,27.111
					C496.635,515.954,488.054,518.776,479.089,518.776z M479.964,447.706c-6.479,0-12.691,2.05-17.961,5.926
					c-6.481,4.765-10.742,11.729-12,19.61c-1.251,7.849,0.632,15.67,5.304,22.023c5.579,7.584,14.249,11.935,23.782,11.935
					c6.48,0,12.69-2.046,17.958-5.919c6.481-4.766,10.743-11.73,12-19.611c1.252-7.852-0.628-15.67-5.299-22.019
					C498.166,452.06,489.498,447.706,479.964,447.706z"/>
			</g>
			<g>
				<path fill="#CFD7D9" d="M461.822,466.57c-21.332,22.169-52.881,0.843-75.55-31.526c-23.508-33.564-33.76-62.782-27.828-67.944
					c6.188-5.387,43.789,4.239,76.011,24.452C467.919,412.548,486.144,441.291,461.822,466.57z"/>
				<path d="M441.522,481.467c-18.943,0-40.809-15.709-59.992-43.101c-14.906-21.281-39.707-64.48-26.884-75.633
					c2.239-1.95,5.574-2.898,10.197-2.898c14.719,0,45.932,10.029,72.69,26.813c24.291,15.24,38.84,33.188,40.972,50.538
					c1.474,12.001-2.736,23.24-12.51,33.398C459.045,477.804,450.812,481.467,441.522,481.467z M362.574,371.565
					c-0.699,5.484,5.833,27.882,28.439,60.157c16.487,23.543,35.841,38.167,50.509,38.167c6.105,0,11.381-2.397,16.13-7.332
					c7.24-7.523,10.39-15.589,9.361-23.964c-1.697-13.821-14.353-28.785-35.634-42.138c-24.66-15.469-53.738-25.043-66.536-25.043
					C363.776,371.413,363.046,371.487,362.574,371.565z"/>
			</g>
		</g>
		<g>
			<path fill="#FFFFFF" d="M355.368,329.016c-10.13-28.944-38.706-33.931-57.887-33.931h-24.104h-23.155h-23.155
				c-19.181,0-47.757,4.986-57.888,33.931c0,0-41.244,117.601-36.179,180.616c2.895,23.443,22.788,34.453,41.969,34.453h75.253
				h23.155h76.203c19.181,0,39.074-11.01,41.968-34.453C396.613,446.616,355.368,329.016,355.368,329.016z"/>
			<path fill="#EAEEED" d="M352.474,329.016c-10.13-28.944-38.707-33.931-57.887-33.931h-24.104h-10.604v249h10.604h76.203
				c19.181,0,39.074-11.01,41.969-34.453C393.718,446.616,352.474,329.016,352.474,329.016z"/>
			<path d="M349.579,549.085H174.968c-21.325,0-44.349-11.926-47.714-39.176c-5.119-63.625,34.922-177.969,36.383-182.809
				c8.628-24.67,31.127-38.016,63.429-38.016h70.415c32.302,0,54.801,13.48,63.352,37.91c1.539,5.083,41.58,119.275,36.486,182.654
				C393.928,537.146,370.904,549.085,349.579,549.085z M227.066,301.085c-19.104,0-43.706,5.045-52.423,29.949
				c-0.273,0.924-40.792,116.885-35.873,178.083c2.473,19.989,19.968,28.968,36.198,28.968h174.611
				c16.23,0,33.725-9.071,36.223-29.306c4.896-60.975-35.625-176.813-35.976-177.978c-8.639-24.664-33.241-29.717-52.346-29.717
				H227.066z"/>
		</g>
		<g>
			<path fill="#FFFFFF" d="M250.326,605.58c3.978,17.197,6.338,57.797-4.787,62.133c-18.747,7.31-49.95,18.033-79.916,9.885
				c-16.216-4.407-24.509-16.892-15.709-45.194c5.988-19.257,27.742-38.144,50.508-41.55
				C220.232,587.886,247.29,592.456,250.326,605.58z"/>
			<path d="M188.47,686.306c-8.543,0-16.742-1.049-24.367-3.123c-9.292-2.524-15.944-7.34-19.773-14.316
				c-5.077-9.248-5.057-21.736,0.057-38.182c6.82-21.937,31.058-41.947,55.178-45.557c4.129-0.617,8.502-0.934,12.996-0.934
				c17.879,0,39.976,5.26,43.404,20.079c2.163,9.351,9.816,61.764-8.326,68.833C231.876,679.251,210.905,686.306,188.47,686.306z
				 M212.562,595.772c-3.921,0-7.717,0.271-11.282,0.808c-19.757,2.954-40.319,19.797-45.838,37.542
				c-4.073,13.101-4.396,22.915-0.962,29.173c2.29,4.172,6.432,7.023,12.662,8.715c6.636,1.806,13.812,2.719,21.33,2.719
				c20.506,0,40.146-6.631,54.966-12.408c4.843-2.499,6.391-33.212,1.25-55.435C243.245,600.656,229.133,595.772,212.562,595.772z"
				/>
		</g>
		<g>
			<path fill="#EAEEED" d="M271.213,605.58c-3.978,17.197-6.338,57.797,4.787,62.133c18.747,7.31,49.95,18.033,79.916,9.885
				c16.216-4.407,24.509-16.892,15.709-45.194c-5.988-19.257-27.741-38.144-50.508-41.55
				C301.307,587.886,274.249,592.456,271.213,605.58z"/>
			<path d="M333.073,686.085c-0.001,0-0.002,0-0.003,0c-22.439,0-43.409-6.945-59.172-13.09
				c-18.141-7.068-10.487-59.424-8.324-68.774c3.428-14.823,25.525-20.053,43.404-20.053c4.495,0,8.867,0.329,12.998,0.946
				c24.119,3.609,48.356,23.627,55.176,45.563c5.113,16.445,5.133,28.938,0.057,38.185c-3.829,6.975-10.481,11.684-19.774,14.208
				C349.811,685.145,341.614,686.085,333.073,686.085z M308.978,595.772c-16.572,0-30.684,4.884-32.124,11.113
				c-5.142,22.223-3.594,52.615,1.262,55.118c14.805,5.771,34.445,12.081,54.954,12.081c0.001,0,0.002,0,0.003,0
				c7.515,0,14.69-0.59,21.324-2.395c6.231-1.696,10.374-4.386,12.663-8.558c3.434-6.257,3.11-15.991-0.962-29.089
				c-5.519-17.75-26.081-34.55-45.837-37.504C316.696,596.004,312.899,595.772,308.978,595.772z"/>
		</g>
		<g>
			<rect x="254.878" y="51.085" width="11" height="47"/>
			<circle cx="260.414" cy="35.406" r="24.453"/>
		</g>
		<path fill="#00B2ED" d="M331.263,459.41c0,11.205-9.082,20.675-20.283,20.675H209.723c-11.202,0-20.284-9.47-20.284-20.675
			l4.575-53.628c0-11.205,9.082-20.697,20.283-20.697h92.108c11.202,0,20.283,9.492,20.283,20.697L331.263,459.41z"/>
		<g>
			<text transform="matrix(1 0 0 1 206.3115 448.3408)" fill="#FFFFFF" font-family="'VWHead-Bold'" font-size="42.6807">#</text>
			<g>
				<path id="XMLID_11_" fill="#FFFFFF" d="M246.093,412.692c-1.071,1.011-2.742,0.952-3.748-0.108
					c-1.001-1.063-0.956-2.745,0.104-3.745c1.074-1.014,2.748-0.959,3.748,0.105C247.204,410.007,247.164,411.683,246.093,412.692z"
					/>
				<path fill="#FFFFFF" d="M267.843,446.537h-7.612c-1.26,0-3.4-0.025-4.537-0.025c-0.028-1.292-0.028-3.29-0.028-4.54v-13.564
					c0-1.205-0.014-2.832-0.014-4.562c0.695,0.017,3.259,0,4.579,0h7.612c0.071,0,0.142,0,0.212-0.018v-4.305
					c-0.071,0-0.142-0.015-0.212-0.015h-7.612c-2.552,0-7.287,0.015-8.873,0.029c0,3.869-0.014,6.504-0.014,8.858v13.562
					c0,2.538,0,6.277,0.045,8.875c1.981,0.012,6.479,0.028,8.841,0.028h7.612c0.071,0,0.142,0,0.212-0.017v-4.308
					C267.984,446.537,267.914,446.537,267.843,446.537z"/>
				<g>
					<polygon fill="#FFFFFF" points="246.568,419.523 242.232,419.523 242.359,450.833 246.698,450.833 					"/>
				</g>
				<path fill="#FFFFFF" d="M311.281,446.61h-7.609c-1.26,0-3.403-0.031-4.534-0.031c-0.028-1.289-0.028-3.29-0.028-4.534V428.48
					c0-1.203-0.018-2.832-0.018-4.565c0.692,0.015,3.256,0,4.579,0h7.609c0.071,0,0.141,0,0.215-0.014v-4.311
					c-0.074,0-0.144-0.011-0.215-0.011h-7.609c-2.552,0-7.287,0.011-8.875,0.028c0,3.869-0.014,6.507-0.014,8.857v13.562
					c0,2.538,0,6.281,0.042,8.87c1.987,0.021,6.478,0.035,8.847,0.035h7.609c0.071,0,0.141,0,0.215-0.015v-4.308
					C311.408,446.621,311.352,446.61,311.281,446.61z"/>
				<path fill="#FFFFFF" d="M274.248,423.93h7.835c1.277,0,3.745-0.028,4.54-0.045l0.096,15.128v2.959
					c0,1.25-0.04,3.305-0.057,4.594c-1.133-0.015-3.301,0.07-4.579,0.07h-7.835v4.169h7.835c2.366,0,6.82,0.028,8.802,0.012
					c0.044-2.593,0-6.295,0-8.828v-0.427c0-0.07,0.014-0.141,0.014-0.226l-0.014-3.954v-8.975c0-2.35,0.028-4.985,0.028-8.855
					c-0.014,0,0,0-0.014,0l-0.014-11.394c0-0.018,0-0.028,0-0.046l-4.362-0.011c0,0.011,0,0.039,0,0.057l0.042,11.394
					c-1.603,0-3.29,0.011-4.483,0.011h-7.835V423.93L274.248,423.93z"/>
			</g>
		</g>
		<path fill="#FFFFFF" d="M425.878,268.359c0,38.509-31.217,69.726-69.724,69.726H159.602c-38.507,0-69.724-31.217-69.724-69.726
			v-97.549c0-38.509,31.217-69.726,69.724-69.726h196.552c38.507,0,69.724,31.217,69.724,69.726V268.359z"/>
		<path fill="#EAEEED" d="M351.757,95.085h-91.879v249.046l89.962-2.895c18.254,0,64.937-16.642,75.372-52.098l1.869-132.121
			C421.292,130.762,391.979,95.085,351.757,95.085z"/>
		<path d="M355.605,345.085H159.309c-41.638,0-75.431-34.827-75.431-76.468v-97.888c0-41.641,33.792-75.645,75.431-75.645h196.297
			c41.638,0,75.272,34.004,75.272,75.645v97.888C430.878,310.258,397.243,345.085,355.605,345.085z M159.309,107.085
			c-35.254,0-63.431,28.389-63.431,63.645v97.888c0,35.256,28.177,63.468,63.431,63.468h196.297
			c35.254,0,64.272-28.212,64.272-63.468v-97.888c0-35.256-29.019-63.645-64.272-63.645H159.309z"/>
		<g>
			<circle cx="187.702" cy="239.752" r="46.02"/>
			<path fill="#FFFFFF" d="M221.064,241.438c0,18.68-15.145,33.823-33.823,33.823c-18.679,0-33.82-15.144-33.82-33.823
				c0-18.681,15.142-33.818,33.82-33.818C205.919,207.619,221.064,222.757,221.064,241.438z"/>
		</g>
		<g>
			<circle cx="323.738" cy="233.856" r="46.02"/>
			<circle fill="#FFFFFF" cx="322.482" cy="236.628" r="34.737"/>
		</g>
	</g>
</g>
</svg>
