<?xml version="1.0" encoding="utf-8"?>
<!-- Generator: Adobe Illustrator 16.0.0, SVG Export Plug-In . SVG Version: 6.00 Build 0)  -->
<!DOCTYPE svg PUBLIC "-//W3C//DTD SVG 1.1//EN" "http://www.w3.org/Graphics/SVG/1.1/DTD/svg11.dtd">
<svg version="1.1" xmlns="http://www.w3.org/2000/svg" xmlns:xlink="http://www.w3.org/1999/xlink" x="0px" y="0px"
	 width="462.339px" height="394.55px" viewBox="0 0 462.339 394.55" enable-background="new 0 0 462.339 394.55"
	 xml:space="preserve">
<g id="Layer_1">
</g>
<g id="Layer_2">
	
		<rect x="262.537" y="209.946" transform="matrix(0.9133 0.4074 -0.4074 0.9133 109.1031 -92.0358)" fill="#CFD7D9" width="16.297" height="0.501"/>
	
		<rect x="268.353" y="217.302" transform="matrix(0.9132 0.4075 -0.4075 0.9132 112.6553 -93.794)" fill="#CFD7D9" width="16.298" height="0.501"/>
	<g>
		
			<ellipse transform="matrix(0.9103 -0.4141 0.4141 0.9103 -106.8557 208.9773)" fill-rule="evenodd" clip-rule="evenodd" cx="428.631" cy="350.979" rx="29.696" ry="40.814"/>
		<path fill-rule="evenodd" clip-rule="evenodd" d="M446.045,384.516c1.24-0.792,2.521-1.528,3.712-2.389
			c3.866-2.788,6.043-6.725,7.412-11.174c1.439-4.68,1.812-9.397,1.237-14.316c-0.809-6.917-2.851-13.353-6.099-19.469
			c-1.978-3.724-4.432-7.07-7.185-10.264c-3.625-4.206-7.882-7.508-12.917-9.761c-6.16-2.756-12.451-3.723-18.741-0.412
			c-5.829,3.068-8.813,8.257-10.424,14.423c-2.511,9.607-0.616,18.71,3.073,27.62c2.896,6.999,7.177,13.027,12.648,18.249
			c3.476,3.315,7.66,5.46,11.927,7.492c-3.583,0-7.167,0-10.75,0c-4.234-2.944-8.15-6.236-11.317-10.348
			c-0.531-0.69-1.299-0.389-1.96-0.39c-20.6-0.016-41.2-0.012-61.799-0.012c-3.199,0-6.398-0.037-9.596,0.019
			c-1.179,0.02-1.77-0.257-1.731-1.591c0.175-6.143-0.856-12.215-1.201-18.331c-0.258-4.577-0.725-9.155-1.125-13.729
			c-0.538-6.143-1.017-12.29-1.541-18.433c-0.514-6.016-0.979-12.036-1.529-18.048c-0.401-4.384-0.838-8.763-1.102-13.156
			c-0.046-0.771-0.319-1.21-1.135-1.196c-0.32,0.005-0.641,0.019-0.959-0.003c-1.445-0.102-3.699,0.628-4.158-0.29
			c-0.718-1.438-0.263-3.471-0.271-5.251c-0.003-0.718,0.456-0.993,1.135-0.985c0.768,0.011,1.536,0.003,2.303,0.002
			c2.422,0,2.858-0.409,2.265-2.674c-0.583-2.224-0.269-4.501-0.682-6.736c-0.341-1.848-0.26-3.77-0.443-5.651
			c-0.116-1.197-1.335-1.608-1.956-2.456c-0.819-1.119-2.169-1.695-2.333-3.482c-0.266-2.887,0.673-5.387,2.151-7.563
			c0.836-1.231,2.928-0.742,4.441-0.944c2.485-0.331,2.562-0.31,1.605-2.547c-0.992-2.317-1.862-4.688-2.88-6.994
			c-0.416-0.942-0.155-1.287,0.7-1.719c1.879-0.95,3.92-1.465,5.815-2.342c0.639-0.296,0.798,0.147,1.005,0.427
			c0.362,0.49,0.487,1.145,0.754,1.657c0.392,0.753,0.19,2.37,1.268,2.138c1.242-0.269,2.817-0.162,3.522-2.11
			c0.624-1.724,2.145-3.163,3.426-4.587c0.579-0.644,4.351,0.71,4.707,1.64c0.593,1.547,1.064,3.141,1.603,4.709
			c0.192,0.562,0.464,1.207,1.172,0.599c1.847-1.587,3.962-2.767,6.012-4.041c0.912-0.566,1.077-1.077,0.541-2.09
			c-0.714-1.35-1.091-2.875-1.735-4.268c-0.436-0.943-0.188-1.368,0.724-1.696c1.676-0.603,3.386-1.156,4.969-1.953
			c1.394-0.702,1.981-0.114,2.443,1.041c1.212,3.031,1.213,3.042,4.141,2.023c1.341-0.467,2.598-0.872,2.915-2.677
			c0.309-1.761,3.933-2.541,5.3-1.248c1.422,1.345,2.838,2.704,3.932,4.41c1.938-2.914,3.815-5.716,5.668-8.533
			c0.464-0.705,0.896-0.943,1.683-0.364c1.496,1.098,3.069,2.087,4.591,3.148c0.937,0.655,1.415,1.237,0.381,2.419
			c-2.32,2.65-2.235,2.713,0.645,4.676c2.163,1.475,4.996,2.624,3.164,6.226c1.918-1.214,3.883-2.36,5.732-3.671
			c0.831-0.589,1.156-0.642,1.691,0.311c0.997,1.772,2.296,3.384,3.203,5.194c0.506,1.012,1.302,0.789,1.674,0.512
			c3.051-2.272,5.215-0.664,7.292,1.513c0.392,0.409,0.855,0.701,1.334,1.007c0.82,0.521,1.203,1.256,0.604,2.259
			c-0.277,0.464-0.367,1.038-0.548,1.56c-0.504,1.448-2.498,2.921-0.197,4.374c1.488,0.94,2.503,2.689,4.501,2.773
			c0.704,0.029,0.923,0.418,1.177,1.007c0.686,1.589,0.415,4.753-0.93,5.745c-2.947,2.175-3.366,5.157-3.41,8.487
			c-0.04,2.946-0.43,5.893-0.739,8.831c-0.138,1.309,0.23,1.737,1.622,1.701c3.384-0.09,3.386-0.011,3.386,3.296
			c0,3.192,0,3.192-3.181,3.192c-2.541,0-2.411,0.011-2.604,2.412c-0.423,5.256-1.014,10.497-1.489,15.749
			c-0.158,1.753,0.038,3.509-0.341,5.279c-0.26,1.217,0.808,0.733,1.424,0.58c2.248-0.56,4.514-1.11,6.838-0.967
			c6.209,0.385,11.819,2.503,16.837,6.154c7.451,5.421,12.907,12.458,16.697,20.822c2.467,5.445,4.034,11.092,4.673,17.086
			c0.617,5.796-0.008,11.301-1.914,16.763c-1.607,4.607-4.427,8.278-8.145,11.335C449.117,384.516,447.581,384.516,446.045,384.516z
			"/>
		<path fill-rule="evenodd" clip-rule="evenodd" d="M312.501,235.425c-0.152,1.521,0.791,3.956-0.36,5
			c-0.992,0.901-3.391,0.274-5.167,0.282c-3.214,0.015-3.036,0.295-2.875-3.035c0.089-1.853-0.318-2.738-2.315-2.339
			c-3.907,0.78-6.206-0.75-7.845-4.471c-0.933-2.117-0.752-3.08,0.799-4.51c2.907-2.679,2.824-2.76,0.555-6.123
			c-0.413-0.611-0.739-1.282-1.146-1.899c-1.296-1.97-1.14-2.308,1.137-2.58c1.969-0.235,3.933-0.503,5.854-1.043
			c1.716-0.482,2.921,0.724,4.256,1.439c2.861,1.534,5.43,3.637,8.666,4.435c0.841,0.207,1.691,0.514,2.541,0.523
			c2.992,0.034,4.021,1.827,4.91,4.417c0.678,1.972,0.417,3.052-0.999,4.396c-1.014,0.961-2.073,0.962-3.136,0.732
			c-1.561-0.339-3.583-1.647-4.541-0.857c-1.049,0.865-0.226,3.112-0.332,4.753C312.49,234.735,312.501,234.929,312.501,235.425z"/>
		<path fill-rule="evenodd" clip-rule="evenodd" fill="#E60029" d="M396.213,344.061c0.803,10.094,4.521,18.999,10.163,27.401
			c-0.839,0-1.578,0-2.318,0c-22.068,0-44.136-0.025-66.204,0.049c-1.766,0.006-1.968-0.529-2.052-2.113
			c-0.309-5.784-0.89-11.554-1.403-17.326c-0.323-3.643-0.576-7.303-0.865-10.953c-0.429-5.395-1.015-10.776-1.486-16.168
			c-0.153-1.761-0.179-3.525-0.355-5.293c-0.543-5.465-0.725-10.965-1.244-16.433c-0.435-4.583-0.755-9.173-1.165-13.754
			c-0.539-6.027-1.076-12.052-1.499-18.088c-0.278-3.968-0.313-3.966,3.666-3.966c27.313,0,54.626,0.011,81.939-0.023
			c1.696-0.002,2.742-0.08,2.031,2.26c-0.495,1.631-0.244,3.498-0.416,5.268c-0.543,5.593-0.716,11.222-1.242,16.816
			c-0.595,6.344-1.137,12.688-1.538,19.046c-0.058,0.922-0.45,1.827-0.357,2.791c0.081,0.85-0.62,1.047-1.182,1.268
			c-6.205,2.432-9.954,7.132-12.264,13.183c-0.324,0.848-0.854,1.612-0.985,2.556c-0.243-2.729,0.223-5.381,0.503-8.046
			c0.21-2.008,0.342-4.022,0.495-6.036c0.391-5.159,0.652-10.333,1.199-15.477c0.467-4.39,0.971-8.771,1.092-13.185
			c0.063-2.301-1.433-4.165-3.284-4.294c-2.946-0.205-4.76,1.128-5.152,3.755c-0.624,4.176-0.788,8.393-1.163,12.59
			c-0.582,6.517-1.41,13.015-1.835,19.54c-0.235,3.594-0.561,7.179-0.876,10.762c-0.456,5.199-0.697,10.421-1.459,15.596
			c-0.238,1.617-0.209,3.276-0.326,4.907c-0.189,2.647-0.667,5.286-0.506,7.97c0.137,2.272,1.617,4.193,3.616,4.353
			c2.506,0.2,4.514-1.25,4.828-3.714c0.365-2.868,0.37-5.79,0.851-8.635C395.794,348.466,395.481,346.174,396.213,344.061z"/>
		<path fill-rule="evenodd" clip-rule="evenodd" fill="#E60029" d="M371.676,259.355c15.345,0,30.69-0.005,46.036,0.013
			c0.77,0.001,1.799-0.394,2.17,0.67c0.354,1.014-0.335,1.697-0.943,2.49c-1.623,2.123-3.631,2.653-6.263,2.645
			c-28.197-0.095-56.394-0.059-84.59-0.059c-1.411,0-4.434-2.11-4.865-3.392c-0.519-1.544,0.104-2.364,1.844-2.364
			c13.427-0.006,26.854-0.003,40.281-0.003C367.456,259.355,369.566,259.355,371.676,259.355z"/>
		<path fill-rule="evenodd" clip-rule="evenodd" fill="#E60029" d="M388.351,357.126c0.543-5.513,1.116-11.022,1.62-16.539
			c0.316-3.456,0.492-6.924,0.798-10.381c0.472-5.327,1.071-10.644,1.469-15.976c0.131-1.763,0.284-3.523,0.426-5.286
			c0.449-5.585,0.799-11.177,1.521-16.739c0.193-1.491-0.032-3.006,0.379-4.511c0.358-1.313,1.053-1.955,2.368-1.834
			c1.351,0.125,1.509,1.224,1.483,2.23c-0.062,2.404,0.035,4.863-0.456,7.189c-0.436,2.066-0.317,4.136-0.58,6.192
			c-0.665,5.188-0.758,10.445-1.273,15.657c-0.589,5.957-1.056,11.924-1.569,17.887c-0.361,4.201-0.64,8.417-1.139,12.602
			c-0.423,3.555-0.433,7.143-1.05,10.684c-0.244,1.397-0.733,2.394-2.127,2.357c-1.504-0.037-1.853-1.234-1.768-2.564
			c0.02-0.318,0.003-0.64,0.003-0.96C388.421,357.132,388.386,357.129,388.351,357.126z"/>
		<path fill-rule="evenodd" clip-rule="evenodd" fill="#FFFFFF" d="M323.104,256.932c-0.092-2.769,2.229-2.15,3.662-2.474
			c1.058-0.237,2.209-0.497,3.333-0.461c1.518,0.05,1.295-0.684,0.886-1.646c-1.084-2.554-2.043-5.166-3.237-7.667
			c-0.659-1.38-0.304-1.917,1.039-2.24c0.712-0.172,1.467-0.383,2.063-0.783c1.643-1.102,2.165-0.428,2.762,1.207
			c1.091,2.983,1.229,2.941,4.093,1.75c0.569-0.237,1.282-0.384,1.691-0.692c2.292-1.73,3.653-0.209,5.423,1.042
			c1.955,1.382,1.998,2.533,1.095,4.613c-1.604,3.697-1.43,3.804,1.971,6.178c0.46,0.32,0.904,0.605,1.435,1.173
			C340.43,256.932,331.733,256.932,323.104,256.932z"/>
		<path fill-rule="evenodd" clip-rule="evenodd" fill="#FFFFFF" d="M396.197,243.772c1.531-0.64,3.068-1.25,4.576-1.926
			c0.664-0.298,1.093-0.116,1.448,0.435c0.063,0.099,0.044,0.248,0.09,0.362c0.37,0.912,0.785,1.808,1.112,2.735
			c0.598,1.696,1.444,0.377,2.159,0.179c0.948-0.263,1.875-0.611,2.797-0.959c1.011-0.382,1.997-1.339,3.094-0.76
			c1.666,0.877,3.061,2.177,4.357,3.552c0.409,0.433-0.313,0.76-0.144,1.206c0.044,0.115-0.156,0.317-0.231,0.484
			c-0.633,1.403-1.708,2.798-1.569,4.295c0.158,1.711,2.303,1.896,3.308,3.054c0.111,0.128,0.199,0.274,0.386,0.535
			c-8.413,0-16.685,0-24.951,0c0.168-1.191,0.182-1.148,1.219-1.475c1.501-0.472,3.053-0.603,4.6-0.729
			c1.896-0.154,2.22-0.508,1.501-2.271C398.76,249.578,397.466,246.706,396.197,243.772z"/>
		<path fill-rule="evenodd" clip-rule="evenodd" fill="#FFFFFF" d="M377.513,257.052c-2.106,0-4.215-0.055-6.319,0.021
			c-1.172,0.042-1.619-0.64-2.118-1.503c-0.575-0.996,0.199-1.383,0.69-1.897c0.881-0.922,1.784-1.826,2.708-2.704
			c0.774-0.735,0.843-1.384,0.163-2.293c-1.035-1.385-1.877-2.91-2.853-4.34c-0.619-0.908-0.14-1.318,0.648-1.46
			c1.772-0.317,3.571-0.493,5.342-0.815c0.903-0.164,1.586-0.079,2.34,0.559c0.837,0.709,1.835,1.351,2.871,1.68
			c3.104,0.987,4.309,3.228,4.381,6.246c0.05,2.095,0.654,4.642-0.306,6.147c-0.759,1.189-3.555,0.243-5.442,0.354
			C378.919,257.085,378.215,257.052,377.513,257.052z"/>
		<path fill-rule="evenodd" clip-rule="evenodd" fill="#FFFFFF" d="M340.453,242.424c0.504-1.864,1.773-2.627,2.55-3.748
			c0.627-0.906,3.108,0.089,3.567,1.364c0.543,1.509,1.211,3.006,1.489,4.568c0.335,1.876,1.389,1.473,2.246,0.785
			c2.194-1.76,4.706-3.025,6.95-4.672c1.069-0.784,1.397-0.295,1.929,0.359c0.112,0.137,0.131,0.345,0.208,0.514
			c0.562,1.224,2.15,2.218,1.92,3.422c-0.223,1.167-2.069,1.397-3.094,2.192c-0.578,0.448-1.199,0.812-0.357,1.79
			c1.08,1.255,1.827,2.794,2.747,4.191c0.643,0.975,0.692,1.873,0.164,2.976c-0.529,1.106-1.373,0.856-2.208,0.884
			c-0.319,0.01-0.65-0.051-0.958,0.01c-4.511,0.885-8.004-1.128-11.233-3.914c-0.424-0.366-0.642-0.639-0.265-1.257
			c0.51-0.835,0.822-1.792,1.204-2.703c1.157-2.759,1.673-2.338-0.961-4.393c-1.026-0.801-1.914-1.769-3.045-2.481
			C342.387,241.731,341.69,241.429,340.453,242.424z"/>
		<path fill-rule="evenodd" clip-rule="evenodd" fill="#FFFFFF" d="M383.697,244.446c-1.697-0.959-3.193-2.29-4.9-2.668
			c-3.54-0.783-5.542-3.271-7.772-5.706c-0.83-0.906-1.006-1.71-0.538-2.568c0.328-0.602,0.275-1.207,0.466-1.791
			c0.678-2.071,2.771-2.655,4.324-1.068c1.281,1.309,2.476,2.703,3.7,4.068c0.512,0.57,0.73,0.551,1.179-0.188
			c1.544-2.542,3.242-4.99,4.846-7.497c0.619-0.966,1.234-1.432,2.145-0.343c0.031,0.037,0.136,0.007,0.179,0.041
			c1.076,0.845,2.86,1.23,3.191,2.442c0.337,1.232-1.191,2.266-1.928,3.366c-0.54,0.805-0.306,1.328,0.42,1.792
			c1.673,1.07,3.42,2.027,4.896,3.394c0.998,0.925,0.701,4.228-0.456,4.943c-0.69,0.427-0.727-0.106-0.871-0.484
			c-0.482-1.268-1.218-2.514-1.356-3.822c-0.268-2.532-2.403-2.176-3.869-2.744c-1.215-0.472-1.62,0.738-2.258,1.515
			c-0.916,1.114-2.138,2.114-2.511,3.465C382.24,241.836,383.569,242.958,383.697,244.446z"/>
		<path fill-rule="evenodd" clip-rule="evenodd" fill="#FFFFFF" d="M386.537,253.699c-0.079-3.762-0.347-7.505-2.176-10.896
			c-0.92-1.708-0.267-3.037,0.866-4.132c0.64-0.618,0.809-1.878,2.036-1.804c1.721,0.105,2.904,0.752,3.207,2.703
			c0.195,1.257,0.908,2.424,1.237,3.672c0.331,1.257,0.897,1.618,1.919,0.738c1.027-0.883,1.36-0.571,1.781,0.617
			c0.905,2.558,1.96,5.066,3.075,7.54c0.455,1.008,0.607,1.408-0.765,1.51c-0.983,0.072-1.978,0.251-2.97,0.374
			c-1.514,0.188-2.773,0.625-3.594,2.333c-0.788,1.641-2.726,0.561-4.118,0.604c-0.918,0.027-0.371-1.118-0.479-1.728
			C386.466,254.735,386.537,254.212,386.537,253.699z"/>
		<path fill-rule="evenodd" clip-rule="evenodd" fill="#FFFFFF" d="M358.778,248.618c1.063-1.319,2.378-1.662,3.421-2.394
			c0.706-0.496,0.983-1.04,0.38-1.797c-1.526-1.914-2.458-4.203-4.246-6.008c-1.13-1.141-2.062-3.142-1.952-4.676
			c0.135-1.912,2.762-1.39,4.084-2.362c0.338-0.249,1.287-0.751,1.537,0.446c0.162,0.775,0.469,1.523,0.75,2.269
			c0.42,1.113,0.924,1.881,2.359,1.11c1.224-0.657,2.596-1.04,3.745-1.484c0.088,3.516,3.49,4.744,5.15,7.414
			c-1.733,0.33-3.33,0.693-4.946,0.913c-0.641,0.087-1.393,0.269-1.958-0.396c-1.148-1.349-1.673-0.731-2.082,0.631
			c-0.531,1.772-1.243,3.491-1.751,5.27c-0.335,1.175-0.664,1.826-2.055,1.111C360.658,248.38,359.833,248.618,358.778,248.618z"/>
		<path fill-rule="evenodd" clip-rule="evenodd" fill="#FFFFFF" d="M368.581,256.997c-2.5,0-4.649,0-7.06,0
			c2.754-3.121-1.037-4.706-1.487-7.169c0.522-0.024,1.035-0.205,1.384-0.04c1.913,0.902,2.509-0.047,2.948-1.754
			c0.474-1.841,1.242-3.606,1.901-5.46c2.692,1.664,3.779,4.577,5.567,6.919c0.332,0.435-0.131,0.684-0.375,0.936
			c-0.756,0.78-1.466,1.624-2.314,2.289C367.639,253.899,366.843,255.134,368.581,256.997z"/>
		<path fill-rule="evenodd" clip-rule="evenodd" fill="#B8B8B8" d="M402.975,324.251c-4.886,11.092-4.08,22.166,0.006,33.122
			c4.06,10.888,10.625,19.904,20.68,26.128c-0.874,0.064-1.894-0.492-3.434-1.562c-8.064-5.603-13.645-13.181-17.561-22.063
			c-2.043-4.637-3.196-9.504-3.9-14.542c-1.046-7.48,0.557-14.379,3.783-21.036C402.563,324.268,402.669,324.282,402.975,324.251z"
			/>
		<path fill-rule="evenodd" clip-rule="evenodd" fill="#B8B8B8" d="M323.853,288.187c-0.836-0.219-2.119,0.443-2.453-0.38
			c-0.399-0.983-0.125-2.248-0.101-3.391c0.012-0.554,0.483-0.479,0.849-0.484c0.699-0.011,1.41,0.079,2.094-0.021
			c1.94-0.285,2.395,0.504,2.482,2.414C326.849,289.045,325.02,287.899,323.853,288.187z"/>
		<path fill-rule="evenodd" clip-rule="evenodd" fill="#B8B8B8" d="M418.654,288.08c-1.883,0.563-2.099-0.364-2.258-2.109
			c-0.229-2.509,1.269-1.903,2.65-2.082c1.907-0.246,2.001,0.662,2.111,2.22C421.308,288.225,420.284,288.381,418.654,288.08z"/>
		<path fill-rule="evenodd" clip-rule="evenodd" fill="#FFFFFF" d="M294.703,217.007c2.283-0.322,4.375-0.428,6.341-0.979
			c0.948-0.267,1.55-0.091,2.239,0.305c1.612,0.924,3.227,1.845,4.799,2.834c2.716,1.707,5.649,2.79,8.838,3.108
			c2.069,0.207,2.784,1.492,3.329,3.317c0.417,1.396,0.54,2.333-0.708,3.348c-0.75,0.61-1.434,0.778-2.244,0.554
			c-1.493-0.412-3.086-0.607-4.481-1.166c-1.758-0.703-1.467,0.264-1.467,1.242c0,2.878-0.047,5.758,0.025,8.635
			c0.027,1.079-0.281,1.539-1.372,1.359c-0.125-0.021-0.256,0-0.383-0.003c-1.398-0.032-3.137,0.427-4.096-0.237
			c-0.936-0.648-0.254-2.493-0.295-3.81c-0.031-1.002-0.444-1.359-1.404-1.338c-1.598,0.036-3.209-0.107-4.794,0.045
			c-1.337,0.129-2.047-0.435-2.654-1.498c-2.186-3.823-2.236-3.85,1.021-7c1.135-1.099,1.731-1.962,0.553-3.481
			C296.749,220.693,295.859,218.905,294.703,217.007z"/>
		<path fill-rule="evenodd" clip-rule="evenodd" d="M342.425,289.034c0.143-0.977-0.276-1.98,0.25-2.977
			c0.93-1.763,2.619-2.784,4.456-2.511c1.713,0.255,3.5,2.018,3.689,3.758c0.538,4.932,1.004,9.871,1.555,14.801
			c0.599,5.359,1.291,10.709,1.884,16.068c0.326,2.94,0.485,5.899,0.807,8.84c0.457,4.174,1.104,8.33,1.459,12.513
			c0.225,2.635,0.574,5.251,0.815,7.881c0.304,3.312,0.691,6.609,1.11,9.909c0.381,3.007-0.859,5.242-3.819,5.674
			c-2.606,0.381-4.699-1.808-4.986-4.614c-0.446-4.365-0.783-8.743-1.453-13.09c-0.439-2.856-0.469-5.772-0.838-8.643
			c-0.544-4.229-0.772-8.49-1.448-12.71c-0.457-2.853-0.501-5.769-0.851-8.641c-0.523-4.296-0.788-8.616-1.464-12.898
			c-0.441-2.792-0.665-5.63-0.784-8.455C342.739,292.293,341.98,290.715,342.425,289.034z"/>
		<path fill-rule="evenodd" clip-rule="evenodd" d="M367.34,291.276c0.323,6.305,0.6,13.024,0.831,19.748
			c0.19,5.506,0.525,11.011,0.755,16.52c0.256,6.146,0.417,12.304,0.827,18.433c0.274,4.102,0.159,8.211,0.551,12.316
			c0.3,3.143-1.94,4.999-4.506,4.763c-2.296-0.211-4.224-1.824-4.191-4.192c0.06-4.266-0.375-8.509-0.49-12.766
			c-0.161-5.953-0.481-11.908-0.745-17.862c-0.25-5.635-0.534-11.268-0.763-16.904c-0.25-6.146-0.638-12.284-0.785-18.438
			c-0.032-1.355-0.312-2.748-0.314-4.138c-0.003-3.263,1.518-5.071,4.118-5.238c3.24-0.208,4.378,1.836,4.7,5.045
			C367.405,289.32,367.34,290.095,367.34,291.276z"/>
		<path fill-rule="evenodd" clip-rule="evenodd" d="M374.25,352.479c0.328-7.577,0.159-15.171,0.493-22.735
			c0.236-5.352-0.144-10.713,0.341-16.027c0.495-5.417-0.062-10.837,0.392-16.22c0.274-3.244,0.204-6.471,0.312-9.704
			c0.071-2.113,1.935-4.094,3.982-4.25c2.23-0.17,3.934,1.113,4.462,3.352c0.438,1.855,0.69,3.707,0.026,5.571
			c-0.081,0.229-0.032,0.509-0.023,0.764c0.272,7.906-0.349,15.798-0.407,23.699c-0.053,7.262-0.206,14.529-0.48,21.778
			c-0.202,5.349,0.077,10.703-0.348,16.025c-0.162,2.03,0.136,4.182-0.751,6.127c-0.825,1.807-2.924,2.877-4.789,2.533
			c-1.577-0.291-3.165-2.32-3.199-4.2C374.22,356.955,374.25,354.718,374.25,352.479z"/>
		<path fill-rule="evenodd" clip-rule="evenodd" fill="#E60029" d="M344.69,289.395c-0.001-0.127,0.001-0.255-0.002-0.383
			c-0.037-1.414-0.126-3.047,1.793-3.104c1.705-0.051,1.858,1.42,2.08,2.814c0.709,4.469,0.934,8.988,1.527,13.464
			c0.702,5.286,1.078,10.606,1.801,15.895c0.373,2.729,0.558,5.507,0.856,8.261c0.481,4.43,0.947,8.861,1.447,13.289
			c0.324,2.87,0.617,5.759,0.879,8.644c0.278,3.057,0.654,6.105,1.084,9.144c0.21,1.485-0.578,3.133-1.775,3.294
			c-1.301,0.173-2.228-0.866-2.408-2.527c-0.611-5.615-1.294-11.224-1.89-16.839c-0.438-4.131-0.68-8.283-1.201-12.402
			c-0.52-4.106-0.873-8.229-1.404-12.335c-0.361-2.797-0.564-5.636-0.877-8.452c-0.485-4.364-0.873-8.74-1.427-13.1
			C344.938,293.199,344.577,291.303,344.69,289.395z"/>
		<path fill-rule="evenodd" clip-rule="evenodd" fill="#E60029" d="M366.205,316.389c0.222,7.042,0.584,14.077,0.821,21.118
			c0.188,5.569,0.724,11.129,0.695,16.712c-0.007,1.329,0.636,2.591,0.387,3.94c-0.235,1.271-0.477,2.6-2.181,2.534
			c-1.529-0.059-2.02-1.253-2.009-2.483c0.032-3.88-0.379-7.738-0.489-11.612c-0.178-6.272-0.512-12.544-0.755-18.818
			c-0.207-5.313-0.553-10.623-0.753-15.942c-0.237-6.337-0.641-12.667-0.795-19.01c-0.034-1.42-0.341-2.878-0.297-4.329
			c0.038-1.262,0.396-2.399,1.878-2.643c1.72-0.283,1.812,1.184,2.279,2.219c0.074,0.164,0.063,0.379,0.047,0.566
			c-0.27,3.249,0.32,6.462,0.414,9.697C365.62,304.356,365.943,310.372,366.205,316.389z"/>
		<path fill-rule="evenodd" clip-rule="evenodd" fill="#E60029" d="M376.92,336.487c0.135-7.646,0.268-15.297,0.521-22.934
			c0.17-5.156-0.09-10.323,0.329-15.455c0.26-3.179,0.244-6.341,0.329-9.514c0.036-1.334,0.398-2.576,1.99-2.716
			c1.786-0.157,1.958,1.46,2.146,2.549c0.206,1.198,0.341,2.526-0.193,3.764c-0.143,0.331-0.118,0.75-0.106,1.126
			c0.284,8.868-0.33,17.722-0.473,26.582c-0.102,6.302,0.028,12.625-0.395,18.903c-0.352,5.229-0.088,10.44-0.295,15.654
			c-0.065,1.638-0.419,3.245-0.443,4.901c-0.014,0.95-0.819,1.783-1.912,1.711c-1.025-0.067-1.853-0.811-1.825-1.826
			c0.139-5.023-0.36-10.049,0.272-15.08C377.182,341.636,376.92,339.045,376.92,336.487z"/>
		<path fill-rule="evenodd" clip-rule="evenodd" fill="#E60029" d="M452.179,379.978c-7.262,7.656-18.253,6.073-21.977,4.823
			c-4.52-1.518-7.758-3.774-11.063-6.795c-10.461-9.556-16.342-21.501-17.67-35.583c-0.568-6.022,0.562-11.876,3.29-17.322
			c4.255-8.493,12.676-12.457,21.939-10.33c5.266,1.21,9.969,3.635,14.063,7.157c9.967,8.577,15.701,19.542,17.9,32.395
			C459.772,369.951,455.306,376.681,452.179,379.978z"/>
		<path fill-rule="evenodd" clip-rule="evenodd" fill="#B8B8B8" d="M432.564,346.139c0.962-0.613,1.748-1.403,2.365-2.362
			c1.029-0.588,1.76-2.102,3.322-0.58c2.243,2.186,2.274,2.533-0.634,4.804c-0.744,1.089-1.657,2.007-2.75,2.746
			c-1.153,0.812-2.016,1.931-3.05,2.867c-0.315,0.286-0.558,0.716-1.102,0.622c-0.804-0.14-2.729-2.922-2.697-3.911l-0.04,0.04
			C429.694,349.159,430.887,347.386,432.564,346.139z"/>
		<path fill-rule="evenodd" clip-rule="evenodd" d="M428.018,350.324c0.243,1.721,2.254,2.138,2.653,3.839
			c1.688-0.931,2.376-2.888,4.196-3.417c-0.461,0.93-1.315,1.508-2.015,2.218c-2.558,2.6-2.526,2.542-5.071,0.088
			C426.607,351.921,426.512,351.111,428.018,350.324z"/>
		<path fill-rule="evenodd" clip-rule="evenodd" d="M437.617,348c0.71-0.794,1.42-1.589,2.294-2.565
			c-0.764-0.727-1.622-1.437-2.355-2.259c-1.298-1.458-1.591,1.13-2.627,0.601c0.807-0.882,1.615-1.765,2.498-2.729
			c0.957,0.994,1.785,1.979,2.745,2.813c0.875,0.76,0.867,1.453,0.046,2.107C439.359,346.653,438.962,347.942,437.617,348z"/>
		<path fill-rule="evenodd" clip-rule="evenodd" d="M432.564,346.139c-1.406,1.542-2.55,3.367-4.585,4.226
			C429.416,348.856,430.546,347.017,432.564,346.139z"/>
	</g>
	<g>
		<g>
			<ellipse fill="#CFD7D9" cx="136.393" cy="288.697" rx="45.453" ry="33.041"/>
			<path d="M136.394,324.737c-26.716,0-48.452-16.168-48.452-36.04c0-19.874,21.736-36.042,48.452-36.042
				s48.451,16.168,48.451,36.042C184.845,308.569,163.109,324.737,136.394,324.737z M136.394,258.652
				c-23.41,0-42.455,13.479-42.455,30.045c0,16.565,19.045,30.043,42.455,30.043c23.41,0,42.455-13.478,42.455-30.043
				C178.848,272.131,159.804,258.652,136.394,258.652z"/>
		</g>
		<g>
			<path fill="#FFFFFF" d="M44.14,252.56c6.106,8.239,4.472,19.8-3.657,25.824c-8.124,6.024-19.662,4.229-25.769-4.01
				c-6.105-8.236-4.469-19.799,3.655-25.824C26.496,242.526,38.032,244.32,44.14,252.56z"/>
			<path d="M29.685,284.946c-6.804,0-13.301-3.285-17.379-8.787c-7.081-9.551-5.162-23.017,4.277-30.017
				c3.667-2.719,8.02-4.154,12.588-4.154c6.803,0,13.299,3.285,17.377,8.787c7.082,9.553,5.161,23.021-4.281,30.02
				C38.604,283.51,34.253,284.946,29.685,284.946z M29.171,247.984c-3.273,0-6.391,1.028-9.017,2.975
				c-6.783,5.03-8.144,14.733-3.032,21.63c2.953,3.983,7.649,6.36,12.563,6.36c3.272,0,6.389-1.026,9.012-2.974
				c6.787-5.027,8.147-14.732,3.034-21.632C38.779,250.361,34.083,247.984,29.171,247.984z"/>
		</g>
		<g>
			<path fill="#FFFFFF" d="M38.039,257.263c-11.524-11.004-0.542-27.387,16.178-39.192c17.337-12.241,32.449-17.609,35.135-14.547
				c2.802,3.194-2.108,22.688-12.515,39.417C66.03,260.313,51.181,269.809,38.039,257.263z"/>
			<path d="M50.862,266c-5.319,0-10.329-2.21-14.894-6.567c-4.079-3.896-6.028-8.763-5.636-14.078
				c0.698-9.447,8.773-20.284,22.153-29.732c13.503-9.536,27.234-15.941,34.168-15.941c2.2,0,3.865,0.628,4.951,1.865
				c4.704,5.362-2.841,27.896-12.223,42.979C70.768,258.373,60.64,266,50.862,266z M86.654,205.677
				c-4.815,0-16.909,5.1-30.708,14.845c-11.737,8.286-19.075,17.734-19.632,25.272c-0.263,3.568,0.978,6.61,3.796,9.302
				c3.411,3.257,7.029,4.908,10.753,4.908c7.518,0,16.058-6.797,23.429-18.648c9.82-15.784,13.565-31.971,12.788-35.66
				C86.968,205.687,86.828,205.677,86.654,205.677z"/>
		</g>
		<g>
			<g>
				
					<ellipse transform="matrix(-0.926 -0.3776 0.3776 -0.926 410.3887 527.6553)" fill="#CFD7D9" cx="256.919" cy="223.598" rx="18.315" ry="18.569"/>
				<path d="M267.904,241.967c-5.769,3.532-12.919,4.13-19.128,1.599c-5.279-2.152-9.392-6.259-11.579-11.559
					c-2.18-5.284-2.186-11.131-0.014-16.458c1.767-4.328,4.792-7.898,8.752-10.323c5.769-3.533,12.92-4.131,19.129-1.598
					c5.279,2.152,9.389,6.258,11.578,11.559c2.18,5.287,2.185,11.132,0.013,16.46C274.89,235.974,271.864,239.542,267.904,241.967z
					 M249.066,210.339c-2.862,1.753-5.051,4.338-6.331,7.476c-1.574,3.858-1.572,8.087,0.004,11.908
					c1.571,3.806,4.518,6.749,8.301,8.292c4.515,1.841,9.521,1.416,13.731-1.162c2.861-1.754,5.051-4.337,6.33-7.471
					c1.574-3.858,1.572-8.088-0.004-11.908c-1.571-3.807-4.517-6.752-8.297-8.292C258.283,207.338,253.277,207.761,249.066,210.339z
					"/>
			</g>
			<g>
				<path fill="#CFD7D9" d="M246.156,223.579c-3.425,15.561-23.129,14.677-41.897,6.511c-19.461-8.467-31.893-18.599-30.669-22.482
					c1.276-4.052,20.487-9.973,40.187-9.76C234.235,198.068,250.06,205.833,246.156,223.579z"/>
				<path d="M241.219,235.647c-8.367,5.125-22.273,4.102-38.155-2.807c-12.34-5.369-34.979-17.74-32.333-26.135
					c0.462-1.466,1.679-2.787,3.721-4.037c6.501-3.982,23-7.995,39.357-7.82c14.853,0.161,26.133,4.152,31.767,11.239
					c3.898,4.902,5.078,11.004,3.508,18.135C247.968,229.29,245.322,233.135,241.219,235.647z M176.622,208.463
					c1.174,2.61,10.118,10.736,28.833,18.878c13.65,5.938,26.154,7.163,32.632,3.194c2.697-1.652,4.378-4.138,5.141-7.602
					c1.163-5.281,0.373-9.694-2.346-13.115c-4.489-5.646-14.126-8.832-27.138-8.973c-15.076-0.163-30.509,3.474-36.161,6.937
					C177.111,208.069,176.809,208.301,176.622,208.463z"/>
			</g>
		</g>
		<g>
			<path fill="#FFFFFF" d="M184.23,183.923c-5.247-14.992-20.047-17.373-29.981-17.373h-12.485h-11.993h-11.993
				c-9.934,0-24.734,2.381-29.98,17.373c0,0-21.362,60.525-18.739,93.163c1.5,12.143,11.803,17.464,21.736,17.464h38.976h11.993
				h39.468c9.935,0,20.237-5.321,21.736-17.464C205.592,244.448,184.23,183.923,184.23,183.923z"/>
			<path fill="#EAEEED" d="M182.731,183.923c-5.247-14.992-20.047-17.373-29.981-17.373h-12.484H135v128h5.266h39.467
				c9.934,0,20.237-5.321,21.736-17.464C204.093,244.448,182.731,183.923,182.731,183.923z"/>
			<path d="M181.232,298.55H90.796c-11.044,0-22.969-6.601-24.711-20.715c-2.651-32.953,18.086-92.632,18.843-95.139
				c4.469-12.777,16.122-20.146,32.851-20.146h36.47c16.73,0,28.382,7.229,32.811,19.879c0.797,2.633,21.535,62.324,18.896,95.15
				C204.201,291.819,192.277,298.55,181.232,298.55z M117.779,169.55c-9.894,0-22.636,2.466-27.151,15.364
				c-0.141,0.479-21.127,60.737-18.58,92.433c1.282,10.352,10.342,15.203,18.748,15.203h90.436c8.406,0,17.467-4.972,18.761-15.452
				c2.536-31.58-18.451-91.563-18.633-92.169c-4.475-12.771-17.217-15.379-27.111-15.379H117.779z"/>
		</g>
		<g>
			<path fill="#FFFFFF" d="M129.826,326.96c2.061,8.908,3.283,29.935-2.479,32.18c-9.709,3.787-25.87,9.342-41.39,5.12
				c-8.398-2.282-12.694-8.747-8.136-23.406c3.101-9.975,14.368-19.756,26.159-21.52
				C114.241,317.796,128.254,320.164,129.826,326.96z"/>
			<path d="M97.79,368.771c-4.424,0-8.67-0.543-12.619-1.617c-4.813-1.309-8.258-3.803-10.242-7.416
				c-2.629-4.789-2.619-11.257,0.03-19.774c3.533-11.361,16.085-21.726,28.578-23.596c2.139-0.318,4.404-0.482,6.731-0.482
				c9.26,0,20.705,2.725,22.48,10.399c1.12,4.843,5.084,31.988-4.313,35.65C120.271,365.117,109.41,368.771,97.79,368.771z
				 M110.268,321.882c-2.031,0-3.997,0.139-5.843,0.418c-10.233,1.529-20.882,10.253-23.741,19.443
				c-2.109,6.785-2.277,11.869-0.499,15.109c1.186,2.161,3.332,3.638,6.558,4.514c3.437,0.936,7.153,1.408,11.046,1.408
				c10.621,0,20.793-3.435,28.469-6.428c2.508-1.293,3.31-17.2,0.647-28.709C126.159,324.41,118.851,321.882,110.268,321.882z"/>
		</g>
		<g>
			<path fill="#EAEEED" d="M140.645,326.96c-2.061,8.908-3.283,29.935,2.479,32.18c9.709,3.787,25.87,9.342,41.391,5.12
				c8.398-2.282,12.693-8.747,8.135-23.406c-3.101-9.975-14.368-19.756-26.159-21.52
				C156.231,317.796,142.217,320.164,140.645,326.96z"/>
			<path d="M172.684,368.55c-0.001,0-0.002,0-0.002,0c-11.622,0-22.482-3.545-30.647-6.727c-9.396-3.66-5.431-30.75-4.311-35.593
				c1.776-7.677,13.22-10.373,22.48-10.373c2.328,0,4.592,0.178,6.732,0.498c12.492,1.868,25.045,12.24,28.577,23.601
				c2.648,8.518,2.659,14.989,0.03,19.778c-1.983,3.612-5.429,5.999-10.242,7.307C181.352,368.115,177.107,368.55,172.684,368.55z
				 M160.204,321.882c-8.583,0-15.892,2.528-16.638,5.756c-2.663,11.509-1.861,27.303,0.654,28.601
				c7.668,2.99,17.84,6.312,28.462,6.312c0,0,0.001,0,0.002,0c3.891,0,7.607-0.36,11.043-1.295c3.228-0.877,5.373-2.298,6.559-4.459
				c1.778-3.24,1.611-8.297-0.499-15.08c-2.858-9.191-13.508-17.899-23.74-19.43C164.201,322.008,162.235,321.882,160.204,321.882z"
				/>
		</g>
		<g>
			<rect x="132" y="39.55" width="6" height="24"/>
			<circle cx="135.052" cy="31.654" r="12.665"/>
		</g>
		<path fill="#00B2ED" d="M171.746,251.548c0,5.804-4.704,11.002-10.505,11.002h-52.444c-5.801,0-10.505-5.198-10.505-11.002
			l2.369-28.027c0-5.803,4.704-10.971,10.505-10.971h47.705c5.802,0,10.505,5.168,10.505,10.971L171.746,251.548z"/>
		<g>
			<text transform="matrix(1 0 0 1 107.0313 245.5234)" fill="#FFFFFF" font-family="'VWHead-Bold'" font-size="22.1054">#</text>
			<g>
				<path id="XMLID_12_" fill="#FFFFFF" d="M127.634,227.059c-0.555,0.524-1.42,0.494-1.941-0.056
					c-0.518-0.55-0.495-1.421,0.054-1.939c0.557-0.525,1.423-0.495,1.941,0.055C128.209,225.668,128.189,226.536,127.634,227.059z"
					/>
				<path fill="#FFFFFF" d="M138.899,244.588h-3.942c-0.653,0-1.761-0.013-2.35-0.013c-0.014-0.67-0.014-1.705-0.014-2.352v-7.025
					c0-0.623-0.008-1.466-0.008-2.362c0.36,0.009,1.688,0,2.372,0h3.942c0.037,0,0.073,0,0.11-0.009v-2.23
					c-0.037,0-0.073-0.007-0.11-0.007h-3.942c-1.321,0-3.774,0.007-4.595,0.016c0,2.003-0.008,3.367-0.008,4.587v7.024
					c0,1.314,0,3.252,0.023,4.597c1.026,0.006,3.355,0.014,4.579,0.014h3.942c0.037,0,0.073,0,0.11-0.008v-2.231
					C138.972,244.588,138.936,244.588,138.899,244.588z"/>
				<g>
					<polygon fill="#FFFFFF" points="127.88,230.597 125.634,230.597 125.701,246.813 127.948,246.813 					"/>
				</g>
				<path fill="#FFFFFF" d="M161.396,244.626h-3.94c-0.653,0-1.763-0.016-2.348-0.016c-0.015-0.668-0.015-1.703-0.015-2.348v-7.025
					c0-0.624-0.009-1.468-0.009-2.364c0.359,0.007,1.687,0,2.372,0h3.94c0.037,0,0.073,0,0.112-0.009v-2.231
					c-0.039,0-0.075-0.007-0.112-0.007h-3.94c-1.322,0-3.774,0.007-4.597,0.016c0,2.003-0.008,3.369-0.008,4.588v7.023
					c0,1.315,0,3.253,0.022,4.595c1.029,0.009,3.355,0.018,4.582,0.018h3.94c0.037,0,0.073,0,0.112-0.009v-2.23
					C161.463,244.632,161.433,244.626,161.396,244.626z"/>
				<path fill="#FFFFFF" d="M142.217,232.88h4.058c0.662,0,1.94-0.016,2.351-0.023l0.05,7.835v1.532c0,0.646-0.021,1.712-0.03,2.38
					c-0.586-0.009-1.709,0.036-2.371,0.036h-4.058v2.159h4.058c1.226,0,3.532,0.015,4.559,0.006c0.024-1.342,0-3.26,0-4.571v-0.222
					c0-0.036,0.008-0.073,0.008-0.116l-0.008-2.049v-4.648c0-1.216,0.015-2.582,0.015-4.586c-0.007,0,0,0-0.007,0l-0.008-5.901
					c0-0.008,0-0.015,0-0.023l-2.259-0.006c0,0.006,0,0.021,0,0.029l0.022,5.901c-0.83,0-1.704,0.006-2.322,0.006h-4.058V232.88
					L142.217,232.88z"/>
			</g>
		</g>
		<path fill="#FFFFFF" d="M220,153.438c0,19.944-16.168,36.112-36.112,36.112H82.112C62.168,189.55,46,173.382,46,153.438v-50.775
			C46,82.718,62.168,66.55,82.112,66.55h101.775c19.944,0,36.112,16.168,36.112,36.112V153.438z"/>
		<path fill="#EAEEED" d="M182.36,62.55H135v129l46.48-1.499c9.455,0,33.576-8.619,38.98-26.982l0.939-68.436
			C218.402,81.034,203.192,62.55,182.36,62.55z"/>
		<path d="M184.354,191.55H82.687C61.122,191.55,44,174.007,44,152.44v-50.699C44,80.175,61.122,62.55,82.687,62.55h101.667
			c21.565,0,39.646,17.625,39.646,39.191v50.699C224,174.007,205.918,191.55,184.354,191.55z M218,101.665
			c0-18.289-14.826-33.115-33.114-33.115H83.114C64.826,68.55,50,83.376,50,101.665v50.77c0,18.289,14.826,33.115,33.114,33.115
			h101.771c18.289,0,33.114-14.826,33.114-33.115V101.665z"/>
		<g>
			<circle cx="103.392" cy="135.935" r="23.835"/>
			<circle fill="#FFFFFF" cx="104.676" cy="137.323" r="18.039"/>
		</g>
		<g>
			<circle cx="179.848" cy="134.437" r="23.835"/>
			<circle fill="#FFFFFF" cx="181.176" cy="136.281" r="17.582"/>
		</g>
	</g>
</g>
</svg>
