<?xml version="1.0" encoding="utf-8"?>
<!-- Generator: Adobe Illustrator 16.0.0, SVG Export Plug-In . SVG Version: 6.00 Build 0)  -->
<!DOCTYPE svg PUBLIC "-//W3C//DTD SVG 1.1//EN" "http://www.w3.org/Graphics/SVG/1.1/DTD/svg11.dtd">
<svg version="1.1" xmlns="http://www.w3.org/2000/svg" xmlns:xlink="http://www.w3.org/1999/xlink" x="0px" y="0px"
	 width="609.45px" height="793.7px" viewBox="0 0 609.45 793.7" enable-background="new 0 0 609.45 793.7" xml:space="preserve">
<g id="Layer_1">
</g>
<g id="Layer_2">
	<g>
		<g>
			<path fill="#CFD7D9" d="M407.887,572.614c0,35.236-39.29,63.799-87.76,63.799c-48.467,0-87.761-28.563-87.761-63.799
				c0-35.231,39.293-63.797,87.761-63.797C368.597,508.817,407.887,537.383,407.887,572.614z"/>
			<path d="M320.127,642.201c-51.583,0-93.549-31.215-93.549-69.587c0-38.37,41.967-69.585,93.549-69.585
				c51.583,0,93.549,31.215,93.549,69.585C413.676,610.986,371.71,642.201,320.127,642.201z M320.127,514.606
				c-45.198,0-81.972,26.023-81.972,58.008c0,31.985,36.774,58.01,81.972,58.01c45.199,0,81.971-26.024,81.971-58.01
				C402.098,540.63,365.326,514.606,320.127,514.606z"/>
		</g>
		<g>
			<path fill="#FFFFFF" d="M142.005,502.842c11.789,15.907,8.633,38.229-7.063,49.863c-15.684,11.631-37.961,8.162-49.754-7.744
				c-11.788-15.903-8.628-38.228,7.058-49.86C107.938,483.472,130.213,486.935,142.005,502.842z"/>
			<path d="M114.095,565.374c-13.137,0-25.681-6.343-33.555-16.966c-13.672-18.439-9.967-44.438,8.259-57.955
				c7.079-5.249,15.483-8.021,24.305-8.021c13.134,0,25.678,6.343,33.551,16.965c13.673,18.445,9.965,44.45-8.265,57.961
				C131.316,562.601,122.917,565.374,114.095,565.374z M113.104,494.01c-6.32,0-12.341,1.984-17.41,5.743
				c-13.097,9.712-15.725,28.445-5.854,41.762c5.701,7.691,14.769,12.282,24.255,12.282c6.318,0,12.336-1.984,17.4-5.742
				c13.104-9.709,15.731-28.446,5.859-41.767C131.654,498.6,122.588,494.01,113.104,494.01z"/>
		</g>
		<g>
			<path fill="#FFFFFF" d="M130.226,511.924c-22.252-21.247-1.047-52.879,31.235-75.672c33.474-23.635,62.653-34,67.839-28.087
				c5.411,6.167-4.071,43.805-24.164,76.104C184.27,517.813,155.6,536.147,130.226,511.924z"/>
			<path d="M154.984,528.793c-10.269,0-19.942-4.269-28.756-12.68c-7.876-7.524-11.638-16.92-10.88-27.184
				c1.348-18.238,16.938-39.164,42.772-57.403c26.072-18.413,52.583-30.78,65.971-30.78c4.247,0,7.463,1.212,9.56,3.601
				c9.082,10.353-5.485,53.861-23.6,82.98C193.418,514.066,173.863,528.793,154.984,528.793z M224.092,412.322
				c-9.296,0-32.648,9.845-59.292,28.662c-22.661,15.998-36.83,34.24-37.905,48.797c-0.509,6.888,1.888,12.762,7.329,17.956
				c6.586,6.29,13.571,9.478,20.761,9.478c14.516,0,31.005-13.123,45.236-36.004c18.96-30.477,26.192-61.729,24.689-68.852
				C224.697,412.34,224.427,412.322,224.092,412.322z"/>
		</g>
		<g>
			<g>
				<path fill="#CFD7D9" d="M515.696,489.882c15.953-11.729,38.263-8.484,49.836,7.254c11.572,15.729,8.017,37.994-7.935,49.725
					c-15.948,11.724-38.261,8.479-49.832-7.251C496.193,523.874,499.744,501.612,515.696,489.882z"/>
				<path d="M536.211,559.691c-13.06,0-25.438-6.223-33.107-16.652c-6.522-8.868-9.154-19.775-7.41-30.709
					c1.738-10.901,7.625-20.531,16.574-27.111c7.271-5.348,15.854-8.175,24.818-8.175c13.062,0,25.439,6.229,33.11,16.659
					c6.521,8.868,9.151,19.773,7.405,30.709c-1.74,10.901-7.627,20.531-16.574,27.111
					C553.758,556.869,545.176,559.691,536.211,559.691z M537.086,488.621c-6.479,0-12.691,2.05-17.961,5.926
					c-6.48,4.765-10.742,11.729-12,19.61c-1.251,7.849,0.632,15.67,5.305,22.023c5.578,7.584,14.248,11.935,23.781,11.935
					c6.48,0,12.69-2.046,17.958-5.919c6.481-4.766,10.743-11.73,12.001-19.611c1.252-7.852-0.629-15.67-5.3-22.019
					C555.287,492.975,546.62,488.621,537.086,488.621z"/>
			</g>
			<g>
				<path fill="#CFD7D9" d="M518.944,507.485c-21.332,22.169-52.882,0.843-75.55-31.526c-23.509-33.564-33.761-62.782-27.828-67.944
					c6.188-5.387,43.789,4.239,76.012,24.452C525.041,453.463,543.266,482.206,518.944,507.485z"/>
				<path d="M498.645,522.382c-18.943,0-40.81-15.709-59.992-43.101c-14.906-21.281-39.707-64.48-26.885-75.633
					c2.239-1.95,5.574-2.898,10.197-2.898c14.719,0,45.932,10.029,72.689,26.813c24.291,15.24,38.841,33.188,40.973,50.538
					c1.474,12.001-2.736,23.24-12.511,33.398C516.167,518.719,507.934,522.382,498.645,522.382z M419.696,412.48
					c-0.699,5.484,5.833,27.882,28.438,60.157c16.488,23.543,35.842,38.167,50.51,38.167c6.104,0,11.381-2.397,16.129-7.332
					c7.24-7.523,10.391-15.589,9.361-23.964c-1.697-13.821-14.353-28.785-35.634-42.138c-24.66-15.469-53.737-25.043-66.536-25.043
					C420.898,412.328,420.168,412.402,419.696,412.48z"/>
			</g>
		</g>
		<g>
			<path fill="#FFFFFF" d="M412.49,369.931C402.359,340.986,373.783,336,354.603,336h-24.104h-23.154h-23.156
				c-19.181,0-47.757,4.986-57.888,33.931c0,0-41.244,117.601-36.179,180.616C193.016,573.99,212.909,585,232.09,585h75.254h23.154
				h76.203c19.181,0,39.074-11.01,41.969-34.453C453.734,487.531,412.49,369.931,412.49,369.931z"/>
			<path fill="#EAEEED" d="M409.596,369.931C399.465,340.986,370.889,336,351.709,336h-24.105H317v249h10.604h76.203
				c19.182,0,39.074-11.01,41.969-34.453C450.84,487.531,409.596,369.931,409.596,369.931z"/>
			<path d="M406.701,590H232.09c-21.325,0-44.349-11.926-47.714-39.176c-5.119-63.625,34.922-177.969,36.383-182.809
				c8.628-24.67,31.127-38.016,63.429-38.016h70.415c32.302,0,54.801,13.48,63.352,37.91c1.538,5.083,41.579,119.275,36.485,182.654
				C451.05,578.061,428.025,590,406.701,590z M284.188,342c-19.104,0-43.706,5.045-52.423,29.949
				c-0.273,0.924-40.792,116.885-35.873,178.083C198.365,570.021,215.859,579,232.09,579h174.611
				c16.23,0,33.725-9.071,36.223-29.306c4.896-60.975-35.625-176.813-35.976-177.978C398.309,347.053,373.707,342,354.603,342
				H284.188z"/>
		</g>
		<g>
			<path fill="#FFFFFF" d="M307.447,646.495c3.979,17.197,6.339,57.797-4.787,62.133c-18.747,7.31-49.95,18.033-79.916,9.885
				c-16.216-4.407-24.509-16.892-15.709-45.194c5.988-19.257,27.742-38.144,50.508-41.55
				C277.354,628.801,304.412,633.371,307.447,646.495z"/>
			<path d="M245.592,727.221c-8.543,0-16.742-1.049-24.367-3.123c-9.292-2.524-15.944-7.34-19.773-14.316
				c-5.077-9.248-5.057-21.736,0.057-38.182c6.82-21.937,31.058-41.947,55.178-45.557c4.129-0.617,8.502-0.934,12.996-0.934
				c17.879,0,39.977,5.26,43.404,20.079c2.162,9.351,9.816,61.764-8.326,68.833C288.999,720.166,268.027,727.221,245.592,727.221z
				 M269.684,636.688c-3.921,0-7.717,0.271-11.282,0.808c-19.757,2.954-40.319,19.797-45.838,37.542
				c-4.073,13.101-4.396,22.915-0.962,29.173c2.29,4.172,6.432,7.023,12.662,8.715c6.636,1.806,13.812,2.719,21.33,2.719
				c20.506,0,40.146-6.631,54.966-12.408c4.843-2.499,6.391-33.212,1.25-55.435C300.367,641.571,286.255,636.688,269.684,636.688z"
				/>
		</g>
		<g>
			<path fill="#EAEEED" d="M328.336,646.495c-3.979,17.197-6.339,57.797,4.787,62.133c18.746,7.31,49.949,18.033,79.915,9.885
				c16.216-4.407,24.509-16.892,15.709-45.194c-5.988-19.257-27.741-38.144-50.508-41.55
				C358.429,628.801,331.371,633.371,328.336,646.495z"/>
			<path d="M390.195,727c-0.001,0-0.002,0-0.004,0c-22.438,0-43.408-6.945-59.172-13.09c-18.141-7.068-10.486-59.424-8.324-68.774
				c3.428-14.823,25.525-20.053,43.404-20.053c4.494,0,8.867,0.329,12.998,0.946c24.119,3.609,48.355,23.627,55.176,45.563
				c5.113,16.445,5.134,28.938,0.057,38.185c-3.828,6.975-10.48,11.684-19.773,14.208C406.934,726.06,398.736,727,390.195,727z
				 M366.1,636.688c-16.572,0-30.684,4.884-32.123,11.113c-5.143,22.223-3.595,52.615,1.262,55.118
				C350.043,708.69,369.684,715,390.191,715c0.002,0,0.003,0,0.004,0c7.516,0,14.689-0.59,21.324-2.395
				c6.23-1.696,10.373-4.386,12.662-8.558c3.435-6.257,3.111-15.991-0.962-29.089c-5.519-17.75-26.081-34.55-45.837-37.504
				C373.818,636.919,370.021,636.688,366.1,636.688z"/>
		</g>
		<g>
			<rect x="312" y="92" width="11" height="47"/>
			<circle cx="317.536" cy="76.321" r="24.453"/>
		</g>
		<path fill="#00B2ED" d="M388.385,500.325c0,11.205-9.081,20.675-20.283,20.675H266.845c-11.202,0-20.284-9.47-20.284-20.675
			l4.575-53.628c0-11.205,9.082-20.697,20.283-20.697h92.108c11.201,0,20.283,9.492,20.283,20.697L388.385,500.325z"/>
		<g>
			<text transform="matrix(1 0 0 1 263.4336 489.2559)" fill="#FFFFFF" font-family="'VWHead-Bold'" font-size="42.6807">#</text>
			<g>
				<path id="XMLID_1_" fill="#FFFFFF" d="M303.215,453.607c-1.071,1.011-2.742,0.952-3.748-0.108
					c-1.001-1.063-0.956-2.745,0.104-3.745c1.074-1.014,2.748-0.959,3.748,0.105C304.326,450.922,304.286,452.598,303.215,453.607z"
					/>
				<path fill="#FFFFFF" d="M324.965,487.452h-7.611c-1.261,0-3.4-0.025-4.537-0.025c-0.027-1.292-0.027-3.29-0.027-4.54v-13.564
					c0-1.205-0.015-2.832-0.015-4.562c0.695,0.017,3.259,0,4.579,0h7.611c0.07,0,0.142,0,0.213-0.018v-4.305
					c-0.071,0-0.143-0.015-0.213-0.015h-7.611c-2.553,0-7.287,0.015-8.873,0.029c0,3.869-0.014,6.504-0.014,8.858v13.562
					c0,2.538,0,6.277,0.045,8.875c1.981,0.012,6.479,0.028,8.842,0.028h7.611c0.07,0,0.142,0,0.213-0.017v-4.308
					C325.106,487.452,325.035,487.452,324.965,487.452z"/>
				<g>
					<polygon fill="#FFFFFF" points="303.69,460.438 299.354,460.438 299.481,491.748 303.82,491.748 					"/>
				</g>
				<path fill="#FFFFFF" d="M368.403,487.525h-7.609c-1.261,0-3.403-0.031-4.534-0.031c-0.027-1.289-0.027-3.29-0.027-4.534v-13.564
					c0-1.203-0.018-2.832-0.018-4.565c0.692,0.015,3.256,0,4.579,0h7.609c0.071,0,0.142,0,0.215-0.014v-4.311
					c-0.073,0-0.144-0.011-0.215-0.011h-7.609c-2.552,0-7.286,0.011-8.875,0.028c0,3.869-0.015,6.507-0.015,8.857v13.562
					c0,2.538,0,6.281,0.043,8.87c1.986,0.021,6.479,0.035,8.847,0.035h7.609c0.071,0,0.142,0,0.215-0.015v-4.308
					C368.53,487.536,368.475,487.525,368.403,487.525z"/>
				<path fill="#FFFFFF" d="M331.37,464.845h7.835c1.277,0,3.745-0.028,4.539-0.045l0.097,15.128v2.959
					c0,1.25-0.04,3.305-0.058,4.594c-1.133-0.015-3.301,0.07-4.578,0.07h-7.835v4.169h7.835c2.365,0,6.82,0.028,8.803,0.012
					c0.044-2.593,0-6.295,0-8.828v-0.427c0-0.07,0.014-0.141,0.014-0.226l-0.014-3.954v-8.975c0-2.35,0.027-4.985,0.027-8.855
					c-0.014,0,0,0-0.014,0l-0.014-11.394c0-0.018,0-0.028,0-0.046l-4.362-0.011c0,0.011,0,0.039,0,0.057l0.042,11.394
					c-1.603,0-3.289,0.011-4.482,0.011h-7.835V464.845L331.37,464.845z"/>
			</g>
		</g>
		<path fill="#FFFFFF" d="M483,309.274C483,347.783,451.783,379,413.275,379H216.724C178.217,379,147,347.783,147,309.274v-97.549
			C147,173.217,178.217,142,216.724,142h196.551C451.783,142,483,173.217,483,211.726V309.274z"/>
		<path fill="#EAEEED" d="M408.879,136H317v249.046l89.962-2.895c18.254,0,64.937-16.642,75.372-52.098l1.868-132.121
			C478.414,171.677,449.101,136,408.879,136z"/>
		<path d="M412.728,386H216.431C174.792,386,141,351.173,141,309.532v-97.888C141,170.004,174.792,136,216.431,136h196.297
			C454.365,136,488,170.004,488,211.645v97.888C488,351.173,454.365,386,412.728,386z M216.431,148
			C181.177,148,153,176.389,153,211.645v97.888C153,344.788,181.177,373,216.431,373h196.297C447.981,373,477,344.788,477,309.532
			v-97.888C477,176.389,447.981,148,412.728,148H216.431z"/>
		<g>
			<circle cx="244.824" cy="280.667" r="46.02"/>
			<path fill="#FFFFFF" d="M278.186,282.353c0,18.68-15.145,33.823-33.823,33.823c-18.679,0-33.82-15.144-33.82-33.823
				c0-18.681,15.142-33.818,33.82-33.818C263.042,248.534,278.186,263.672,278.186,282.353z"/>
		</g>
		<g>
			<circle cx="380.86" cy="274.771" r="46.02"/>
			<circle fill="#FFFFFF" cx="379.604" cy="277.543" r="34.737"/>
		</g>
	</g>
</g>
</svg>
