<?xml version="1.0" encoding="utf-8"?>
<!-- Generator: Adobe Illustrator 16.0.0, SVG Export Plug-In . SVG Version: 6.00 Build 0)  -->
<!DOCTYPE svg PUBLIC "-//W3C//DTD SVG 1.1//EN" "http://www.w3.org/Graphics/SVG/1.1/DTD/svg11.dtd">
<svg version="1.1" id="Layer_1" xmlns="http://www.w3.org/2000/svg" xmlns:xlink="http://www.w3.org/1999/xlink" x="0px" y="0px"
	 width="90.122px" height="129.5px" viewBox="0 0 90.122 129.5" enable-background="new 0 0 90.122 129.5" xml:space="preserve">
<path fill-rule="evenodd" clip-rule="evenodd" fill="#FFFFFF" d="M25.14,124.215c-0.492-0.433-1.042-0.904-1.554-1.396
	c-4.013-3.992-7.907-8.082-12.037-11.938c-1.77-1.671-1.554-2.636,0.059-4.228C24.53,93.789,37.274,80.789,50.176,67.966
	c2.026-2.006,2.144-3.068,0.059-5.133C37.373,50.088,24.707,37.146,11.844,24.401c-2.045-2.025-1.849-3.088,0.118-4.897
	c3.973-3.717,7.789-7.611,11.545-11.524c1.317-1.377,2.183-1.73,3.736-0.157c18.488,18.664,37.014,37.251,55.601,55.856
	c1.219,1.219,1.337,2.025,0.079,3.304c-18.665,18.664-37.25,37.369-55.875,56.053C26.536,123.547,26.103,124.176,25.14,124.215z"/>
</svg>
