<?xml version="1.0" encoding="utf-8"?>
<!-- Generator: Adobe Illustrator 16.0.0, SVG Export Plug-In . SVG Version: 6.00 Build 0)  -->
<!DOCTYPE svg PUBLIC "-//W3C//DTD SVG 1.1//EN" "http://www.w3.org/Graphics/SVG/1.1/DTD/svg11.dtd">
<svg version="1.1" id="Layer_1" xmlns="http://www.w3.org/2000/svg" xmlns:xlink="http://www.w3.org/1999/xlink" x="0px" y="0px"
	 width="200px" height="200px" viewBox="0 0 200 200" enable-background="new 0 0 200 200" xml:space="preserve">
<g>
	<path fill="#FFFFFF" d="M86.117,144.124c-1.675,0-3.372-0.397-5.047-1.183c-5.445-2.545-5.382-7.885-5.361-10.168
		c0.073-7.779,0.063-15.686,0.042-23.34c0-3.234-0.01-6.46-0.01-9.686c0-3.256,0.01-6.502,0.01-9.748
		c0.021-7.382,0.021-15.025-0.021-22.523c-0.042-2.785-0.094-7.999,5.445-10.491c4.23-1.917,8.523-1.319,12.398,1.759
		c8.816,7.026,17.675,14.021,26.533,21.016l10.178,8.041c0.681,0.545,1.382,1.079,2.083,1.623c1.738,1.341,3.529,2.733,5.246,4.23
		c2.848,2.439,3.414,4.922,3.393,6.576c-0.042,1.623-0.67,4.01-3.487,6.251c-14.481,11.519-28.764,22.764-44.617,35.214
		C90.881,143.275,88.536,144.124,86.117,144.124z M86.044,63.33c-0.555,0-1.141,0.146-1.812,0.44
		c-0.754,0.345-1.089,0.503-1.068,3.644c0.063,7.539,0.042,15.193,0.042,22.597c-0.011,3.245-0.021,6.491-0.021,9.737
		c0,3.226,0.011,6.439,0.021,9.665c0.01,7.675,0.021,15.612-0.042,23.435c-0.042,2.837,0.419,3.047,1.068,3.35
		c1.55,0.723,2.795,0.639,4.073-0.366c15.832-12.439,30.114-23.664,44.575-35.183c0.335-0.262,0.513-0.449,0.607-0.575
		c-0.105-0.157-0.314-0.43-0.733-0.786c-1.57-1.371-3.204-2.639-4.942-3.968c-0.712-0.556-1.435-1.11-2.157-1.675l-10.157-8.043
		c-8.879-6.994-17.738-13.999-26.575-21.035C87.876,63.729,86.934,63.33,86.044,63.33z"/>
	<path fill="#FFFFFF" d="M99.855,196.5c-53.213,0-96.5-43.287-96.5-96.5s43.287-96.5,96.5-96.5c53.213,0,96.5,43.287,96.5,96.5
		S153.068,196.5,99.855,196.5z M99.855,10.945C50.747,10.945,10.8,50.891,10.8,100c0,49.108,39.947,89.055,89.055,89.055
		S188.91,149.108,188.91,100C188.91,50.891,148.963,10.945,99.855,10.945z"/>
	<path opacity="0.2" fill-rule="evenodd" clip-rule="evenodd" fill="#FFFFFF" d="M192.627,98.764
		c0,51.234-41.528,92.773-92.772,92.773S7.083,149.998,7.083,98.764c0-51.244,41.528-92.782,92.772-92.782
		S192.627,47.52,192.627,98.764z"/>
</g>
</svg>
