<svg version="1.1" id="Alle_icons"
                                xmlns="http://www.w3.org/2000/svg" xmlns:xlink="http://www.w3.org/1999/xlink" x="0px"
                                y="0px" viewBox="0 0 50 30" style="enable-background:new 0 0 50 30;"
                                xml:space="preserve" class="vw_m502_icon">
                                <path fill="#808890" d="M38.837,14.193l-0.059-0.917l-0.68-3.231c-0.069-0.244-0.181-0.474-0.33-0.68c-0.155-0.121-0.34-0.198-0.535-0.221H22.426
          c-0.687,0.037-1.369,0.132-2.039,0.284c-0.458,0.212-0.9,0.459-1.32,0.739l-3.59,2.845l-0.238,0.059l-3.577,1.508l-0.531,0.62
          l-0.086,1.066l-0.238,0.264l-0.089,2.132l0.149,0.353l0.71,0.356h1.155l1.079,0.238c0.024,1.205,1.019,2.162,2.224,2.139
          s2.162-1.019,2.139-2.224c0-0.001,0-0.002,0-0.003h13.692c0.007,1.208,0.992,2.182,2.201,2.175s2.182-0.992,2.175-2.201
          c-0.001-0.161-0.02-0.322-0.056-0.479h3.396v-0.799l-0.442-0.561L38.837,14.193z" />
                            </svg>