<?xml version="1.0" encoding="utf-8"?>
<!-- Generator: Adobe Illustrator 16.0.0, SVG Export Plug-In . SVG Version: 6.00 Build 0)  -->
<!DOCTYPE svg PUBLIC "-//W3C//DTD SVG 1.1//EN" "http://www.w3.org/Graphics/SVG/1.1/DTD/svg11.dtd">
<svg version="1.1" xmlns="http://www.w3.org/2000/svg" xmlns:xlink="http://www.w3.org/1999/xlink" x="0px" y="0px"
	 width="376.165px" height="80.895px" viewBox="0 0 376.165 80.895" enable-background="new 0 0 376.165 80.895"
	 xml:space="preserve">
<g id="Layer_1">
</g>
<g id="Layer_2">
</g>
<g id="Layer_3">
	<g>
		<g>
			<path fill="#34373A" d="M298.8,28.389h-2.208V17.571h2.208V28.389z"/>
			<path fill="#34373A" d="M302.771,20.729l0.283,0.75h0.033c0.446-0.403,1.241-0.99,2.448-0.99c1.795,0,2.829,1.219,2.829,3.068
				v4.832h-2.144v-4.615c0-0.999-0.435-1.522-1.372-1.522c-0.729,0-1.316,0.403-1.654,0.652v5.485h-2.143v-7.66H302.771z"/>
			<path fill="#34373A" d="M312.01,20.729l0.283,0.75h0.033c0.446-0.403,1.24-0.99,2.448-0.99c1.795,0,2.829,1.219,2.829,3.068
				v4.832h-2.144v-4.615c0-0.999-0.435-1.522-1.371-1.522c-0.729,0-1.316,0.403-1.654,0.652v5.485h-2.143v-7.66H312.01z"/>
			<path fill="#34373A" d="M323.152,28.627c-2.623,0-4.037-1.849-4.037-4.069c0-2.23,1.415-4.069,4.037-4.069
				c2.676,0,4.059,1.849,4.059,4.069C327.21,26.788,325.828,28.627,323.152,28.627z M323.152,26.864
				c1.132,0,1.861-0.761,1.861-2.307c0-1.545-0.729-2.307-1.861-2.307c-1.1,0-1.85,0.762-1.85,2.307
				C321.313,26.104,322.052,26.864,323.152,26.864z"/>
			<path fill="#34373A" d="M335.992,20.881l-2.938,7.508h-2.318l-2.938-7.508v-0.152h2.166l1.926,5.483h0.032l1.926-5.483h2.165
				v0.152H335.992z"/>
			<path fill="#34373A" d="M343.488,26.724c0,0.239,0.012,0.281,0.25,0.281h0.556v1.46c-0.339,0.064-0.654,0.108-1.111,0.108
				c-0.826,0-1.25-0.315-1.522-0.904h-0.032c-0.511,0.437-1.524,0.958-2.469,0.958c-1.721,0-2.591-1.022-2.591-2.415
				c0-1.696,1.077-2.513,3.787-2.513h1.033v-0.349c0-0.959-0.837-1.1-1.304-1.1c-0.84,0-1.795,0.229-2.547,0.554l-0.512-1.643
				c0.816-0.369,1.97-0.685,3.167-0.685c2.208,0,3.296,1.132,3.296,3.102V26.724L343.488,26.724z M340.583,25.081
				c-1.414,0-1.959,0.369-1.959,0.935c0,0.63,0.371,0.925,1.023,0.925c0.556,0,1.308-0.207,1.753-0.521v-1.338H340.583z"/>
			<path fill="#34373A" d="M348.45,18.943v1.785h2.198v1.643h-2.198v3.623c0,0.556,0.285,0.87,0.904,0.87
				c0.37,0,0.871-0.108,1.24-0.229v1.753c-0.315,0.076-1.045,0.238-1.795,0.238c-1.697,0-2.493-0.695-2.493-2.242v-4.023h-1.402
				v-1.165l1.402-0.479v-1.773H348.45z"/>
			<path fill="#34373A" d="M353.25,17.028c0.762,0,1.25,0.489,1.25,1.175c0,0.687-0.488,1.176-1.25,1.176
				c-0.752,0-1.24-0.489-1.24-1.176C352.01,17.518,352.508,17.028,353.25,17.028z M352.173,28.389v-7.66h2.144v7.67h-2.144V28.389z"
				/>
			<path fill="#34373A" d="M359.953,28.627c-2.624,0-4.038-1.849-4.038-4.069c0-2.23,1.414-4.069,4.038-4.069
				c2.676,0,4.058,1.849,4.058,4.069C364.001,26.788,362.619,28.627,359.953,28.627z M359.953,26.864
				c1.131,0,1.859-0.761,1.859-2.307c0-1.545-0.728-2.307-1.859-2.307c-1.101,0-1.85,0.762-1.85,2.307
				C358.104,26.104,358.853,26.864,359.953,26.864z"/>
			<path fill="#34373A" d="M367.309,20.729l0.283,0.75h0.032c0.445-0.403,1.241-0.99,2.449-0.99c1.795,0,2.828,1.219,2.828,3.068
				v4.832h-2.142v-4.615c0-0.999-0.437-1.522-1.372-1.522c-0.728,0-1.317,0.403-1.653,0.652v5.485h-2.144v-7.66H367.309z"/>
		</g>
		<g>
			<path fill="#34373A" d="M301.737,49.303v7.898h-1.131l-0.218-0.489h-0.022c-0.391,0.283-0.914,0.652-1.73,0.652
				c-1.566,0-2.383-1.305-2.383-2.893c0-1.579,0.816-2.896,2.383-2.896c0.762,0,1.218,0.327,1.545,0.565h0.022v-2.838H301.737z
				 M300.214,53.176c-0.304-0.185-0.696-0.327-1.099-0.327c-0.903,0-1.294,0.664-1.294,1.633s0.391,1.633,1.294,1.633
				c0.392,0,0.794-0.143,1.099-0.327V53.176z"/>
			<path fill="#34373A" d="M304.415,54.927c0.054,0.774,0.555,1.229,1.371,1.229c0.631,0,1.208-0.141,1.741-0.337l0.348,1.1
				c-0.544,0.261-1.328,0.457-2.198,0.457c-1.882,0-2.796-1.296-2.796-2.904c0-1.547,0.947-2.885,2.72-2.885
				c1.763,0,2.535,1.077,2.535,2.35c0,0.349-0.043,0.796-0.076,0.98h-3.645V54.927z M306.732,53.97
				c0.011-0.054,0.011-0.108,0.011-0.174c0-0.61-0.284-1.109-1.143-1.109c-0.772,0-1.153,0.619-1.186,1.273h2.318V53.97z"/>
			<path fill="#34373A" d="M310.747,49.303v6.68c0,0.174,0.011,0.206,0.186,0.206h0.598v1.035c-0.239,0.042-0.576,0.076-0.903,0.076
				c-1.034,0-1.404-0.512-1.404-1.589v-6.408H310.747z"/>
			<path fill="#34373A" d="M313.282,49.139c0.544,0,0.893,0.347,0.893,0.838c0,0.489-0.348,0.837-0.893,0.837
				c-0.533,0-0.881-0.348-0.881-0.837C312.401,49.485,312.76,49.139,313.282,49.139z M312.521,57.201v-5.439h1.523v5.439H312.521z"
				/>
			<path fill="#34373A" d="M320.704,51.87l-2.089,5.331h-1.644l-2.089-5.331v-0.108h1.534l1.371,3.896h0.022l1.371-3.896h1.534
				v0.108H320.704z"/>
			<path fill="#34373A" d="M322.662,54.927c0.054,0.774,0.555,1.229,1.371,1.229c0.631,0,1.208-0.141,1.741-0.337l0.348,1.1
				c-0.543,0.261-1.327,0.457-2.197,0.457c-1.882,0-2.797-1.296-2.797-2.904c0-1.547,0.947-2.885,2.721-2.885
				c1.763,0,2.535,1.077,2.535,2.35c0,0.349-0.044,0.796-0.076,0.98h-3.646V54.927z M324.98,53.97
				c0.011-0.054,0.011-0.108,0.011-0.174c0-0.61-0.283-1.109-1.142-1.109c-0.773,0-1.153,0.619-1.187,1.273h2.318V53.97z"/>
			<path fill="#34373A" d="M328.724,51.762l0.217,0.651h0.022c0.207-0.347,0.653-0.826,1.382-0.826c0.196,0,0.403,0.032,0.544,0.066
				l-0.131,1.271c-0.185-0.021-0.424-0.032-0.555-0.032c-0.631,0-0.99,0.293-1.185,0.532v3.787h-1.523v-5.44h1.229V51.762z"/>
			<path fill="#34373A" d="M336.907,51.87l-2.34,5.995c-0.489,1.22-1.229,1.741-2.176,1.741c-0.359,0-0.631-0.044-0.893-0.099
				v-1.207c0.262,0.042,0.577,0.054,0.697,0.054c0.49,0,0.75-0.162,0.925-0.598l0.229-0.609l-2.187-5.277v-0.108h1.578l1.306,3.698
				h0.033l1.24-3.698h1.578v0.108H336.907z"/>
			<path fill="#34373A" d="M342.716,51.587c0.664,0,1.328,0.195,1.697,0.327l-0.305,1.163c-0.315-0.098-0.718-0.238-1.206-0.238
				c-0.828,0-1.514,0.457-1.514,1.633c0,1.186,0.664,1.631,1.514,1.631c0.488,0,0.891-0.131,1.206-0.239l0.305,1.165
				c-0.359,0.129-1.022,0.325-1.697,0.325c-1.849,0-2.893-1.131-2.893-2.894C339.823,52.719,340.867,51.587,342.716,51.587z"/>
			<path fill="#34373A" d="M346.623,54.927c0.054,0.762,0.554,1.229,1.37,1.229c0.632,0,1.209-0.141,1.741-0.337l0.349,1.1
				c-0.543,0.261-1.328,0.457-2.198,0.457c-1.883,0-2.796-1.296-2.796-2.904c0-1.547,0.947-2.885,2.72-2.885
				c1.763,0,2.535,1.077,2.535,2.35c0,0.349-0.044,0.796-0.076,0.98h-3.645V54.927z M348.941,53.97
				c0.01-0.054,0.01-0.108,0.01-0.174c0-0.61-0.283-1.109-1.143-1.109c-0.772,0-1.153,0.619-1.186,1.273h2.318V53.97z"/>
			<path fill="#34373A" d="M352.672,51.762l0.208,0.531h0.02c0.315-0.28,0.881-0.695,1.741-0.695c1.273,0,2.012,0.87,2.012,2.176
				v3.428h-1.522v-3.275c0-0.708-0.303-1.087-0.967-1.087c-0.523,0-0.937,0.281-1.175,0.457v3.896h-1.524V51.75h1.208V51.762z"/>
			<path fill="#34373A" d="M360.062,50.498v1.264h1.555v1.163h-1.555v2.58c0,0.391,0.207,0.619,0.642,0.619
				c0.261,0,0.62-0.076,0.88-0.162v1.239c-0.229,0.055-0.75,0.175-1.272,0.175c-1.209,0-1.775-0.5-1.775-1.589v-2.851h-0.989v-0.828
				l0.989-0.337v-1.273H360.062z"/>
			<path fill="#34373A" d="M363.957,54.927c0.054,0.774,0.556,1.229,1.372,1.229c0.63,0,1.206-0.141,1.741-0.337l0.348,1.1
				c-0.544,0.261-1.328,0.457-2.199,0.457c-1.881,0-2.796-1.296-2.796-2.904c0-1.547,0.947-2.885,2.72-2.885
				c1.763,0,2.537,1.077,2.537,2.35c0,0.349-0.044,0.796-0.078,0.98h-3.645V54.927z M366.273,53.97
				c0.012-0.054,0.012-0.108,0.012-0.174c0-0.61-0.283-1.109-1.144-1.109c-0.772,0-1.153,0.619-1.186,1.273h2.317V53.97z"/>
			<path fill="#34373A" d="M370.017,51.762l0.218,0.651h0.022c0.207-0.347,0.654-0.826,1.382-0.826c0.197,0,0.403,0.032,0.544,0.066
				l-0.13,1.271c-0.173-0.032-0.403-0.042-0.544-0.042c-0.631,0-0.991,0.293-1.187,0.532v3.786h-1.522v-5.439H370.017z"/>
		</g>
		<g>
			<path fill="#34373A" d="M307.592,39.465c-0.697,1.045-1.36,1.959-2.046,2.709l2.535,2.504v0.174h-2.818l-1.229-1.229
				c-1.273,0.999-2.59,1.49-4.048,1.49c-2.383,0-3.863-1.295-3.863-3.243c0-1.807,1.632-2.697,2.731-3.308l0.12-0.064l-0.033-0.033
				c-0.577-0.556-1.469-1.501-1.469-2.698c0-1.665,1.382-3.081,3.591-3.081c1.991,0,3.46,1.416,3.46,3.059
				c0,1.447-0.979,2.243-2.035,2.873l-0.337,0.196l1.991,1.979c0.556-0.642,1.143-1.436,1.806-2.415L307.592,39.465z
				 M302.641,42.218l-2.307-2.351l-0.207,0.12c-0.577,0.315-1.491,0.827-1.491,1.731c0,0.782,0.577,1.314,1.665,1.314
				C301.106,43.033,301.857,42.796,302.641,42.218z M300.476,37.136l0.293,0.315l0.49-0.293c0.631-0.348,1.045-0.719,1.045-1.296
				c0-0.596-0.49-1.131-1.241-1.131c-0.827,0-1.263,0.511-1.263,1.131C299.812,36.299,299.997,36.702,300.476,37.136z"/>
			<path fill="#34373A" d="M314.926,32.697c1.099,0,2.274,0.261,3.373,0.772l-0.642,1.925c-1.001-0.434-1.752-0.609-2.731-0.609
				c-2.122,0-3.253,1.667-3.253,4.136s1.143,4.124,3.253,4.124c0.979,0,1.73-0.175,2.731-0.608l0.642,1.924
				c-1.099,0.512-2.274,0.774-3.373,0.774c-3.744,0-5.789-2.503-5.789-6.214C309.137,35.2,311.182,32.697,314.926,32.697z"/>
			<path fill="#34373A" d="M323.772,45.123c-2.884,0-4.44-2.034-4.44-4.483c0-2.447,1.556-4.482,4.44-4.482
				c2.938,0,4.461,2.035,4.461,4.482C328.233,43.089,326.71,45.123,323.772,45.123z M323.772,43.175c1.24,0,2.046-0.836,2.046-2.535
				c0-1.697-0.806-2.535-2.046-2.535c-1.208,0-2.035,0.838-2.035,2.535C321.737,42.339,322.565,43.175,323.772,43.175z"/>
			<path fill="#34373A" d="M331.868,36.418l0.316,0.826h0.032c0.49-0.434,1.36-1.087,2.699-1.087c1.98,0,3.112,1.35,3.112,3.373
				v5.321h-2.361v-5.07c0-1.101-0.468-1.677-1.502-1.677c-0.804,0-1.446,0.436-1.817,0.718v6.04h-2.361V36.43h1.882V36.418z"/>
			<path fill="#34373A" d="M343.315,34.46v1.958h2.415v1.807h-2.415v3.993c0,0.608,0.315,0.957,1.001,0.957
				c0.401,0,0.957-0.118,1.36-0.25v1.927c-0.349,0.087-1.153,0.261-1.981,0.261c-1.87,0-2.74-0.771-2.74-2.469v-4.431h-1.546v-1.273
				l1.546-0.521V34.46H343.315z"/>
			<path fill="#34373A" d="M349.354,41.326c0.086,1.185,0.859,1.903,2.121,1.903c0.979,0,1.873-0.227,2.7-0.521l0.543,1.696
				c-0.838,0.403-2.068,0.719-3.416,0.719c-2.926,0-4.342-2.013-4.342-4.493c0-2.395,1.47-4.463,4.222-4.463
				c2.732,0,3.939,1.667,3.939,3.646c0,0.544-0.066,1.218-0.121,1.522h-5.646V41.326z M352.945,39.855
				c0.02-0.086,0.02-0.173,0.02-0.261c0-0.945-0.434-1.719-1.761-1.719c-1.186,0-1.785,0.957-1.839,1.979H352.945z"/>
			<path fill="#34373A" d="M358.734,36.418l0.315,0.826h0.034c0.488-0.434,1.358-1.087,2.698-1.087c1.98,0,3.111,1.35,3.111,3.373
				v5.321h-2.361v-5.07c0-1.101-0.467-1.677-1.5-1.677c-0.806,0-1.448,0.436-1.819,0.718v6.04h-2.361V36.43h1.883V36.418z"/>
			<path fill="#34373A" d="M370.181,34.46v1.958h2.417v1.807h-2.417v3.993c0,0.608,0.317,0.957,1.001,0.957
				c0.403,0,0.958-0.118,1.36-0.25v1.927c-0.347,0.087-1.153,0.261-1.98,0.261c-1.873,0-2.743-0.771-2.743-2.469v-4.431h-1.545
				v-1.273l1.545-0.521V34.46H370.181z"/>
		</g>
	</g>
	<g>
		<path id="XMLID_3_" fill="#DDA42F" d="M187.568,8.084c0,1.826-1.475,3.282-3.283,3.282c-1.809,0-3.284-1.474-3.284-3.282
			c0-1.825,1.475-3.284,3.284-3.284C186.093,4.8,187.568,6.259,187.568,8.084z"/>
		<path fill="#34373A" d="M213.484,52.401h-9.429c-1.563,0-4.214-0.037-5.619-0.037c-0.035-1.597-0.035-4.071-0.035-5.617V29.945
			c0-1.494-0.018-3.513-0.018-5.655c0.86,0.019,4.038,0,5.671,0h9.429c0.088,0,0.175,0,0.264-0.019v-5.337
			c-0.088,0-0.175-0.019-0.264-0.019h-9.429c-3.16,0-9.025,0.019-10.991,0.036c0,4.794-0.018,8.06-0.018,10.975v16.802
			c0,3.144,0,7.78,0.053,10.991c2.458,0.019,8.024,0.037,10.956,0.037h9.429c0.088,0,0.175,0,0.264-0.019v-5.337
			C213.66,52.401,213.573,52.401,213.484,52.401z"/>
		<g>
			<polygon fill="#34373A" points="187.13,18.935 181.757,18.935 181.916,57.72 187.288,57.72 			"/>
		</g>
		<path fill="#34373A" d="M267.301,52.49h-9.429c-1.562,0-4.213-0.038-5.618-0.038c-0.035-1.597-0.035-4.072-0.035-5.617V30.033
			c0-1.494-0.019-3.513-0.019-5.655c0.861,0.018,4.04,0,5.672,0h9.429c0.087,0,0.175,0,0.263-0.019v-5.338
			c-0.088,0-0.176-0.017-0.263-0.017h-9.429c-3.16,0-9.025,0.017-10.991,0.035c0,4.795-0.018,8.06-0.018,10.973v16.804
			c0,3.144,0,7.78,0.053,10.991c2.457,0.019,8.023,0.035,10.956,0.035h9.429c0.087,0,0.175,0,0.263-0.017V52.49
			C267.459,52.507,267.388,52.49,267.301,52.49z"/>
		<path fill="#34373A" d="M221.421,24.396h9.71c1.58,0,4.635-0.036,5.619-0.053l0.123,18.734v3.67c0,1.546-0.052,4.09-0.07,5.688
			c-1.405-0.017-4.091,0.088-5.671,0.088h-9.71v5.162h9.71c2.932,0,8.445,0.034,10.903,0.017c0.052-3.212,0-7.795,0-10.937v-0.528
			c0-0.088,0.018-0.176,0.018-0.281l-0.018-4.897V29.945c0-2.917,0.035-6.182,0.035-10.975c-0.017,0,0,0-0.017,0l-0.018-14.118
			c0-0.017,0-0.033,0-0.053l-5.408-0.019c0,0.019,0,0.055,0,0.071l0.053,14.118c-1.984,0-4.074,0.017-5.548,0.017h-9.71V24.396
			L221.421,24.396z"/>
		<polygon fill="#DDA42F" points="213.959,70.943 166.288,70.943 166.288,7.644 175.875,7.644 175.875,9.032 167.675,9.032 
			167.675,69.555 213.959,69.555 		"/>
		<path id="XMLID_2_" fill="#6499CF" d="M216.136,6.802l-5.566,5.567c-0.826,0.824-2.159,0.824-2.985,0l0,0
			c-0.826-0.827-0.826-2.161,0-2.986l5.566-5.566c0.825-0.823,2.16-0.823,2.985,0l0,0C216.944,4.626,216.944,5.978,216.136,6.802z"
			/>
		<path fill="#6499CF" d="M225.301,8.084l3.266-3.265c0.737-0.738,0.737-1.951,0-2.687c-0.351-0.353-0.843-0.563-1.353-0.563
			c-0.509,0-0.982,0.193-1.352,0.563l-4.547,4.546c-0.352,0.352-0.563,0.843-0.563,1.352c0,0.019,0,0.037,0,0.054s0,0.034,0,0.053
			c0,0.51,0.193,0.983,0.563,1.352l4.547,4.547c0.352,0.353,0.843,0.563,1.352,0.563c0.51,0,0.984-0.193,1.353-0.563
			c0.737-0.736,0.737-1.947,0-2.686L225.301,8.084z"/>
		<path id="XMLID_1_" fill="#DDA42F" d="M195.312,6.872l2.458-2.422c0.703-0.685,1.809-0.668,2.494,0.017l2.3,2.335
			c0.684,0.685,0.667,1.808-0.018,2.493l-2.458,2.424c-0.685,0.685-1.808,0.667-2.493-0.017l-2.301-2.338
			C194.61,8.663,194.626,7.539,195.312,6.872z"/>
		<g>
			<g>
				<path fill="#6499CF" d="M233.834,62.864l-4.548,12.713h-3.213l-4.548-12.713v-0.192h2.863l3.283,10.131h0.052l3.249-10.131
					h2.862V62.864z"/>
				<path fill="#6499CF" d="M252.833,62.864l-3.512,12.713h-3.125l-2.598-9.989h-0.018l-2.599,9.989h-3.143l-3.512-12.713v-0.192
					h2.826l2.178,10.062h0.035l2.669-10.062h3.072l2.67,10.062h0.035l2.159-10.062h2.844v0.192H252.833z"/>
				<path fill="#6499CF" d="M261.19,69.571l3.933-6.899h2.545v12.905h-2.633v-8.394h-0.035l-2.775,5.145h-2.089l-2.774-5.145h-0.036
					v8.394h-2.633V62.672h2.546l3.933,6.899H261.19z"/>
			</g>
		</g>
	</g>
	<text transform="matrix(1 0 0 1 3.3159 46.8545)" fill="#00B2ED" font-family="'VWHead-Bold'" font-size="26.2516">powered by</text>
</g>
<g id="Layer_4">
	<g id="Layer_5">
		<g id="Layer_6">
		</g>
	</g>
</g>
<g id="Layer_7">
</g>
<g id="Layer_8">
</g>
</svg>
