<?xml version="1.0" encoding="utf-8"?>
<!-- Generator: Adobe Illustrator 16.0.0, SVG Export Plug-In . SVG Version: 6.00 Build 0)  -->
<!DOCTYPE svg PUBLIC "-//W3C//DTD SVG 1.1//EN" "http://www.w3.org/Graphics/SVG/1.1/DTD/svg11.dtd">
<svg version="1.1" id="Layer_1" xmlns="http://www.w3.org/2000/svg" xmlns:xlink="http://www.w3.org/1999/xlink" x="0px" y="0px"
	 width="200px" height="200px" viewBox="0 0 200 200" enable-background="new 0 0 200 200" xml:space="preserve">
<rect x="55.855" y="1" opacity="0.7" width="84" height="200"/>
<path fill-rule="evenodd" clip-rule="evenodd" fill="#FFFFFF" d="M90.062,126.356c-0.214-0.19-0.472-0.398-0.705-0.63
	c-1.814-1.808-3.586-3.661-5.454-5.413c-0.803-0.754-0.7-1.183,0.032-1.912c5.843-5.83,11.624-11.722,17.479-17.537
	c0.911-0.904,0.966-1.389,0.023-2.322c-5.83-5.775-11.569-11.643-17.4-17.415c-0.931-0.921-0.831-1.404,0.049-2.223
	c1.805-1.68,3.528-3.448,5.239-5.225c0.601-0.624,0.986-0.777,1.688-0.067c8.378,8.459,16.784,16.891,25.199,25.314
	c0.551,0.552,0.616,0.917,0.031,1.502c-8.45,8.455-16.881,16.93-25.32,25.396C90.698,126.053,90.5,126.346,90.062,126.356z"/>
</svg>
